<mxfile host="app.diagrams.net" agent="Mozilla/5.0 (Windows NT 10.0; Win64; x64) AppleWebKit/537.36 (KHTML, like Gecko) Chrome/131.0.0.0 Safari/537.36 OPR/116.0.0.0 (Edition std-1)" version="26.0.14">
  <diagram name="Page-1" id="MVaUFhQKoWql6NLIcl7x">
    <mxGraphModel dx="752" dy="1574" grid="1" gridSize="10" guides="1" tooltips="1" connect="1" arrows="1" fold="1" page="1" pageScale="1" pageWidth="850" pageHeight="1100" math="0" shadow="0">
      <root>
        <mxCell id="0" />
        <mxCell id="1" parent="0" />
        <mxCell id="_rv3rTIkYbMwMZLJfRdI-9" style="edgeStyle=orthogonalEdgeStyle;rounded=0;orthogonalLoop=1;jettySize=auto;html=1;exitX=1;exitY=0.25;exitDx=0;exitDy=0;entryX=0;entryY=0.5;entryDx=0;entryDy=0;" edge="1" parent="1" source="_rv3rTIkYbMwMZLJfRdI-1" target="_rv3rTIkYbMwMZLJfRdI-5">
          <mxGeometry relative="1" as="geometry" />
        </mxCell>
        <mxCell id="_rv3rTIkYbMwMZLJfRdI-15" style="edgeStyle=orthogonalEdgeStyle;rounded=0;orthogonalLoop=1;jettySize=auto;html=1;exitX=1;exitY=0.5;exitDx=0;exitDy=0;entryX=0;entryY=0.5;entryDx=0;entryDy=0;" edge="1" parent="1" source="_rv3rTIkYbMwMZLJfRdI-1" target="_rv3rTIkYbMwMZLJfRdI-12">
          <mxGeometry relative="1" as="geometry" />
        </mxCell>
        <mxCell id="_rv3rTIkYbMwMZLJfRdI-17" style="edgeStyle=orthogonalEdgeStyle;rounded=0;orthogonalLoop=1;jettySize=auto;html=1;exitX=1;exitY=0.75;exitDx=0;exitDy=0;entryX=0;entryY=0.5;entryDx=0;entryDy=0;" edge="1" parent="1" source="_rv3rTIkYbMwMZLJfRdI-1" target="_rv3rTIkYbMwMZLJfRdI-16">
          <mxGeometry relative="1" as="geometry" />
        </mxCell>
        <mxCell id="_rv3rTIkYbMwMZLJfRdI-1" value="" style="shape=image;verticalLabelPosition=bottom;labelBackgroundColor=default;verticalAlign=top;aspect=fixed;imageAspect=0;image=data:image/png,iVBORw0KGgoAAAANSUhEUgAAAiUAAAE9CAYAAADUABKAAAAAAXNSR0IArs4c6QAAAARnQU1BAACxjwv8YQUAAAAJcEhZcwAADsMAAA7DAcdvqGQAAFrXSURBVHhe7d0LfBTV2T/wH7RiFFtAiwneECpBpEbwFTC0gGCDGgwiElq5iZLUV0MUJVArFy0EtRioGqh/TbAIBCwBRCJYidwtqYkvYFCQqAEEJSmlhBYkiHX/55nLZnZ2NtlNQjJJft/PZ2B3srM7O3PmzDPnPHO22bcf7/d4Ol0BIiIiovrU3AOP8ZCIiIio/jQ783GxZ9i8qcZTIiIiovrR3PifiIiIqF4xKCEiIiJXaN6sWTPjIREREVH9ac40VyIiInIDdt8QERGRKzAoISIiIldgTgkRERG5AnNKiIiIyBXYfUNERESuwKCEiIiIXIFBCREREbkCE12JiIjIFZjoSkRERK7QHGBYQkRERPWPOSVERETkCgxKiIiIyBWY6EpERESuwERXIiIicgV23xCRSyRi/stZWPPybCQbc4KV/JQsl4X5Y4wZjVYsUuc2le9KTVEdBiUVB9Oyx2KNeQHc+iSWVbNyonPNPHG4tVI01y8Dqbcas5q6MbO1/eU4vbQQy56Zjdnjx2JIZFtjASKi+sGcEqKm7Lzz0LLN5bi2awweeOx5ZDw2EjcZfyIiqmvMKaFGJgNJD43E4IcSMXWDMYsMXyFX2zbmNAUzFi7E8g8+waHT8vfzEB4ZiyeeSmRgQkT1gjklRE3WAXz4QS6WLHwGSY9PwZJPyvCtmtsi4hZMfKSKLlYionOg2Zl9X3qG/fEJ4+m5JDklIxF1AXCqKAv3/nGdMd+B5JQM64qW2pXdZKQbs73axyB5aAx6d7gcLc8z5p39BoeKNmP5X7Kw5agxzzDksQw8EHmh9rkT3m+DB2/vjS4RrdHSCMlOHfsEuW9l4LWCowjvEY8Hbr0FUZepvxvvfer4Z9j85ny8ov7uJLzHSDwYq5a59EK0MN7z29NlOFy4Gi8tzEWxPquRkJyNW3ClenQobySSFulzq9YW/eJG4u7orriilbGdvj+LUye+woe5GZiz6YD+Mru2vTFq6CDEdL4abVTZ0ahte6h4Ow5fGovotvb1MNfPv+xIMmRMhPH6LTGYeO8Q3GTdz5Zy0KhITkn05epBgOPJq606Vp7RjhXgKLa8NAFz9up/AbpiSGI8YtQxF36R2n/mcadoZX3fZry5Ktvv2HPc70Idr8eP7kfhrs1YkrMdpdpM3323tn8SHonpZikv36D0c/X6Jf7HuHXfzthrOx6lnP1D7ds3n8drhfrrfV2NQSNHILZbJK68yPhi5jLrFjqWh5jhT2JQVAdc8WPbtjij1vFgPtatysDag8ZMg7UeuvePezBobCKGR1WU61N7F+Lel3L1J6rcP/CrIYiJtNVx+4uAK7vhSrWM3/HnPVYuV+9ZsVKyf0oP7UHe+8uxpLGVbWp0zCqi4YhSFdfEsb4HqzjvQlzZNRYTfzcLD0YZ82xaXnk35j8Qq5+ILN+85SWqwh09BbMnvqD+PgTR7StOVKJlm04YNHoSkrsYMyxuUhW+9p4RlgpXaXFBa3TsNRaz2RSuqJPdI09jYmwPdGxj2U7NJZ/havQb/jRefygW4cZsr/ZDkJqShOHdLAGJUNtW9rUEJNVx0ZWzsGzyWPSz72etHKj9HKD8NH5HsXrJ31D8vTxui6hbemtzde1xU5dOuFL2n/W4U7Sy3m0Ikh+bgCHGPF2A/S7U8drmsq7o1/8WRBuzKrTET5/IwAvDe9vKy4Va91Lyw4GPqYuvlWPYdjxKOYvohiEJsx32bTckT3saD/6ia0VAIsxlHnhGrUc3Y2aFa7t0RcdLHLbF+aoeirwFDz46Cw841Bea8yMx+w+qnuplK9c/MN4saiRmT07CkK4OdVykHpD4aasu+rzHiu9Kyf65MrI3Bv2ihzGHyL0aWKKrOvBGqyspOeZOf4Utbz2PCdI3Pv0ZpG/6BMfPqvkXqKue4ROcK60LVCVy9ig+fT8bM56TPvUJmLqqAKWy3Hltce01bdFCXY0d+sDy96ztOKT9/XLcdOst2tuYwmOexER1BdoCZ1FalItXXp6i99Vb1keawh98oKuxRNMUNXISRnVprR6dxXG1ndL/OEHbThNeVlfWX3+j5p+HNlHDMTHOGmWok8XYIYj6sXp4tkztsyxMnS77RJZbiOW7DuCUdvIMXZsrrkbLM1+h0LEcXI5+Mb6n1ibl6EJ8UaI/bNOuu2+gqLVGbsfy5S9494WU9Wff0rddizY9MMha1nuNxN3Gfi/9ZLV3v2vLLF+NLUVf4fg3stHtVJDT/kKcKpGWq4pj/LVdR43upZ9jeIDepZZtVBk69plazlzHKRV1g9q3MXcnwhqXDHkkCTGXSYViP+5zUagtdCE69h+L39mDme9VWT64C2vfmm8so3/WjOW5+PSk+ruqh2JjnctRy/Y9cO0FZSj2fp4+6a3H3TBxWCyuvUg9tJX7xD++gCXvf4bjDuW+39BBxrFyFB/+NcNnmVf+uh2FX5fhpNOmJnKZekl0bRk50vn2RHPSum78hQ//OaLkYFVXdHkLJ2POX3fpXSNHVeW1/Bnct2wXjsvzS7o5V1pHt2POzAmYnLUaH2pNq0dRmPsC1u6XE6Py70/wyuxEJC20/P39+Xhlt97k2ebSrpZKuitG9dHXs/SDF9TBvxBrC40uCGN9Jm8+oFWi4Z1j0U//SxN0C4ZESeAGfLt/LSar7ZRbpG/P4sLVan88idWHtTMGru0xvOKEoSr0fhH6yaIw52m1z9ah0Gh5Li7MxZJX/oYvzujPQ3Xq82xMeHyyOvH4loOpH36l/b1FxHUYpD1qmg6dNI6Hi1pZWjHWYepv1bHxx/lYsqnAuy+krOf9VW27HfqM8HaWVoXOl6GN/H+6CGvnZXv3u7bMpmzM+eNk3Df1eazW51p8g09zpuDe36vg3nKMr35lFrZoAdN5uPKaGHng5/iu+Uia+rRazlzHA/qx+L5xbEZ0xSCzBaPtWNzSWbqq1DG8Qy3nc9wvxNQnF+LDf8vztvgfW6CaPnMs7nvuee2Ery8jDuDDTQsxef0nOKWetbi0k/Nxf6wAr8xJwgTv51mocq+3APqX+9KiAizPyschh3IfFSHBnyrb+9djxlubfZaRwGnqzCQkzquky5zIJawNqq43qNPV+oPDBXjWqW84T1UiRqXV8Wfx2iyrU8f3O/R5A6uPaaGMqgeO+vUDi8ISPQHQp5LuEoNrpfI48xm2LNylz7MpXXVA7yv/cVufq7MmpVcP/FSu4FCGwi3ZRu6A1VG89vcirRJH207eE8aon12tBTIoyUd6rsNOq4F/HV3tmOdT+lWZvh4/kBJEjtrfglFjn8QL017AshcWYoWa5EIio5fRyvVD/SSvMVtBLuiA3rHGsRuU4zi0zinH6CgO/dsImMyuDpuTp838FF+ly/d4u6WuuFGbBfTrhI5SA35/AHkZTsfwZrzyiRGoXtkNo7RHFm27YsjwSZg9bTZen1uxLdYMNS6qzjtPD8psTh1TQZpDPSOqW+5Pfaf/3/LKnhjeXn9M1BCpQ7Lu20ok0ctssnScVuhXGr564wrt5KaqrH/t1x/4qai0pB+11nzzLfxaPru21VtNzu+E4dZWHp9JTwht0q5srVfM35fh8AfaHH8bjuJf2oOWaHmZ/N8bHS/RTzqnjhuBHdWzqzF8/AtY8UQihvfqio6XtUXL889DCzUFtGUXPtWu6i/EtXGzsGbufMx/4kn8bmQ8BkWFEqTUhn/A2wD0Yz1Xpl9bo444WYYv9Ed+vIHq+RdaAoy26HfvLCx7+kk80L8brr1MTyytdFsEpfrlfm3hZ/qF0wWdMOqJLG1AvBcem4Dku2JwE4MUakAaUE5Ja29S2clT2/UHlTmvBa41Hp4TF9a0AmoizO105pQReFRGKnb5v2Jf/6vMuBuB6syVFxmtHcePertWbkqcgFEqENeu4k8fxaefbMby5fMxZ6GRU5Gntyj4OJqNOdL9cMxsMWmNK9t3RfQvhuDBhyRImY2Jfa15ROdSLkol10NpEaYHI23CtG+jLjrKsEV/VIkWaHGN/ig8LgnJfa/Wk+XPluGQ0UUi2+JZyZtxvKgKRvXLfWnOfKRv+ASlRteODIjXMbIHYm4fi+kSpExLwqC62tRENdCAum/K8K1Rt13U0npXQABnv8WnxsNz4r/G/6c/wWtOrT0+U2W3YTZyZhP++S1xsf6oEmfxrVapqmWM7dvi/KadJFzn2o7FTyP0h6UlZvAf4x2C/tuSzZjx+ARMnpeBJZu2Y8sH1pwKf6UFWZg6dSwGa/kXm5FXdEAFB2aQcjn6DXO+q632xSK8lf7o5El9hY+Xa20LKnBuHUTO17f49nP90fBunfTg7KQ69mcmIclIJpVtkWfmzVRLTcr9UWxZ8QwSJxiJ4O8XoPDgUZwyNnXLy3rj/v/1TfIlcqMGNKLrdhzWks7UFc7Fkf63j2q6ossl+lWe3Jt/Tn1+VE+qveBSdKmTSrWBOlSmb6fmrXGF/72furjLjf15Cqe+lv8rrmrbtLlOf0B1oC2GjPq5kWchdyd9os/G1WijJZifRfGODHyozQuRdqdKBp794xQkThqLxNe2o1RyPM67HNfWxZ2qbaWLRR6cxfES/XttOWrUERe11vPDHER1vFTPDznzjV6OJbgx+nFKi97C6lpNd1Ll3qzjalDutUTwrBcw9bkJuPeRCZjzgb6SLS4LkHhL5CINqKUEWPuZkfx2RTc84BDyh8fchahL5JGqPD/O1uadMx8U4AszM384xyIJyLudWiOqT7xDMNkNyTcayX1HP8NaY7Cuwn/oJ4wWl3XFKDY714GrMejBKRilDZwGHP94HdK9A6d9g7Nakuh5aHGB085oi0E/drpfLrDSgv3eroZzT63fr7rp+V1nDuDDHG2miko+05Nfm1+Nm4b4j0UiY38MN1uIDu3CEu1RRYtti/OdC+ZNl7audqL0lhIjgGjfDQ86buoW+rEStKPYcugf1exOIqp7DSooKV3+NxRqV9BtEZ3wAqbfdQs6ak+7aiMszo4zst6P7cLyc37322a8UqDf8itjkTyR+jSSb++BKLMiUZVKv9vH4nePzcayPzxpG1SqKdmM1YVf6dupwxDMfiLR2xXQMWoIJk5LQox26+9ZfFqwHOZNVVs278IhOWGc3wlDkidhVLSRGKm26/CRT2K+MTow1YQ6GfeK0e6mmT93Fh7spueMfPv1ZqS/vFl/iUbti2P6o443T8LEGOPWeHXcRd+ehBf+8Dwe7OqfWD7ksflY8cwsTJfE1hsrbqcPj7wFo8YPxLXa/itD6Wfa7FoRHvkkJqp6wTwO5bMefOxp3G+sX+mu1ViuPVKOLsTmfXr2a/iNE5AxPh4xWlJoW0T9YixSHxvuHYLg/3LN7Jrt+PQfelTSJjIeqcONOki2Zf+xmP5UBqb31W+Brw5pndLKvQqUYh57Eg/6lPunkTEt3thuVrFI/cNCvP7EJC2xNdr7a8/yPeIxvV+kXi/+++i57dImqgXNvv3ssOeeOZONp+dSLQ0zLyO6JhgDqDk5fQBrF07BK5Zbhn2Hd3b4XHMY7pLNGPz7DGOmhbk+kj/y+DOWcRXUFVjiFNx/o5EAGIjfcg1ZxTDzVfJuT31kzwe0gbScnMXxwuWY/PI6nzsOZLTcJ7TB6Rx8f1YFOurKXYXVxRtGYsIKY36ww8w7DY8fcD83cN5h5quiD3L27DyHW6ajJ+D1UT3Qxuky5vtvUPz1t+h4hdq/lmPIPO4Cs+/3wPvOFOhYNvdtZU7tX4c5s7Ns3U8yousEYwA1J+q7bZqPCcsttwy3HYkXpsWio+MiahseLsNFV7T1K0dV1kOGSsv92W9w6gcXakm2FeW4om4N6GwZPsx5GjNq+fZ6otrW8H4luDADSXNkAK6vvElcGhlt8hNV6TzrG5CcW0exNmMCkl5bjbyDZb7rIyfNk0dRLCNgZi9tPCe4ajmK1S89jTnrClB8/Bt8q3UFKPL7IscPYMvyp3GfLSARHy6ajOdyCnDIOhSl/GbKwe14ZfZy43bTb3DSGGaGquGsXk4//SQXrzw3FolOAYnIewGTF8qdNMZ9tULbFwVYvvBJTDjk30GwelWW/gvE1n0uZL8f+yzgfq8JaQmxH4vfnvwKH25QgYVfQCJ2IX3m03hFWiis5UzWsWQXVr+mvps1IBFHszBB1UEyGrFPWZYRaNV3Svz7P4yZ1SPlfvLy7X7lXqvfZr7pMGjgOryWbYyQe9paCSlqudLP1fEyJ4kBCTUIzc58dtgzrE5aSohqk3l1qK4AF6oKN9AYKERE1GA0qJwSIq/orvoPk51RV/kMSIiIGgUGJeRaQx6Zj2VPSeKiZVRKSWq+axIy7u2mjbB5fN/misRFIiJq0Jp9+/lXnnvSJhlPidyjqkTJb48W4M/pL2Atu8qJiBqFhpfoSk1G8edFKD72jXdcCJMkLsqvuE6ezoCEiKgxaXbm8688w9hSQkRERPWMOSVERETkCs0bzI8EExERUaPGlhIiIiJyBSa6EhERkSuwpYSIiIhcgUEJERERuULzZsx0JSIiIhdgSwkRERG5AhNdiYiIyBXYUkJERESuwKCEiIiIXIEjuhIREZErsKWEiIiIXIGJrkREROQKbCkhIiIiV2j27YEjnvPaRxhPiYiIiOpHc4AdOERERFT/2H1DRERErsBEVyIiInIFtpQQERGRK/BXgomIiMgV2FJCRERErsCcEiIiInIFtpQQERGRKzAoISIiIldgoisRERG5AltKiIiIyBWY6EpERESuwJYSIiIicgXmlBAREZErsKWEiIiIXIFBCREREblCc4+Hqa5ERERU/9hSQkRERK7ARFciIiJyBbaUEBERkStw8DQiIiJyBbaUEBERkSswKCEiIiJXYKIrERERuQJbSoiIiMgVmOhKRERErsCWEiIiInIF5pQQERGRK7ClhIiIiFyBQQkRERG5AhNdiYiIyBWaAwxLiIiIqP4x0ZWIiIhcgTklRERE5ArMKSEiIiJXYEsJERERuQKDkgZg37596NatGyT/RyZ5LPOIyNlnn32GoUOHaseL/C/P65Pb1ofIrZjoSkSNyvHjxzFlyhS8+eab2nP5X57L/PrgtvUhcrM6aSmxX+nL9OSTT+K///2v8Yrqe+WVV3zeNz4+HidOnDD+Wj0HDx7Ez3/+c5/3TU1NhcfDDBwiqzNnzuDRRx/1OVbk2JFj6FzYsGEDfvzjH3s/Sx7LPKvi4mK8//77xjPdX//613prXXTb+jRkp0+fxv/+7//6lLeZM2caf6XGoE4SXS+77DJERUUZz3Q7d+6s8ZXCf/7zH/ztb38znuk++uijGleIRUVF2L59u/FM16tXL+0AIKIK559/Pvr162c808mx83//93/Gs9ojFzESgMhxb5Lj8rrrrjOeEVFDVyctJT/60Y+0qyer2ggevv76axQWFhrPdNJXu3v3buNZ6KQ15IMPPjCe6Xr37o3IyEjjGRFZ/c///I92jFht2bJFa0WpTYcPH9be1+qOO+5ARESE8UzXsWNH/OIXvzCe6W6//XZ07tzZeFa33LY+DVmLFi1w8cUXG8+oMVJBSd1c/d90001o166d8Qw4cuQIPvzwQ+NZ9UjzpwQ3dnKV9u233xrPQnPy5EmtpcTq+uuvx6WXXmo8IyKrK664wq+1RAJ7uWioTXJcW1swpT6Rk729BbNNmzaYNWsW7r77bu2C6N5778Xzzz+vza8PtbE+0qq8Zs0aPPDAA006SfYHP/gBLrjgAuOZ7qKLLjIeUWNQZ3fftG/fHjfccIPxTCdBRXWDB2nK/fvf/2488yVdQ//85z+NZ6Fxan3p3r2734FARDo5Udx6663aCdckQYm9C7QmpNXF3kryy1/+El26dDGe+erUqRNWrVqFf//731i6dKlW/9Sn6q6P1EejRo3SXn/XXXdhx44d+P77742/kuAFY+NSZ4OnyVWBnNytahI8yJWDLO9Erqj2799vPAuNvfVFrsaklYeIApO8DsnvsNq2bZuWmFgbDhw44BeUSOuMNRBqjCR/5uOPP/bJoyFqzOqspUSupvr3728809UkeJB8FGvwYA145ADOz883ngXPqfVFWnfq+yqLyO0kr8PehbN161btzpPaIF291uNdjkt7ngYRNXx1FpQISRa1JsRVN3gQUuFJXopJ+mut9uzZg2+++cZ4FhzJJ7H310qwU1990UQNheR1DBw40CdvbO/evQG7WENx6tQpvPfee8YznQRAV199tfGMiBqL5nV5l6v0/UnSqJV0wYTaNCmvt3bdSPb/tddeq/XbmiQoOXr0qPEsOPbWF3HzzTdrrTxEVDm5m8R+l52MzyFBRU1I1439jjjJYZHbkYmocanTlhJJFrXnlUhSaahZ+vZk1A4dOmiDs1m7WSTJzn4XTVXkVmJrS4k0EfO2PaLgtGrVSks+tZJxhL744gvjWfVIYCOtLqZbbrmFeV5EjVSdBiUiOjrap0VDWiZCHdnQnowqwcNVV13l1wojV1fBjsIqdwHZB3ySAd9k4LdgSVLf5s2btREu5XuaIw5ecskl2rgEs2fP1irX+s6el8+XViEZDVduT7zxxhu96yojZPbt2xdJSUlYu3atdrdAdfzjH//QbmGU95H3s47CKa1a0t32wgsvnPPt8dVXX+Hll19GXFycth/k86XZ/1e/+hXeeOONKq/iv/vuO+3Eat+n8h1k28l7VHcb2UlZPXTokLa+cqeFrKf5ebKP7r///hrtk7ogeR7WO2IkyM/LyzOehU5GZ7Z33fTp0wfh4eHGs3PD3BfmMSL729wXUo4GDBiAyZMnu35/VMUNx6kcgwsWLNDGnDE/X8r7u+++a7yCmpQzJcfU8Vd3ysrKPMOGDZNIwTv97ne/86jK33hF5eR18nrr8uvXr9f+tmTJEp/58jnyecFQB6dHXeX5LP///t//M/5aufLycs/SpUs9KijyWT7QdOedd3p27txpLF21Tz/91KMCL+/y8ljmheq///2vJzc316MqdZ/1qWy6+OKLg94OYv/+/R518vT86Ec/cnw/p+m2227zbNy4UVu/UKgraL/3+ec//6n9TZ0oPE8++WSV69GjRw+PCjo8qsLVljPJc5kfzLbq3LmzJzs7O+T1twplu8k+mTt3ruebb74xlnaPkydPesaOHeuzvqEch3bqwsLTrl0773vJ9pH9XpUZM2b4rIM8D4bsd3Vx4lEnY5/lK5tknVTgZbyDs2DWR/bngw8+6PO6UCZr+a9KXR6nlX132dY///nPff5uTlKfO7G/X6DXUcNU5y0lEglLy4aV5IcEO+S8/VZg62ir0lJib4UJdtTYL7/8Ep988onxLPhbgSVv5eGHH8aIESOCHkn27bffxpAhQ7RxC9Q+MOaeWyUlJUhMTERMTIx2q2aw/vWvf2lXU1WRcSTmz5+v5ff8+c9/1vJ+giVXRNIy8NRTT9U4/0CUlpZi3LhxeOaZZ6pcj4KCAm3fSeK0Sa4Ily1bprWuBLOtpOVOBrWSVpNQ96e8Xn6gTVrSgt1usk8ef/xxqBNYyHlT51rLli0du3A+//xz41nwZNtI1401oV3e+1wNKy+tYlKGpXvI/PG8YMg+kzv3GgI3HadyzMmxJ+UjFByXpHGr86BEmubs4xmEEjzICcBaiK2jrUpOiTXgCWXIebnl0Fr5yftUdSuwnPzkRP/aa68ZcypIguykSZPw3HPPQV05+uWmyPeVZf/yl7+c88BEtpm6WnVcT/mOgwcPhrr68K6rPe+nKlJB/fa3v8X48eO1E6aVuhLTmtvNbSH/y3OZbyWVo/zooTSJ16TCk2Xlu2RnZ2vP5fvdd9992mdL8Oj03WRfyPpLE7XsCwku5Ee/zO8iw1rLDz3KqJyVrb/8yGQoA4bJZ0nwI+tn78KU9R4+fLj2mfKLsvbBycTixYu1Zncph24iFwrWY1yOKxljJNRyfuzYMeTm5hrPdLLtz8XdcBJUvPTSS9o+tJ+o5ViWsiNlSPZFbGxslXWDG7npOJUyO3fuXL9yHwz7CK5XXnml8YgahbruvhFfffWVR12NaE1v5hRsF4E0WwdaTppeZ86c6fP3xx57zKOuDoxXOHNqNq2qS0maqVVF5bOMOoA9KSkpHnWSM15V4ezZs1o3k3QXWJdRlbenqKjIeJWzmnTfyOucmkelC0ldqWjrZSfbUZp3f//732tdBdbmVjtZXlVifu8v33P58uUBuxhOnDjhUUGS1vVhX1bez2m97OzdN9L99sQTT2iP1UnDo07afp9vNs/L97cuK5N09xQWFmr7RJ7L/pR5qgI3lq7w9ddf++1/maTrQspGMDZv3qytp3V52W5vv/221iVoJ5+pTip+Te6zZ88OuvuzLsjxJseddR2lO8RpO1bmvffe8/muXbp08Xz88cfGXytnb+KvrAyLgoICv30xZswYzxdffKGVGTvpwpC/yfvKclV1KQWzPrLdpBtYyr85qZO/T/eVPJZ51teY08svv+xRQYPxbr7q8zh1+u6ZmZne57Kd5bgz30vWRbqZ33nnHe25nb2bPpjuPGo46iUocaq0JCgIdGCYJE9g9OjR3mXkAP3www+Nv+rkxG99Xwl+JAiqjFOQ9NZbbxl/9ScnADkRWF8vlaecBKvqb5UAZODAgT7LyomvsoO7ukFJoMBJXRE6nvScSMW7cOFC45kvqayzsrL8TpKJiYkedZVrvKpyhw8f9sTHx/ssL+/37rvvGq8IzB6UmJOcJDZs2OB4MjGVlJR47rrrLp/l5KTXv39/7bGsg1Scle0Xp+3rVCadSDkwgx9zkvWR7VEZWZ/09HSfbS7r/dFHHxmvcAf7cSjbRfJDgiXH2LRp03zeI5SAL5ggwORUH8l+DfazJB9NylNlQlkfq5pckJjq+zi1f/eHHnpIC1KDOcacMChp3OolKBH2gtW7d2/PgQMHjL86sx+gTgl08h7yXuZrpOBXVWjl79YDtqoDX04AciIwXy9TsFcNQk6Y1qufqq4Aq1sx2bdxdSuBQKQ1xd4KE0plbjpy5Ihn0KBBPu8jFWBVV9aBgpJXX3210oDEZE+itE4TJ04MKnCT/WYvC1W1+sn2l0DUuowEKHv27DFeUTnZvnJCsS4vJ3A3tZZIq449cVxaMYPZL8Jp+VASGkMJAuxJ7sHUGaGqz6Ckvo9T+3c3p1DqTCsGJY1bneeUmOxJqcGMKyL9j/ZbgSVx1so+QJv0gVY1aqz83dqPXNmtwNL3vGLFCp9xE8aMGQMV/eOHP/yhMadyMsCU5CiY5L3UgWU8qx3Sj79w4ULjme43v/mN9uNewa5nZVTZwVtvveWT3yN5BNJfLcmOoZAhyh955BGf/uu//vWv2o+PhUryYyQZT3KXqqKCCb+kTCHlSvJ9ghmcS36WXm6ltJJyWtkPTcrfrYmU8r1VxR3wx+XsZPsmJCT4jJ4qCbluyi2R41BuobaSsiJ5IsGQ33ux3gosZUtyVc4Fya+wJgzLPv3JT35iPGvY3Hqcyk+O1FZdRI1LvQUlMuCZJJBZVTauiAQD9iGr5eCyn3xkgLYePXoYz3SVjRor86138whJhrQeeFZyl8769euNZ/oJRYISe3BUGTnZSeKilaxDbf14mZCxIayVeign2mCUlZX5/UCaJGbK2AbVIYHaPffcYzzT98uGDRtCvqtBhh9v27at8axysu+cEl8lsLnmmmuMZ5WT8mZPYpYfmTxz5ozxzJeUb7mLwRrUyveW7x8K+UzrMjX5HalzQUZBvu2223yOIzkxWi8qApGA7p133jGe6SQgufzyy41n59Y333wTcP81NG49Tu+8886QxoCipqPeghKnE4JUWIEGIpLbUuX2TZNUUuatwHYSlFhbYWRESbkaciJXlzIkvUnWq2fPnsYzf3I3jwRPJjlI5YQfKll3a4uOrOPJkyeNZzUjwY01cBKhnGiDIT+0Zg0S5SpfTkLBtFA4cbqVVEbtDWVgKtl3ToFqZX76058ajyrIXQeh/LSAvXKVshqopUS+j30wMfneoV61ShDctWtX45l+cpAy5CZy6651n8o6ygmyqhOYDHhnvYtJ9uugQYPQokULY07tkve33tEjd+1VdoHUkLjxOJUWPrl4qO46UOPWvD4POzn5S4VgkqAk0K3BcnBZgwHrrcB27dv73hpcWdeQXF1aR3KV+/elFceJVFL2pkoJrKpzi6KMCmkdlVKajwMFTqGSk6L1VmjZxlIR1eZv+MiYLtZbqGVMFxlVtybsXXrSKhVKl0R1mt1lP1hJuQn1e1xxxRXGo6rJNrPeBinf1xqcBksqdPm+VsHeVl9XWrdu7fdLvhKQSfmsjLQaWo91CTTP1dgkQo5fe2uX3IotXRMNPTBx43EqwXRN14Ear3prKRFy8pcgwFTZuCL2vA8JBqTp3InTAG1OVz7y3Fr5CXnfQCc2aYGQqzgrOcCqc7Jv3ry5z3ISkEmzf22QSsi6HSsLtKpDtpv9J+mlkrIGmNUhV1ASUJrkOwSbgyCk20bGFKmJ2niPytgDRgksqtstYS93UjZrswuwpiRwkqtq6wlMuhQlXyQQp1Y+GX5c8hnOFalHhg4d6lN+JcCTnyKQ8TjkBwEbYnDi1uNUWiftY40Qmeo1KJGWAnsynLRa2Ju+JRix5n3IQVHZaKtSGcrVlZVT15A8t/dxywk8UDOxVJjyexhWkqwlnxfqJIGP5BacC1KhWgM46baRq9baUl5ero0Qa2W/aq+OsLAwn+RNcfjwYeNR1eQkLcFeTdTGe1TGXn6kDEhZcCojVU1S9txOTkD2fJlNmzYF7MKRk6h1dF0pD9LaIt/3XJLfspGB0azkGEpLS9MS32VQQcmJ+e6774y/up9bj9MLL7ywWhdyJmsLuQRYNXkvcp96DUqkMNmTXSX4sLcY2H8VWFpBrJG6E8nZsGbrO3UNyXNrUFJVU7okvzWEBDh7xSnbuTYrdbkCs59UaiOLXt5DKiyrhnQSCEZt5Q01FJKDYO/CkbySQCcxyX+wJgFLS0uwdyXVhJQ9ubNk5syZfi0JEpwsWrRI+x7yQ3Hyg4mh5FDUF7cep9JdVpP8IOtnS5B1Lkb4pfpTr0GJkL5ca1eL010E9luBg8njsN8a7NQ1JM2yMt9UVbAjlVOwv9FTn6SP10q6BwJ1dVWHU4tRKHkVTVlV+RSNkZzMrce45HjZWyiFHF/2O0UkIbKm3Q3BkmNEWkvkl77l7hAnUoc8/PDDWj6cBCdu6i6z43FKDVG9ByVy54I0j5qkYrKOKyKRvv1WYGldqarJTioY+9091q4hp/eVirOyW3ul2dJ+l4Tc7//cc8/VyhQocTdU9qsW+a612Scu3Rv2Ky77FRk5s/elS9eGXJ07lYdQJzmBu7Ep++qrr9bWzUpuI7W3OkoyuvU2dmkhsbeknmvSoiitITKOjKxLoOBELpQkOBk5cqTrEoxNPE6pQSqvpxFdrWQETLUq3kmGkv/3v/+t/c0+BLwKHIIe0VCG+25nGbHTOuT80aNHPbfffrv3bzLJ0NiVkZ8Fl5/vDmWZ2hDqqI72EQ+DGcI/FPJe9t8KCmW0zUBkn1t/RkCmyravfURX2TfB/nS7qa7fw75vrGW9MVu5cqXP9+7Vq5enuLjY+KvO/rtWjzzySNA/h2BX3RFU7WQEWhkRVZZvb/ttHHOSnwdw4zDzbjlOa2tfmKzHWyjbgxqGem8pEZK0ak2ckvwRySMR9lt2Kxtt1U66YlShNZ75dg3Z80kqG/fE5HTl4cbmePs6SmZ8ZSOMhkquxu19yrWxHSQxz3r7ojTb11XTfV1xKj+1uW/cSlo81EWB8Uy/G86avC7dojIqrZW0rtTWYH/VJS0n0tIzbdo07fZa+aVt++3DMmLq888/77p8Mx6n1BC5IiixBw8SLJhjOTjdChzsASB5J9YuHGvXkIqufQ4syT+pqvtEuoTsOSeSk6KCO+OZO8g6WreRrKM9C78mJEnN/nPhsr9q2r8u+8PaFC77xJ7l39DZ940E39YhzhsrudNOBqWzklt/zTIjZdTanSoBTF133VRFum7vv/9+rF69GgMHDjTm6tatW4fPP//ceOYOjfU4lS5PqXNl2rVrl1+QSA2bK4ISe/AgpIKSIZKtV1NSmVc22qqdXCk43d0jLQfW1hcho8BWlQwqOSX2UVHl6sltmfhSQViTfCXIk/WsTT/72c+MRzqpHGoa+EgSoTXxWG4nPZdjhtQH+76R71zVbz41BnIs2pNW5RiXpGw5uUiAYr1IkADGOrigm8gQ7dIyYr0rSO4Yqmz8lfrC45QaGlcEJVJhyQ80WUmhl6jeeitwdQYBs9/dI0Nxy1gI1jtx5FZg++/lBGIfhVbGLjBbddxCBpqyj+OSk5ODU6dOGc9qTgaNszfHS2JgdVuNZN2sSY6iLu+8qCv2u8KEU9JnYyTHoXXMEgmWP/zwQ+0kab3rRvZ5bY9AXNvk4sQ+/oobb1/ncUoNjSuCEmEfV0SataU1w5r3Ia0poQ4jbr+7R4IR6cKxNj9KZWnvlglE7ou3DswmV3fSz+ymWwOlH16al60VxcqVK/0qk5pwao5//fXXq30nglSW1sHkZBvLgFaNjbTG2QPg7Oxsv5GFGyMZ0j8mJsZ4ppNjXFoZrN9fxiY5l8PK1wbJNXFz0GTicUoNjWuCEvsVpETk1oBESMQf6qA7cmK255VIF461+VGCkmB/5VdaIey3CS5dulS7hbA6Vx+S25Kbm2s8qz0S4N1+++3GM/17P/vssz4DU9WEVMjDhg3zacKWViNp1g61RUZ+N+Oll17yab6/6667Gu3vY8gvRFuvsuV7z507N6TfDzFJC8tf/vKXSsfPOXHiBOLj47UTqUxywq/t7rxgyGfLmCXW/AP5Mcz333/fJ29MTqJ1OSCWbPdQ83qkVUR+TdjqXLQWyHFmTY6WOjGUcsLjlBoa1wQl9itIOfheffVV45keOFQ3ocne5bJgwQLjkU6ifakwgyGvk4Pc2t0kFWpycjKWLVuG77//3phbOTmZLFmyRAsczsUdPFKpJyUl+bQAyVWOJOrJry0HE0DJa+QHCKUlyIk0Dcv7Wf3pT3/CY489FvSPC8rvtci2kzsYTLJtx4wZ0yCuRKtD9sl9991nPNPJ95ftYP9tpcrI4H+y/f/85z9XWu7kJGLtYqyNH2WrLjmGrQGZdM9KUG+SrlQJ2uqSJKjKrxBLS2Kwx68cQ9aWx5rUT5WR1iX77/7I54Yy3khjO07lgnL48OHahaT8ZpHkyVDj4ZqgREhQYv3xLqtQbgW2s//wn1UwtwLbyQipjz76qE+gIwe3DKQkB78kvAWq3OSKViphuRocPXp0tZtRgyGV/0MPPWQ800lgIoGQDNgV6IfGZN3lO8iw29I6FehEKZWRDCAlk1VGRob2GdItEahbS5KD5WQqJyB5nUlO2E899VS1f6SuITADW2m9sJLtINtDtkug5Gm5QpcuSDlByDEhgXBVJJHWmkMl5eJcXNUHo1WrVj4tePaASdZNEifrmgQZ0rUkvyckLTeBbtOWiwlpFZUyb20xGDx4sF8SfG2QE6+1+1nIkPfyC8bWOkbWa82aNY4tZo3pOJUWrd/+9rfausjFoOwLGcBS6jJqJNwweJqprKzMoyprOUv6TTKwUnWpA9ajrgoc37e6A4udPXvWM3v2bI+q3B3fV101eX796197Zs2a5Xnuuec8Y8eO9dx8882Or61qQKOaDqD09NNP+3yederevbu2brKOMqiRqlz9BomqarAjGThKBpCyLmNOsn1UAOaZNGmS9hnyvzx32m7yuevWrdMGrApGXQ98Fkh130P2oToJ+yxrTvbtNmXKFE9sbKzjAF6VfZ5sSxWAel+rgn7PRx99ZPy1fqiA19OlSxef72BOtTG4lwhlwC77/pMplO1/LgdPE++9957j8SL1iayfrJsMRldVuauv47Qm393OaV/J9NZbbxmvoIbOVUGJvQI1JzkwpDDWhH0kTXOS0WSrSwKThQsXei6++GLH9w5muvPOOz3qKtZ4R2c1CUqEjIo5b968aq9nMJXIsWPHPOpKzHH5YKYePXp4/va3vwVd0Yn6DCisavIe6grPc/fdd/ssH8ok+/SFF14IOPKpffRNN4wg6zTSqExyYrWP8lpdoZwIA53ogplk38k+rEpNTsyyvcaPH++zvNMUTLmrj+O0Jt/dLtC+euONN4xXUEPnqu4badaOjo72a1quzq3AdpJEa+8akoQ7+62zoZAENOlT3bhxI+69915jbnCkq2rFihXaZB9LoLbJ3TjSdBvqesrYA9JUas9/cCKvTU9P15J21RWWMbdq6qpLS/KUn7OXrrRgc3saC/n+ixcvhgoaQ8pJkGNEmq3l7hXpSgw08qkkJ0oyqUmSvu3HV12T/DH74GNC9n99dNtJEuiTTz4Z0lgbsq/UBQmysrK0fXguyfb6/e9/79f9Uh0N/TiVOly6yqyky0/yAqlxaCYtJeeHc+CbmlIBnvZz7G+//bY2EJTc5WL2lctJoFu3blpfudx9IJMcXDJsfV0z11NGoJRfQ5V1NAeoM9dTArjY2Fit0gr2riQrdRWlva/cOijjT1i3hVSKkhQog9rJiUkqk6oGrWsqpF9fcn6kn1z2iSTwmXelyElQchYkiJaTgmy/YPaNnHzMAECCcBmvJlB+VVMn+RMyoJscF/K/JNubiaByUpaEUdnut912m3ac1OTn96tDjispH2+88YY2JL953EqgKUmnCQkJ2sBuwQYMDfU4lURXuViS4+Tuu+/G9OnTtf1BjUOz0yooCWNQQtQo/fGPf8Tjjz+uPZbk2szMTC3ZlIjIjVzVfUNEtUfG0bB23UgLCwMSInIzBiVEjZTcPmkGJdJ1I33vRERuxqCEqJGS3CFzfBLJDQg0BhARkVswKCFqpGQAPDNRVpKrW7durT0mInKr5k3tFkyipqC8vNz7C9tyV5XcPcFjnYjcrll56b88519adz9+RUREROSE3TdERETkCgxKiIiIyBUYlBAREZErNNd+zoiIiIionrGlhIiIiFyBQQkRERG5AoMSIiIicgUGJUREROQKDEqIiIjIFRiUEBERkSswKCEiIiJXYFBCRERErsCghIiIiFyBQQkRERG5AoMSIiIicgUGJUREROQKDEqIiIjIFRiUEBERkSs09xgPiIiIiOoTW0qIiIjIFRiUEBERkSswKCEiIiJXYFBCRERErsCghIiIiFyBQQkRERG5AoMSIiIicgUGJUREROQKDEqIiIjIFRiUEBERkSswKCEiIiJXUEEJf/2GiIiI6h9bSoiIiMgVGJQQERGRKzAoISIiIldgUEJERESuwKCEiIiIXIFBCREREbkCgxIiIiJyBQYlRERE5ArN0ayZ8ZCIiIio/ri+paRk2T0qbmqGe5aVGHOoXvx9lrYfms3MM2YQmfIwS8pGs1nq0bnHOoGo8arDoKQES4dLxeU/tbv+Vtzz8Hys+7zMeC3VmsNLcY+2nevmhEHBy5upl/9Zfzdm+DFP9vdg6WFjFhFRI+aKlpKSjzdi1cvjMahTF9z6bB7KjflERETUdNRLUDJ06RF4PB7vdPp4MTbMHooOKMHGJ4diXDabZWvNFSOwUtvOUxBtzKKGIhpTtH23EiOuMGYRETVirmgpCWvdAQMmrcSGV2PVsxIsfSYLO/U/ERERURPhqkTXDjEjMVQe7NqOvUH3oZdh75uzkDDgOrQzclQ6Rt+D8ekbUfKd8RKrf+7E0vQUJAy8Fde101+vL3MrEmYuRV6gRprvSpC3zPdzmnXqjVsfSMGCN3c6f1bZXqyamYBbr29nfE5H9B4+HvM3VaMlyMwNGb5UhW0qdNs0H+OH90ZH7X3b4brB6n3fd8jJsS3nrwz737G+l5rU97rn4TlYumkvypy+l4P9y0bq2yV6Kjb+05hZpXKU5C7A1Ifvwa3RHY1tpKZ21+FW2U7v7Fdr588nF0Ptl43p43GPubxadtDkpdhbg/Skss/XYb5ap96djPXRtsd8bAyw23zWx77P1bIJM1dh70n9tTo9V6T3dP3Z1Gjjc8zJu6+qTiAt+ftSzHqgoixLfpb2eU7f31YWyj5e5bNsx+gEzKlO2bRxet9Zb+6ttFvWtzxX8T2qEMr+259xq/aaexbvN+ZYfL4Ag2T52AXw/+tOzNK+Xwo22r+YmRSupsD5QkTk6HTpvzx144gnKx4e9ZGeoUuPGPNsDmV5VFCiXjPUk3VIn3Vk6dDAy/xnuye1f4T2d8fp5lTP9v8YrzXlpTq/1pwiYj3zdp42Xmyo6nPUlJpnvNZwWn3OgAjn18oUPWO7x/YplTO3TUySZ2J8B8f3BCI8I5YWGwsYzOXis9QesPnPHk/m/YHeS5+838vcbmq97YqXjvBEyN9unuLZcNSYGZSKMhFoik5e67fe22fof0uaPc8z9Br/ZbTJad8HoXj5OE8Hp/fTpmhP0hrb9lXM9RmaPDHwPvdZH1WenF5jTt59Zb5OLas9tzrt2f7MAH27O02qHKfZy7FZFu6e4kl7LNCyDmWoSuZ6DvUkBXzfQGW+2LOysjIYMcKTtd94qaGyOiHk/bczzdNd/vbQWs9xY5bJ/BxrfeS1v5LjylLH2OsFIqqcu4ISs4LARM8Go/YKXAEVe7JGS6AQ4RnwWJZnx5GK6u700R2erORobbmI323wrQjz0jyxD83zrNxZ7DluPWn954hnx6vGyfWOTPXuFfa8ZLzX6Hme7fst7/af457inSs9mZNGeNIKjHlCVVgj5OQUMcAzcekOzxHv55z2HN+Z5Um6Wb5jhGfKRv8qOiBvwKama4Z6UldZ3vf0Ec+GZ2KNk4GtAg0YlJz2bJhkBFo3J3ky845UbKfT+vea95A6sVURlBSvSfJEG++x1nbyqNoRz8rEEZ7UpRs8e44ct+wntZ32r/VMCbCdzCBApg7xqZ6svGLP6bP6304fMpeDJ/a10E6upwtS9e8iJy+1346bH/ufYsv2jfVkfmbMN1SsjyqLifM8G/ZXfJeK/Q1Pd9tJ2Vwu8IkrcFByZLlRVlXwkbrR8v0tZR8R6jiylnFrGVJlc9xLaz17jhprdPZ4RfmPUMGl7yavgiXIkjL/2nZPsbnx5H2XGmUE3dV3tb6xCqxm6OvaIT7NZ7v5bHPb8RioTqjW/ju9wTNR5kfYt7FvwOz3WesnavMHvOpQxhiUEFWbi4ISy0ny/pXeq5aAFdDGKVol031aoBaHPZ55MfJ56mRpvwQKSAU6d9uXqVjv4CoY9T1+J9+ju2fKNuc18+yd5xkg39Ph6iwg84QSM8+zxzgB+Tqurjj19fSpKAMFJWYA6HAl6sghKDm+zTgJVCsgCcK2Kdpndp+7w5ih87ZMBAo61LpqJ6DRK32/c6Uqtl+s04lG2THXOdA11ydpTYC96RBsi+oHJTs8ad1kfoRn4nqnMnbcs/Yh/VjyCczMstBNBR2Oq2qW9QhPqjXIrpK5noGPtR2zu2vrg0mWbfdZpidW5qmy6bzFT3vWJsv7dvek7TRmKc51QnX3n2wrWW6Ab7BydKVnnHpt9xmpetBiO352PKNfEDHoIKpdLsgpKUfZgTwseGQAbn1eOn2jkfbIULTW/xhAOba/MwslGICkMdEIM+b66oIb+8j/K7Hzc22Gj/LDO7Hqz3P0fIaBtxo5AB0x8k356xGUeXMAwtD6J/qjles2OuY4+CjfjnXPqu8Rk4Rxv3BeM1x7o1pz5c2dDn3VVWjdBm1+aDz20RoD7k7SHm3ctjNA/kiFnZv0ZOKIh8djxNX6vFCU/30WYvtMRd4147By2TzEVuM9vL4rw95NSzH/eT3X59aBRm5Bn1nan3eedM5GuLFLB+ORzRUd0Fv+Lw/h5vKy7dj4Z3mQhKR45/ftHj9ey3kqeXYdtju8dbu2AUpttwEY2U0eZCHvY21OzezaiKxd6v9uKRgZ41TGWiN2zHiowAzrlm30L2OdrsN1jqsagQ7Xy/+q9ASZS+SrHdoE2ATdY0ZCBWbA4jzs1eYA+9U+X6f+n5god945CcON0bLFd2LHZ1WU6Grvv9boon3GRmzcWfEZZXkbsUCt8ci4iYidpGZkb8R2b67UfuwtkNeORLS2X4mottRLULJqhJn4KdMFaNOhNxLS81SdOABT1q/DxCoP9L3YmSv/b0SCmczmMOmJhLYKtmwn5g/viAuuvBH3PJCCWS+vwsZcVSF9HKjSk5P9RK2C3znzVrSRxMXJc7DgzY3YeaDMP3nv051qrZTchIrEUb+pN6bKa9RHhnDarFLrdu209cTu/SqsqkwZjnym3990T7cu2v+hkIBk0N1GQJKbiaE1CEj2v5mCW69sg+sGjMR42a6yL3LzQg/WaurAXmyX/7t1QLtAEbEKdm7UHuxHSdDJvKKd92R/5EgNMnANZYf263enRXcJcDJXzMAst6TKALVORHRQlwlKyRHom0AFoju1IwVzBl7gcIzoU7sRq7TXlFcVJNVg/3W4vrcWMC0t2GMcj+XYsW2+eq+RGNBNBUZ9JNhfgHXbjH1Xvh875OIl/kZcF+C6g4iqxxV333S4eSiSZq/Ejt0bkBoTqEaxKke5XCmGbD8WjLgR47PVKU8FQONmZ2HtzmIcP35cTafh8RxBVrzxUouwmDTs3JiGET9Tp/zP87BAruiH3oobO7TBBe1uRcoyy50F6uq83m5nVhW/diLapbaPNiOQcpQZlXLAq/tA8lJxjwpItDsZfhIWoJUqOOW5Keg9dI72Xh3iJyJz1XbsOSL74jhOn/XAoz6rzpj7rVM7FUJUpRynQ4omI9Cuk/7oSIBWn1CUnzRCznZtqmhRFGpb1vwjay6iHa7THpitkBVlsFbUZP916w0ZjMDbiiOtnc8D3UcM0IKV1n1ioYUludv1ltKP85Cl/hsQE61fBBBRramXoGSobfC04ryVmDdpKLob3SRVU6dCrTYYiqxDFe8TaJpys7YQ8OFSTH1H/R8xAll5G5A5aQRi1ZVV69at1VT56TWi/0Rk7T6iDfS2Y+NKZE5LQqwEKSUbMUdVXt4B335orFp8Fo44rIvvVMsDmh3eD+26MiaiisqyokvqyNEQr9zfWYcdMZnImqHW/O/zMejeWcjzud01WCVYt3iOdhUfPUMFI8vTMO7uaHSJkH3RGmGOXVTnUFiY3r3wmbqS12ZUJgwXhBSNlWD/bv1Rh5+EGAQ6CLvIOO2qAK7qvacCZzdczauyuUN70AERRtlTm1yTmud0bPhOK++t4vRfo/3XBb0fUv+pY3nH5yomyduogo4I3NNHe0cVlaigRf7+8jpsVxt8/94dao9GYMD1AdupiKiaXDVOSfA6oPvd8v8q7Ngb/GVgyWdSmSijx1W7y0EGeuvefyjGzZiHtSpIKX5N66XG0uyN+ntf0x33yP/ZO7Cnjq9QS/br1b7WhK0/CqC1unLXK9yVu8we/iCpYGv7onEYMU1V0FpgMhVDH14A33E4grEfexfL/yqguzdQXlAdulqdmOR/tT32B7qC/3yP3jVnObEGZz/2b5P/B6BLB/9vejrE/I3WV6oyKA/y1Lpqc/yVqxNncAFqHVFBida9EtMF+iaIQIfuehncuLsWOutqtP9a48Y+el7Jzr1l2Pn+ApREjMcA82JG/b13zDj1/3xsLChTAaZsWeaTEJ0LDTQoMSsJYM70OUFfqXuvMP/pkAsiTpr93cHr0EXvpfZSV1UD7pcHczD1+Tr8HZ+TeZg3WyrLCEy5o3eVJ/nu/fXEw5I/zcPSA/q8oKirQ/36sDWip2Uha3QEShYnYMDDSwOeIJ2FIUyr1NXVfoD9J7kTdca73xZgwZtOn1uOvGULtJNaxO9i0TuEKGr/4jRMlYj1jhEYcI0+T0RcLSdCYO/+EL+nmTi7Kw1ZuU4lbD9WLZYOBiD23gHG/qpPJVi1aJ4WtFvXxyyDG6dPDa0MOqnh/ovooueVzM9Lw9o/lSDi/mg98DNIF47UOHNy07BRgmnmkxCdG64ap8RB4HFKdnjSjPEfIvpP9GTmFVeMS6CcPl7s2bEuy5N67zjPSnPcDvMWRHMcA/PWWhmjZFWqZSAu61gf2z2pP5OxNNZ6dsg4CpbbcU/v3+6Zp42VAk+09bbVnWnGeAkyhkqmZ7t1/IWzMgbHDs/apameEYkh3LLqvZ1zhCdt3R7L2Ccez/G9az2pcfp6RIy23V4Z6JZg9Wylse5yS2/WTss6hjBOiXVgORkcK+hbnNWn6bdOq3WOS/VsOGR+umyfDZ55iZZBuGyfWeWttAG/c+Uqxrno4Bn30naPd+ibIMcpiZ2U5buvTx/xbH/NHKMjWq2v9y8ac6wLGXRurff7WwW6JVjtPe84JQM8U1bt8ZbloMYpqWS7VH2bshNzPWM9E2XMGXPsE8VnfbpNsQ1oV3Hrsoy9Yy/Xp48f8ezJs5VDpepxSkLbfzr1HbwD3zmNIVRxy7FMjuOTmDhOCVG1NeCgRDm6wTOlipFW7YOJ7Xgp8EiWAx5L80zRximxBSWOr6+YIuLSPDt8KltVha2fUumIrtoUyknTPKFUMkX0Vycv23pUeiIKZaTaQEGJkPcxAsSQRqo9utaTFGhEVnWSmjc7SX9cR0GJqMmIroEndZJc7nQSqwisfSbveptlzz8oUafg6o/oes6CkkqmiBGezL0OJSOIUYVlsq5PZXVCdfafzhyvRCbf8WRM5udKXVHp9mFQQlRtDbT7xvCTAUjduBfF6+YhKX4AuqgaWtcB0THjMPGlLGzYu8DnF1a7J2/Q7qQZd7PRiBzRBQPuT0VW3k5smDsS1/klWEZj4qEdWPnaRIyLibY0havPiE9C2qo92LtmIrpfZMw2tI5JVZ9djLUvJWFo/y4V/frXRKvPm4h5Szdgz59GhN7ff/c8bNC+b8W6aHcvvaS+1/opiLatR6UuisYUtf32rErzeT9Zx6EPpaltcgQTvf3qlZD3WZaFEerL5E0finHLguyO+Eks5hXsQdakWO++07/LWhQXrERSn6rvo6htHeIzseOztZj30FBEm10t2vZQ2/3IdsyLqygBdlOWbkfWjHEYIAnQwihbK3fvQKbj2BndMfEd3++vlY8rgkmGDUP079Q+z8tC6v0VZT/iZwMwbsZK7Nm7FhO71XX/whSsddh2+vpkYdy1DutzUReMe60YR4zv4V1OHRld+quyMC0TK3cGWQ6V6u8/M69EUfvDqXsuos89+m9zMZ+E6JxpJi0lYZe2MZ6Sa8mPqV05Eqvkrp7l1Qhm6JyRH+STMXHUVXHFnV5ERBSy5tLGSERERFTfGnb3DRERETUaDEqIiIjIFRiUEBERkSs0+6b0X54LmOhKRERE9YwtJUREROQKDEqIiIjIFRiUEBERkSswKCEiIiJXYFBCRERErsCghIiIiFyBQQkRERG5AoMSIiIicgUGJUREROQKDEqIiIjIFRiUEBERkSswKCEiIiJXYFBCRERErsCghIiIiFyBQQkRERG5QvNmzZoZD4mIiIjqD1tKiIiIyBUYlBAREZErMCghIiIiV2BQQkRERK7AoISIiIhcgUEJERERuQKDEiIiInIFBiVERETkCs09xgMiIiKi+sSWEiIiInKFZt/847hnz5dfGE+JiIiI6oc3KOnUqZMxi4iIiKjusfuGiIiIXIFBCREREbkCgxIiIiJyBQYlRERE5AoMSoiIiMgVGJQQERGRKzAoISIiIldgUEJERESuwKCEiIiIXIFBCREREbkCgxIiIiJyBQYlRERE5AoMSoiIiMgVGJQQERGRKzAoISIiIldgUEJERESuwKCEiIiIXIFBCREREblCcw88xkMiIiKi+sOWEiIiInIFBiVERETkCgxKiIiIyBUYlBAREZErMCghIiIiV2BQQkRERK7AoISIiIhcgUEJERERuQKDEovSFaPRqlUrjF5RaswhIB9papu0apWmHvnKny3zWyGtwJhBjUDg/U1EdK41b9asmfGwcSktyEb646MRFx2pnTi1qXsM4u5LwcwlOSj8utx4ZRO0Ox19zG0SORNbm/CmqFRpPrJfTMHoO3si0txeraIQM2Q0UmYtQs7uUnDTNR7mRYn/FImed6p9/mI28nm9UgUGtVQzja+l5LuDyE6KQuQvEzB1wRps3WOpRYrzsXV1BtKSRqFPl3BEvVho/KFpKdy4HIUIR3i4elKahvV5PLXaHVyRjKjIGCRMz8CabftQUYoOIn/TGmTMTsaoX0QivHu62pbUuJVi3za1z6cnIKZPHNIKeLwQnSuNLCg5gfWT1YlkyUGg42CkrshH0dcncOKEPpV+WYT8tzMxbVhndUpWp5czTbFyycf6+eo0Gj4akyYO1Oak52xVW45MJ95JQcy4RSr8aI/BM9TVcVGptwydKP0SRQU5yJwSj85SiIrPsLWksRmSiSJzf2tTKb7cnYNpd6gdXroVM0dOxfpjxmuJqFY1rqCk+C1kLJBr2oFIX7kYyTEq+Gip/0mEtQpH5z7xSFmQj4K8TCRfEmb8peko3/YuXlWbKDzhNiTGDcdgmbkgB1tZyRoO4q0FGVrLyMCXcrD40YEq+LCUk7BWCI/si/jJmcgvyEdmUis0vVLU1ISh1VV9Vb2h6gytdTED6/MZxhOdC40rKDn2D6zXHvTCtR21BwG1ui4eqeOijGdOTmBfThqSvfkEUYhJSsdWS2+Q3Yni9ch4fDRiuht90d1jMPrxDMdlDr4ep71m9BsHjTkWxYsQL8sPk6t1u0KkRcr7T61GLkg58jcuVifcKCTf0RO4bCCGj5L5i7B+OytZXSn+kas/6nVde/1BIK06I/6ZRLU1ndjLTytE/XI0Ul7ZitLvjJdYnNidjYzpyYjzy19JRtqKfMdl8HU2Rsvr7svWu5fUVXzG4/HoqZUPNT2Yo883+JVPef/7UpC+Yiv2BQpKtfesWCYyOh5TV+xrmi1rLTvjhmj9YempAAefbXu1iuyJuKQ05OypZIt9V4qtr6Rg9C+jLMtMxaJt+Vg0St5nNLK/Nl4r7PvdQVVJ6KXbMpByXwyi5H3UFBkdh+TZOdgXYDX9y05Fns3WYmOhgjQ1PwYztSczEWO8tznxBgIKRuMKSn4IrVtGrnZLa3Llv285pt7ZAz1HzVQVg5lPcBD5S6Yirk8Csr/UZvg4uDoZfbpLK8wa5BcbM4vzsWZBCuIiY5Dyjm940f7GgdrJbE2+fwVfuiNXD65yc5FvrYzEl/vwkazQkBvQOdRL9PJ8rJ+rFr5+OPpdLzNaoe/tY7Q/LVqxPmAF17SojaoXIhwsqeap91Q+0vzKj3q/gjXImByHyNvTkH/KmGnY906CquAXYatf/soizBwXgz6jMlAYMAgtw0dLJAcmTpW/9dhnvkG5uUA59qm/+5VPef/VGZg6Lg49F9jTEkvwwSujjfesWKZ0z3qkj+uJYbPzm2C3lfrG/9Ufhbf0P/ikDrBvL5Tuw9YlMzEqugcSVjhcgBzbipm3RyJucgbWFBh/15ZJVwFtDJJz9Fm15yByJOfuzhRkrM5Xz3Sle7Zi0axR6NnDv35zrNtUKTXzbOJ+z7qDak/jCkq69MRo7YSyCBPV1cn6ouqdVNbMnorluE27Qv2y1OhXLt6G9F9Ln3I2pvx5q0+FXL4zDQn3SatGTyQu2FaxzNeFyHlqoDrH5SPj1ylY5D2glU43oJ/8/3Yh9mkzTOqqKWeN8XgN1mz3PdzLv/hIzQX6DuhpnjuDdmLTGqSr/6Pu7ee9um/VeyC0sGT1crxrXb8mS10BjtS37KKJCUjLVUGjUytFQAeR/fgozNym9lFSJrZZ8lFKVRnKfLCnuqJUJ6k03zKE8wcicfYSbNv9pQqojfIjyxTp5a70nRTMdDqpidUpiJ9xAP3UlW6hJYfqxOvxWhkp35SqrryN8jk/F0Vm+dRyJbZhyexEDDxff6sKGZg6+SPcMCUTubvN71CKohUp6l3Ulfis57G8qZWX4i1YrgUJ6oKicyttlqm8wKgDJJdNHdPeOuBYKQrfnoaB4aXIHmerA7SyIomzKsi5Y5p2N5e+nSX/rRDblqjljFfWjnLkz07AqCUH0X5Iqvo8VdaMz/PWVap+S3jc0kJ7QgWhk/Wyk7LEUh9K2SnKR86CVCS2NwK0Hilqfi6maU+mIdd8b2NaPCzUGouaosYVlIT1xaSsaVqlWfrOTMT3uApmE/jUFzOQnZuvriKrvr6LmpyDgrfTkRjTGa3MC6JLojDmqVlaDkZpVj6K9LnKCeRmztRufxv4UibShkVVLNOyPfo+no0Vz8garUfqYsuJKOwG9B2n/i/dgk+tFdUxuUNIrcOUaUhWT9fkbPW5CinauVz9G45+VXUt+DmBrW9nqP+jMLyvpcPhkr6Ik/VQ65ezPcBJr0kJQ9+UJZjWQz0sXY+Zw3riqkuk6yUOydPTkbFivZb4Wh4gUCnftghT3ihVZWgJsp+JR5QlHyVMlaH42fOQ1l+99dw12GqJmXs+mo20B+MQdVUrhP3QmKmEhatyN0Uvd+t3BOg2uT4Z2dtykP5gX7S35FDpCpExLV2VoXDEL1Dlc5QKZr2rJLkSUYh7MA3Zj0oZtRqM9N2FWDw5Hj2vMhcIQ3jMNMyaIieX9dha2ESuj8tP4OC2dIy+J1lrwez51DQM9+kePojlf5A6YDAy31qM5D7tK+qAH4ahfZ8ULJ6fqJ6sR8Y7FfdqaWVFHevoMQ1LFqSgr3c7qy3dqj2i4vqil/G8VhQvx/OzVE01JBM5ryerz7PkQ2l11WLMe1A9zs3Amt36bBSp8iO7echv8Js4S30oZSe8M/oOS0bajLiQL5CIAmlcQYkSpqL1nN3ZSDXusJEKQ5rA06enIGFYDHpGhiMyOgHp2wJXqFd3Vgef8djHZe1xg/yvFvUGFyc+wJYl8iARiUOcA4Wou3+jBzNz1QnNu2ArdO4pc7f6VO4n8rdgkQQOd4zHwEfVjNVbke/tijqIfTvktcPRU+t+CcGxrVgv69k/EYN9lm2FvnES/qgqc8WWiiukpqyluip8qxDZM4w7bJSDBVux6MWpSBkXj5gekQi/ricSXrTnh6gr0dw0VTz6IvHenhUVvo/OuKG3/L8GhX4tDeUo3Z2jPmcmUu6LQ9yQOD0/5PoErXUMx05UlDurn96AGwKdFXarq3s5wYSrk8qwUALZG3DtVcZDm/Yd9VPlmZBakBqQ1QmWvB41hV+FqDunYk1xewyevQ0rHo/y3bfFW9QFj/r/0UTEBdhmYV17aXVAYeFB4yLDLCsq/Pvf0ejpF0zWvoPbsrWgKnlsHJxLQhhu0OqkQnz0hVEnhZ2vt6quXoN3HbqtiWpbowtKRNhVA5G8IB9Fx0pRVJCLnCXpSJ2RjDF99ECldE82pt4ZiZi5hc6VfCi+3IcP5P/r2yPCMZJRzGBGnfJL/6U90LTv2lM74LPVFbC+HuX4KC/DyPlQFUS0XF1ZklDLD+IjaT6uRj5J6abl6p2AgcP6+VVIYdFqe8mDTZYrpKZOXTkOfDQT+UXShZKP3LeXIH1GKpJH9dUDldJ9yJ6u54dU5HoU4aON8v9WJHsTAv2nmFnyGlXpW07qJ3ZmYHR3FTD/YhSSp6chQwWjWzdtrcgPqaYThw/q46jcGaXCIaq+zkhesQ2LH4zyu2A5sa9Q7XHlxTiEO+xvbepiBJbePB+zrITjhp8Giihr0wns+0hbS6QPCXdeRzVFjtO7jr0B5/WDkRgjD9Yg+fpI9Px1Cma+ooKbgn0oteVFEdWGRhmUeP0wDOGRPdE3bgySH01F+tsqUCktQvbjelN1/u+fR449kTRU5Wf0Sv+nEUE0YZbjtDUKur6X3mf8htEdJImoLwJR8XrOh+R7aGHJpg/0Zvu9+ZDOm9DzSQ7i3Tf0ymZ9kpHhb53C47RcE7lCWr6RQ4HZhYV3Rs8+cRjzaDJS5+do3TdmboXkhzz/thk5lONMdYK64kVIuCVFXYmrU1SfMUhdkK3llnz5pZqkD39vpnaVXR3lp4x1i2jt3PpH/nzGKSlF7hTZ0/uQ/ocMvwRl4d3GITHLSi+0r4uYRH3eiWol/7fHGHWBl/noQPWoFPveyUDa5ATE/7InIi9rhaj70i0tuUQ117iDEidh4Rj4Wz1fQ6L/g19pD6rPbN78osRolq1MGC7waeHojF5GXskudUIqL9iigo5w3NXbyPlopYIW+fuC9fhARSUH932kPqMa+STFW5Bj3OZalcLsLXqQRZWQ3IpJmCbda8qaYrPTS+1c7QQzGJl7KxL8Ak0pkreiFK5O1ZrVw3+didy305E8bKCWW6IFjCG2iNmFtTTOeCVlzvkoVIUw9JyciUxJcpcE5cez/bs4f2hkCU/JddzPPpORfFxRVg6gpI5O6mFGWZr2nsN62SafpFS59X1GNgqNlufsBWlIHtVTa3E9uHoqYn5lbS0kqpmmF5QIdXS2Nh7W2FUqsJD/dxfhYKDKpfhTbNEetEf4xdoDQyvc0FvPKyncdwKFeYtRGv4b9DVOVvL3Xv3l3pgMbN1xAgf3SGtH6PkkZl/y4AVFjhWQPuVimtRDu9Oxnj+wF4QwhF1kPPRqj6g75f81+GhfsLW0uvrU7vFWe/bXgfr6q6/VFWqd5IHfXV4UvPaIn6snP5e+kYAE2+3Q4T+9Qd/G2z8NIScrHJ37y/+FOHi4muHif6X9I1jhaB+lX+xs2VPNzDGj5XngsESkzs9F4Zc5SJG6SAVr6/1aCE8b/xOFplEFJaWrZyJtW9U/klZesBXvao8SERWpPai+Vr3QzxiAbNHbTgd7OfJXLNb6nMMfH4ietivf8M56XklG/kt4N7MU4SP15ybzlt30TS9hyxvqQcj5JIVYkyGfPgbD+1uufvz0RN8E+XspXl1nu121Kfk6BzPnbkWVN2mdysdWbTAZVYquN7M1zCBS7a9Z8xyb+v2FodUl+qMTJ8/oD2zKS0tQZjwO2fX9MFxOHKWv4tVAtxRT1ST5+bVMxKtDJH/WKIy3bktzG29KDXzbtp9wRPXuqz3KeDvAzzx8V+58ar9YBRjyf85HOOhUTr8rVYGO8dgiqu9wrW7ZOmum41hLIWvVGdf+1HjspdYtTv5XF2lMjKVqaFwtJd8VYeadkYiKTsBU+SXgL0/43LpZfkIfAC1+pHkLbzIG1rijvRViEvTbkNc/EofkV/IrTminDmLr3NEYJbfhYSCmju4rjba+ru+FuyQWmJuGtNJwjB5gu2vjkr4YKEHPi/L3auSTmHdfjBqIvsbJL5CedyRrlVZp1hbLXUJNTTmKfh+HyKieSJguvwR8ECeswYXcHlqwCFN/NQozpUUpJh3Jd1QUolZx6ipSWrqkqf9XU7GoQC1v2ZZSBgtzs5E2LtnIZ2qFzjfqo1HIXTfZuytOT+WlhciZPRo9b5mqJ1JWSxSGp0iXgYyTkYCUFYWW9SnHiS/VZ7ySgvgX7YOnkZ+r4jHtmYptWfHDfHLbdqIxPw6jX5QB7Hx2upYsbd/O7e9MRqIczEsmIsEaCJ8qxb7cdIzuEYc0Y5aPsBvQS7sQSsfMP6yvWE59jr5cJBJeN+ZZXT8G08apD5SxSO4ajfRc32TV8hPqcwtytFGB043W0tIVyYh/PAM5ktjqW5CxL0cFunJLc7i6uPPeIh2OcO3xGrz6Z8u6EQWpcQUlLVtrVxByd026/BLw9Vch/JKKhM7wq8yh4vVb+zLvq53G8rDuKch8fYz67INYNDkGkeHGZ14WZYx22BOJb6RhjOPQ952NJn8xHP162MOWVujZ30xzDD2fRP9FYGDM7X3VO1XBe1XdhH85+Aet0Fr2k9xd86L8EnAUrrqsogxpt4f+Mlm7pbz9kDRsWyD73SoKyX/JQUofdYrapgKWX6rlzfJglME+wxLUFXWZtzWq/ahpSFOvR0EGEn4hY+sYr43sg1GZZRj8TEq1E11F+JB5WPJUX1V68pExro9lfcJx1fXqMyZnYL1zIw3ZtB+mtqWW+JqPmSPHe1scWt2Ripz5eh2wZroM9W+5w0WVmcgeMf7b+ZKBSJ4ty5RivQTC3nojEj2HTcWaS3rqydR+Ki6E8ufGVyynPkeW+6DzNEy7T3+lr1YYODMH6aNUiS1eg6nD9GRVcz3Dr1Kf+8tR2qjAFatZhvULUjBKEluv8v1OPUelqa2g6jZ1nAz0XvCEoW98qv+6qYnDzFMwmnuMB41B+B3pKCwtwrYl6UgZNxh9jVuAdfJjfIOROCMTuUWFjrf21UT7IenYtlOugAejpxl8dOyJwePSkFOUi7Q7AgUTZl6J8qh/944IV3/XXxFqPonxi8BIRFzfYL5tFPrF651HTfaXg8MHIn1nKYreX4L0yYkY3N+4BdgQfl1ftU9TkfleEQpfV1eITpv1kr6Y9nYBClekIXGIdfn2KsAco05EmerKcx7iLzNmq+2euHobcmaM8ZYd+ZwxMprqthyk3n2tPrPawtDz8RwU5C1BqrV8yvoMSUTqglwUPeJ8+iM7S+KrtDg8YP5kQBg6j1L1jzrWM6eMQd8eFce7XmZSkL5km9921uoN+XHQIXriqHq1qqfGYJrsk7/Owm3aPH9yIZRTsATTjIRTbbk7EpG2ohAFb6Sg7xXaTH8tO2OMqhOK3stUy/a1lAWjfpycjiXvF2G8kdcmAa38srqUm77XWWpTKZ+PpjvXbdcnY4V8pzsq6t/2PZwG9iPy1+zU0eOevQe/QKdOnYxZRERU//KRpv3AndzNtdgSxBI1Xk3z7hsiIiJyHQYlRERE5AoMSoiIiMgVGJQQERGRKzDRlYiIiFyBLSVERETkCgxKiIiIyBUYlBAREZErMCghIiIiV2BQQkRERK7AoISIiIhcgUEJERERuQKDEiIiInIFBiVERETkCgxKiIiIyBUYlBAREZErMCghIiIiV2BQQkRERK7AoISIiIhcgUEJERERuQKDEiIiInIFBiVERETkCgxKiIiIyBWao1kz4yERERFR/WFLCREREbkCgxIiIiJyBQYlRERE5AoMSoiIiMgVGJQQERGRKzQ79c8yz94DnxtPiYiIiOqHFpRceEkr4ykRERFR/WD3DREREbkCgxIiIiJyBQYlRERE5ALA/wdClRl35GLRcQAAAABJRU5ErkJggg==;" vertex="1" parent="1">
          <mxGeometry x="40" y="80" width="207.83" height="120" as="geometry" />
        </mxCell>
        <mxCell id="_rv3rTIkYbMwMZLJfRdI-3" value="" style="shape=image;verticalLabelPosition=bottom;labelBackgroundColor=default;verticalAlign=top;aspect=fixed;imageAspect=0;image=data:image/png,iVBORw0KGgoAAAANSUhEUgAAA3cAAAFmCAYAAADOJmMBAAAAAXNSR0IArs4c6QAAAARnQU1BAACxjwv8YQUAAAAJcEhZcwAADsMAAA7DAcdvqGQAAJK1SURBVHhe7f1vaBtXoj/+v/NjP+BAL7jQBRm6UIUU1qEFK70Lkbl9EIUsVCELkUkhNl1Ilb2QKC20cgqt3T5I5Sykci6kdhdaO4FdpECCFWixA83P6oMuUqCtFGixFhqsQgsStGBDAjK0MN9z5p9G0oz+WXacyfsFEyuSRjNz5vydmXPOLkUAERERERERPdL+f/pfIiIiIiIieoSxcUdEREREROQCbNwRERERERG5ABt3RERERERELsDGHRERERERkQuwcUdEREREROQCbNwRERERERG5ABt3RERERERELsDGHRERERERkQuwcUdEREREROQCbNwRERERERG5ABt3RERERERELsDGHRERERERkQuwcUdEREREROQCbNwRERERERG5ABt3RERERERELsDGHRERERERkQuwcUdEREREROQCbNwRERERERG5ABt3RERERERELsDGHRERERERkQs8Eo278rUR7Nq1CyPXyvo7Gqf3W/opiRGx3q6Xk+hwzW1URvJlsY+7RpD8SX+L2tPj89ttPOs6frpI9n0Zh3dh6o7+xsPUcbzIYkp+f9eUeEVERES08z2kxt06Uq9qlT65HLla1N8n6oBRWWflWzAaItt3MWBHNdw2ZfvDjoiIiGgrPJzG3S9pLF0Vfz0eeMSfpWtpsHlHRERERETUvYfSuCvfTmBe/A2+M4mwbN3dnkXqrvoRUfueHsWCokBRJuDX33p8+TGhhsUCRp/W36I2MeyIiIjIHR5C466IxX+lxN8Qxo5FcOSMbN3lkbidVz8lIiIiIiKizm1/4+5eGqlb4u/JMQSfBvxHx+ET/80n06KJ93CUv5jF2ZeHsUftdzOAfX85i9l/r+uf2lgvYunDsxjx71H7HO3atQfDL4t1vmg+TEP5ThJTrx7CvgGtr9LA84dw6v0UCk025ehBFlN+bX/HPilgQ39bWr+3hNkzIxh+VtuOekyBEZz9IIn0vc42tn43idm3TuFQYB8G1N+SizjeP5/C1LUsyr/pX1QZfSkHMPmFdY/qbKQxrv7OONLG137JI/nhOE79uRo+ctnjl2GURNYuaLsYOKWz47HxWxlp67kf2IcjZ2aR/UX/vCPrKNycwinLvuzxi/P0Ybr1fjRwHvyjpm+c3f6/lewwDmrbGn5P+9+kGg8ti9P56Gbb6wWk3hfn6/kB/ffbS2udcQ47q/XvUjXpd49fxJmbtWlPU/d7+jGY6XFgSsvrehHny2mR1o9U1/9rCv//D/arr5v3Zc5j2ifXOYL5e/pbhjtT5r48+v0piYiIHjPKNlv9OKDIzYZTa/o7OSU+BPGeR4ll9bfqlJIhdZ1QsqS/o3F6v6UfE0pIrIfDESV63Kv+RuPiUUaTq/oKFsUFJbzX7vva4n9tUWlcq6JkLgQUj8331cUTVOL5iv5dQ0lJHJefh5TEj/pbhvsZJXZAfib28eMV8etVq9fDitduG8ZyPCF+uX2Z8za/YVk8R2eUnGUHKukJ7TjPLdfsl9VaKqyt+7blO9lYw2/XLCKMZurDyDiP9cfk9L7Q6fFIRjwLnI4qIadz7xlVEkV9BV3T+CnP4UFP4+8Yy4GYkrmvf7ct4vfUdcV6+jsG45gjF2ec97+j7Rnbclgs4b6ZbVdEnAh4bL6vL/7zGcc4ZssxXjiFnfF+SIm84Zx+G/fDWG9CWfh8wuYY9O1sKs7PKItXbNK6PLbv55SgfD0UF7mrPTOdnlxQjJzYZNkvpzyZiIiIdqZtvnOXR+qjtPgbQehgv/YWfAiMynt3Zcx8mra5Cr6Fbs9iOu9DfGkFpfuyz41YKiUsXwjCI/YnOTpeO3reRh5TJ0bUK93+1xLI/VzR1vm1gtV0DEFRW8p+eARnP6m9Yl6+EUbonTTKniBi6VVUftW2Vfk5h8RrfvGFJYy/NIn0A32FZh7kMT0awuQdD4KXljD/t0H06R9hfQnTr8+jKPsQpVawVtGPSalgrbSC5WQckWfMb7enL4jI5QXkimvmfqv7Xsph7hURSp+dxeS16vH2+QNaP8oPkliyvZtVxtI12ePSh/GXA9V9F6+Cp2ewkF/FmnEu5HK/hNzHo/CIMDr7TmLzA+90eDxW6X9MI++LY7FQqp7DH5cROyoOuJzE2Fvt3kEsInlGnMMvgMAbIh6V9Hgkf8+IE3cmEbrQ2/Qw+9ZZsf8xJLKWOPjjIiYOiA/F9mI32g1drY+aaLipRAPA3H91uS7Ol/aRqeNt/5BE+JhIEwggmsxV06eMy/kEImK97HshxJrdIe6ZFGavAWNXMlhdM9L8GnLJiNrXM/teBNN37PZjCiN/TqL/jIhvRl6hLkYf0U3E+RtnceSdIgKXl7FqXVeG/d4RhE+K79yNY8E2fNax9K8pNa5GjgVg5MRERETkAqJCsH3ycUU04xScXqy9Wmy875lQlm0uxW/dnbsZZeVX/b0aa8rCSe3KdeDj6n04444TXpqzuTsniOMQlba646jemYx+bnefYU1ZPK3dwQlesf6qzZ27X1eVxCvyux4leCnXeNfCuOJuc8dqSxT1cKw7n7mLPpvj0Rl3FZzC0JY47mMyLCLKonVDXdy5a8rheMw7d5dX9Hfq/LyghOV6CChz3+vvCU7x07hr4nvX6c7TijJz2OZ4m2p95y5kdz4kEW/k/uCVhY7Cy/jdZnd3utt2RVl+W8ZznzLxpX0IKYUZJSDXq89Lmun6zp3zeTDieu2d6uodv5lv2967Oi3i/FBUWWxysiqfR7X9sksDRhp0yG+JiIjo0bWtd+7ytxNqX5No/dXioRAih8Xf8hSWvtzGe3f9T+LJ3+mva/QjcCyivkp/mdfvxqwjc1vecRLVrdMj8Kqv6gyN4exx8dd6HHfTSMiRQIfGMXbY7q5ZP4J/PdvGlBBFJF8dxti/RBPiQgoLb/gsd710fX1q/0XcWMDiD+o7PbKB8t0U5j+YxNmXD+GQ0UfIOwY5NA5+Wa+5w+QTYScqj1i6nGroR5n/bBZL4m/weMA2DDd+yiN1dRqTZ0bU7Wh9rfZg7Kb8tIT1du5uttTZ8Rj6n3pSf1XnqQBCp+WLNNL5VvfuNpC5Je+aBBD5q7/xHKoGsf9F+XcB+fr+UJuwf9A21gJPezEs/25sXdrraNsbGSz9XYTj4QjC/+Nwp/mP+0UICjfzm7+b29IAnnS4veU7PKaluX9lUVDfsdqP/c+1vi/WVZx/Vvx2/e1Ri74Xg5iQn9+Ia/mPRf6mlgZ9b44g4BC8RERE9GjaxsZdFkuXRFXfM4Hgi/U1Ci8CorIvTd9Mi2bUw9c/MKA9WvZtUVSvpCIK6ugIPnj/4FRh88D7vPaqKBoI0vqPRa2B4x+0bxBKRgX3dtn+sb7fiki9eshs2C2+7dAokI3kl+SLFE55tYFhJj9MYulOAeUuG0XrX89i5NndGPCN4NRbU5i9IRowt9MoNGvD7BWNHbkfdxNI11Qs80j/U4ZGGOGjdaGxnsfsy3uw+w/7MfLqOKb+kVK3k/6uVWOpM10dT0v9GPiDVtMu/KTFFmcF5G/Lv2mcMge8aVy0wUrETnU8sIoL/EfEE/n39il9kCO7ZRiT8jsiiLauSdoGj1c0xYVyCaVOM66tjPN9AYy8KZudecSvWx7v3UhjQebDCCJyTG2WEhERkYtsW+Nu44tFzMg6S3kKh3Y3Vtb2/K9anQNkBaerkQd7TFTa1AbX3Q29YiT+qg0VLwaeUt9oamOjov19oFf2B55so2/LGioNNdUiEq+PYUQf+a6vr9mldi/CyRUkzgXFqzIKn81iSqx7xL8PA/8lwvjl6c5Gdbw3j7E/nUXqngiOg2HEk4tqX7W1NbHI/nw/JhDSv1rLi5G/hcXfuorlnSXERRh63h5FsCYMi5gf3Y+zst+VJ4DwxQQWZT8kuR21j1MJCXlHdLO6Pp7WBp5RYwvyD1o1NYx4RI42Nhru+O5YngHsU190eld56+O8cQe9/Pdq/9f1W0lMyXz4ZBgje7X3iIiIyD22qXG3oT7S2N716HksfbkD7t39VNQe0Tvs0QeH6EPfkPxbRKmNBlJf327t7xMD6l+U1tq4I/kkdje03fJY+gyIJecw6ilj6c0gwg4Dfqj6BzF6cRGrv1ZQKmSwmJxB9KRfvWtYvDGO4aNTyLdqf+jyNybVx7c8rySQSc8heiII3zP96O8XS7M2ptD/0qj6WFi1YrmB9KczIg54ED48XHvn8eskJuX0GJ5RJLLLmDsnGn9DXm07rTbUgc0cTyvFe2psQcCjxRZnYkPqV0JI/GgZCMNhUQccedz8Tg+i4wmUbMKkdnnIE9iLfCKnvvDC08ZFH9N2xHljYBWRp85/JvOMIhY+kY+WezDxSrCNi01ERET0qNmexp3Rh8YTQ8a2gqYtpaR232T+2lKbDcGtUy5qVTaICpfWPPNiUK1F5lEoOjXTilj5UnvlfUqrOvX/wav1yckWxKf2Ngq5uoaklQ8TX6YxcSIsKoEJtYGXHB3D5O0WTcXf9cHzRz+CJyKIq6P8LWNCNk7viAZOW3eOyijo/cfGXgmpjcOO9A0jcFIejd5YX08jJePA0DhGDtZWXsvf57Tz/UoYoWfUt7bAJo+nqTKK32qvfM/ojXlHIj4ck39TyBXabGXvcJVePzq614cR+fdGDis7PYhE4y4j/x4ehLeDNtn2xPlq32HZ/zX77yRmZYPSJg0SERGRO2xL4279dgrT4q/vzWDTq+yeF0e0x+JuJLDYw4EkOvZbHglRGVKvcL9k3GXqx/Bh+aihaK58smDbUNu4k8S87E9l7Vc4FMCYbFTdjSNx266mWkTqXwn1VfCE3SAjXuwzpi94ZhTzN2MiDLOY+nMQU7bDrzvo34d9z+qv29KHfv1OxLrDo4Yb5VKTu5F9CLysTVAvwyv7RQqz4nXw9ZDW2LUw7246DGSCB130Z2qw2eNp4m4CMzfEX9v+pPWq8Wj6vWlkezJAzMPheUa7GFMoNrmT3I1+eWFAvpjG5AdZ+zixI5SR+qe8G+2Udp1tT5wXQXk4pA2sIvKf0PFJ9XFXuzRIRERE7rANjbt1pG/Kar0PY4dbVCmeDmJMrdQtIfVljyuMdr5fREKOtmepYG/8kMZUKIjxO+I/x6cRtlzh7n8pgph8TO7WKRx6dRbZn/Rq2W8bKH4xhZFjk6LZJSpP58OWUejEcb8j5/0qY/qvRzB5s4B1/U7Hxi95JF8fw9i/RPXQE0X0eOvqYd+BCSSuh0VFMovJY2EkLaNilq+dwpEzs0jJAVTWLVXGjXUUbs7oDZAIfG31tenH4J9kjx3ROLs4ieTdak1zo5xH6v0R7PvTuDbwhRNjgJdbkwidkY+DhUQcaDzG/kGf2jcIV+OYvJY3wwcPysjfFOHq249xdRCSzdj88RRvJZC6W8SGsX/6eT/y0rh63kMXrefdWf+xCOL6/G6hv4xj/k4RtaeriLzsGzV6CinrPIs7zIBHO5epj+axZKSFnuhH6PW4PodcCEfenEf2B0sjSIT7+g95LF2bwtj/prQ7YFsqg4VraRR+qR6jlnZDGPmH2PrQBCbbSLtW2xPnBXNglTLKakDZDGZU786U2g9aLlMyHyQiIqJHh7LVjDnAhuJKTn+rGXMuucPVedC2bJ67ZsuBCWX5Z/37VkVxPHttvq8v/tcWbeZvqyiZCwFtPi+7xRNU4vn6Cads5rmzWE2Oar/nGVUSRe09IzycF78S+bT92eXkHH0zB7U5+BoWT0CJXppoOZ/c6pVgdZ2TC45zkuUuO4WPRwm8EVcm1Dm/6sLCad4yp/e7PJ7W4SrO+9vLDcfWNH7+vKxMOO2Ludife3ut57lznI/OMbxaySmikWrZX32x/M5mtr32+YQS8Fh+127pZJ8dt9Vqnrsmi0h/c4X6tOt8Lqx6GuebMea1k0uTNGgy5ssUS7M5DImIiGjn2fI7d+XbCch7Nr6/Btp6FKj/xSDUh9ZuzyK11aMKHp9DJptA7GQAg/LRJcHzXBCRy8sofRlDwG6AhGdCmPtqFYuXIwgdMK6Ae+E/HsFMuoTMZTlSZb0+iMo/8g3bCiB8fgErhUVEh9q45WPhPTGP1Hm/COAkxk5MqY/3eY7PYyWdQPx0CIHn9I0I6nbOzWG5lMFMq6v2NXyIfJ7H8sUw/PrdPm2fE8jklxE/ro0T2Iz3aFg7ny0GcfC9JsInHUfYCFPPIAInY0hkxfYvjWGf7XyEndrc8YSuZJBJxhA+OKj3jfRg8Kh+3i/Uzd3YylMBxNIFrC7NIHK8GifUuHQ4jOjlBJYL8xh9Wn97R/IheksbndXc/71+BJ7uzVAd/YdjIgz0tGaGuSC3cTKKmeQyVj6Sd8W32gQWv1/EjEhXRryR+6Cl3QTCf+ws7Rq2J84LcmqSo/IFB1IhIiJyu12yhae/JiIit7k3jyPPnsLSUBy5fLSti2xERET0aNqmqRCIiOhhyN+cVacA4UAqRERE7sfGHRGRW22ksXBJjpHZxkAqRERE9Mhj446IyKXW5aircjDet0cR7GSSdSIiInoksXFHRORKRSx8og5nhfGXA/p8nURERORmHFCFiIiIiIjIBXjnjoiIiIiIyAXYuCMiIiIiInIBNu6IiIiIiIhcgI07IiIiIiIiF2DjjoiIiIiIyAXYuCMiIiIiInIBNu6IiIiIiIhcgI07IiIiIiIiF2DjjoiIiIiIyAXYuCMiIiIiInIBNu6IiIiIiIhcgI07IiIiIiIiF2DjjoiIiIiIyAXYuCMiIiIiInIBNu6IiIiIiIhcgI07IiIiIiIiF2DjjoiIiIiIyAXYuCMiIiIiInIBNu6IiIiIiIhcgI07IiIiIiIiF2DjjoiIiIiIyAXYuCMiIiIiInIBNu6IiIiIiIhcgI07IiIiIiIiF2DjjoiIiIiIyAV2KYL+ekt88803+isiIiIiIiLaKtvSuHvhhRf0/xEREREREdFW4GOZRERERERELsDGHRERERERkQuwcUdEREREROQCbNwRERERERG5ABt3RERERERELsDGHRERERERkQuwcUdEREREROQCbNwRERERERG5ABt3RERERERELsDGHRERERERkQuwcUdEREREROQCbNwRERERERG5ABt3RERERERELsDGHRERERERkQuwcUdEREREROQCbNwRERERERG5ABt3RERERERELsDGHRERERERkQuwcUdELpLF1K5d2GUuU+IdIiIioseDaxp32fetFTqnZQTJn/QVrH5bR+HWPMZfPYRDzw9Yvr8Hw38+hFNvzSJ5K4/iA/37uvK1Ect37ZeB5w9h5Mw0Ut+t62vVuTPVuN7AONJ129LUVVxfTqKsf0LUG2UkX7bEMdtlAPsCIzj7QQoFh2jtTvUNRy0sxm9v6J/Xqs2THPIeIiIioh567O/crf97GiODT2Jf8BSmr6aR/s7aXCoiezuN+Q/OYiy4H3v+q/MKWvm7NFL/GMfI84M48mEe9tXAOuVpjF/Mtvddom1XRuGLFGbfGsG+wSOYvfs4x9Qypt+KIWt7MYaIiIhoez3Wjbv1L8YRfHEcqXv6G1uqjKXXJ5Foc1v596Oi0qz/h2inKi/h7DsJFPX/PpbuTiH6SV7/DxEREdHD45rGnf9dBYoilxISx/U3daFkSf9sAaNP629upBEfnbb0x/Eg8O4CVn6u6N8VS2UNq/kFzJwOwqt/q6njCZSMdZUKSksT8OsfaZaQzrf7IGUW4+/MP96VZtoRqulHpokSFt+ujdW4lUbb0dqlsm9OYn5bLhIREREROXt879x9l8V8TYU0jNj5EAaf6tP/L/T1wzsUQuSjRayWlhE//qT+QTv64HkpjLPH9P/qNn7TXzjweDz6K+HWJCZvsFcd7SB9HgT/9yxC+n81G47xunwniekzIzV9Wff4ZT/WeSzda9Fhb72IpavjOPXnYewx+q4N7MOhl89i+loW5RZpydaDLKb8Rj84bRl+v8tHoEVarabWJUyeT3XQB3YdhZvzmH7vLEb+fAj7Biz7JI/xz6cwfnUJhV/0r1vV99PV+96Wv5jF2b/sw4D+G0fOzCJrXb+cRfL9Uxh+Vltvj/8Upm4Wmh673fnT+hHPtj5/REREtP2ULfb111/rr7ZLSUkchyIPzVhCyZL+mUU2VvMdwK9MLNl8r4lSMlT7G8cTYutWq0rimOVz+JR4Xv/IULcfoY/mlKjHso4noiz+rH9XySgxy3cbt0e0WW2kn2JCEY276neG4kpO/8h0f0WZO+mt+Z3GxaME3l1W1vRVrNY+n1AC1nRgt+wNK3OFir6GoS6NICbeMVSUzHm/5TMonlcSIpW2qz79zShz5zyW3/MokU+rR5M5b/kuQkriR/0DVf1+Oi1+JZatO8b6vOtwVJlwCmvPqJIorikryYjit/tc7PNo0iYE7ueUmeNtnL8LGRGqREREtFM8vnfunvbW3X3IYio4gF3PDuPQq+OYvppC+m6x5Z02R79toHhrHjM39f8LnlcmMTak/8dJ/xFMfhyp3hEoz2LyMgdXoR3iQRFLH88gpf9XxGqMvjMGn/4/TRHJMwGcutrqoeIy0u8fQrDuztnGnSkE/zyFdKvbYPfmcepgGMkf9P+3ULwWRug9y8QIB2JIfTTa3iPXtp7EkbfmEakmVsy+F+/x4CpZTB6LId0sA7g9jSmnsC4nEfUPYt/orOURdKsykm/O1/2+PH9BnL3Rxvl7J4Txz3gHj4iIaKd4jBt3QYRPWx6BNNzLIn11GuOvjuCQbw92/789GH51ynkqA6sbY9ojUXL5f7uxJ2jMseVB4I0FZK6ELI9xOes/GsW0pd8gB1ehhyk1apke5L/24Mjf9WaCJ4BoKoPE8dpYvX5rGtF/WVtmQcSza1qfvV/XkPt4tCYdZN+LWQYaKmD+jcmahojv9AJWK1qfv8qPi5g4oH8gycbLx+nWFz9EQ/DsqGXqEM8oEtcm4H9C/3+3ngoietFymaiTwVWeG0X0yiJWSnX9fNMxBK0BVJ5H9jv9tZ2hUcTTJVTU36hg9Z+14VsuDyDycQYlIwy/T2C0ye8Xr57FmOX8+d+WfZH1/Ws4f6JB+6+largSERHRQ/UYj5bZj+DFJcSPWms5dorIXp1UpzI4JCq13d1BK2Pl9jym/5FFe9e4vRh9J24ZjIWDq9AOVF7B0tVpzP7bGqvXkflstqay77sYQ/RAv/af3/XD97dZzJ7U/qtZQvILPXbfXcL8He2lJozJ8yF49a6wfU8HEftHvOZOYfnvS8g0S5iyn90rp8RWDH7Ebs5j9Bn9v5vkfWUScUuDs73BVfyY+DaB+MkgBj11/XwPTmDyjP5/lQjNZk8QPHsEYwc90H6lD97jYYyprw1eDL/kh7GZvr0hhF/RXmusv19E+lo1pIAoYu/Jvsj6f9XzF0PssP5/6UYOK91ljERERNRjj3HjTnjCh+inBawuzSBydLDFXbXNPYJU/m4Js68PY/CvyfYaaUMRTL9rqcLeOoXxa2ze0U5SRkE05M6+OIgxM24Wkbc8iiwF/bUPbcoLKz5/QH+tSecL6oWP8vc51Nz3OhaAz2hYGP7oQ93ayP9Hf9mgiMRbIUxaGoz+y/OYOGBpUG2aD5EPJiwNziWceqfNdP5LAVnLwCqHAtqAKMPv6Z93o283mg/91Ifd/6W/rLdeQP62/lo1jUO79bu25rIHp2q+U0TZbuAXIiIi2naPd+NO1Q/vSxHMfLqCkjr1wTIWrsQRPRnAYENrr4zZG2l5ndtezVQI+iNMyUjNdAjlf0Ux/0U7l7n74H89ZunPA6TejGJGf020XWqmQpDLzzkkXquJ1ZZ+W+KfugSy+3f6C4vdT+h38gy/rGt3xX+rSxti3d36S1ND4yWPDcckNY/Zf9TuUPaC2NceTzre9z/jiFkf874RRfQj/bWd34oiPR/CwO/3YTh0CuPvzyJ1O430FwXn/GU7PFhHSX9JREREjx427qzUqQ8CCJ2MIn5lGSs/riLxSl0Lz7kW2Ug+wnQiirD1ESZRdZu/U9Bft/BUEJOXLP15yuWHW/Ejkp7yYfT1cO3dM7PfVp/sYlqjYvNIYcN7T/VrjxX+ru6OmvheRX9pVfueD33NbsQdiCBqTcflaYxf7PUgRf0IvjNtGaRJpFXHxLqB9DvDGPk/40KR7JM7h8X8KtbW1lD5VUHmvPrB9hPhXxuUE8hYG/a2i2X+UCIiInqoHtvGXfnaGA69mUSh2VOWv/Mi8NKw/h9d01pk73lO1PbnIdrZvPDVze24lK0fYGQd+S+q421KAd+gaB6J+P7s/tqRN2+mka9/5O9uxtJ/TgrA90f9ZYMQEtdmEL8wWzOISP79CGL/7m3zDk+PYvJS3QTvdtbTSH1gbfmFEbsURnDIi/5+0ci1udO5bTxe7K8Z0XceC7d7HE5ERES0ZR7jO3cbSP/fGPY9uQdHzkwjKR+HWrdUYn7bQPluErHLtZXQ8LFAi755Fg+KSP/9LCZr+qcAY/89qL9qhw+R/4vVVniJHqKNH9KYenMSaf3/mjH4n5N/+zH8kmUqDyH/VgSTt8r6Y5eiYfdJBJGr6ke6IEYP6hMSDAUwVnMxYx6RN+fNBt7GT0uYPD1e0y/P83YQw47XXPbDKwdOeTqEmHVUS/ELU6/FejxtgRzZcxqxVtOdNDz6WEDubvUq0/p/lpC2n7dgG/gQOhPUX0tlTP85gLNXsyha88eNdZT/k0byg7M48qplFFIiIiJ6uJQttl2TmNdOGOy0VCcSbpiAvI2lfsLjbn4DB+omfK6fxNxuwnWloizXTJasL5zEnHqucRLzdhb/JWusXlUSr9jEV4fFf752IuyKSBP2E27bLOok3fqKqmaTmK8qcy9ZP2vcdnP1k5jbp7/K51FFNG5rtlM7iXlOiQ/Vf958iWX1VaX6Scwb9qM+DOonUG/ML2t+/75Y/0Dt500X5kNEREQ7xuN7567vyfbvwKl9YuQ8dZuZ8Fj8ysEJLH8W7eIuXB8Cr9c+Vka0M4i08e4ylt6wxmovRj9awszxVqlFX/ddf00/r74DE0h8GkWgVXzfG8bcF51MaeBF+IJ1ihE5x14U03d6+9hh3+FxzNb31a3hQ/hStGY/annh3au/fBie8GPiVq6N80dEREQ7zWPbuPMcm0Pp/ipySwnMnAsjcNhf23DzDIr3woheWUCuVMLypRC8XfSF8TwXQOBkFHPpEorpGAL1w7q3Sz5Wdt76uBTRw+LB4MEAwufmsPxjEcvnA2p/uRpP+BC5vopSNoH46RD8lsaK94C27uL3Bft1Be/ROJYLq1i8EkX4oGWaEpkuj0cQT2ZQKswh/McO+8AORTB7oaZ5h8k3ppHvafvOg9B7MTRLrf0H41j6dgGxk7X5jvelKBLf5pD4q/7Gw9Kvnb+1wiLm3o0gZD0HgpGvzSSXsfJR7aTpRERE9PDskrfv9Ndb4ptvvsELL7yg/4+IiIiIiIi2AqdCICIiIiIicgE27oiIiIiIiFyAjTsiIiIiIiIXYOOOiIiIiIjIBdi4IyIiIiIicgE27oiIiIiIiFyAjTsiIiIiIiIXYOOOiIiIiIjIBdi4IyIiIiIicgE27oiIiIiIiFyAjTsiIiIiIiIXYOOOiIiIiIjIBdi4IyIiIiIicgE27oiIiIiIiFyAjTsiIiIiIiIXYOOOiIiIiIjIBdi4IyIiIiIicgE27oiIiIiIiFyAjTsiIiIiIiIXYOOOiIiIiIjIBXYpgv56S6yuruqviIiIiIiIaKtseePum2++wQsvvKD/j4iIiIiIiLYCH8skIiIiIiJyATbuiIiIiIiIXICNOyIiIiIiIhdg446IiIiIiMgF2LgjIiIiIiJyATbuiIiIiIiIXICNOyIiIiIiIhdg446IiIiIiMgF2LgjIiIiIiJyATbuiIiIiIiIXICNOyIiIiIiIhdg446IiIiIiMgF2LgjIiIiIiJyATbuiIiIiIiIXICNOyIiIiIiIhdg446IiIiIiMgF2LgjIiIiIiJyATbuiIiIiIiIXICNOyIicrkyki/vwq5duzB1R3+rV35KYkT87q6Xk2Irj7FW4fBLFrNnjmDfgHYedu3ag+EP8/qHW+wROUflayNa2Lyf1d+h7bBxZwrDMtwHjmD67ob+LtGjy4WNu3UUbk7j7F/2YUAtQHZhj38EZz9Mo/yb/pUaWUzp32tnGblmUzSUs0i+fwqHnh/QvzeAfQG5zSUU1/XvOFj/LoWpVw+ZBd7A84dw6v0ksp2WQD8kMab/hlPlZf0/aSQ/HMepPw9jj3482r6ewvhVp/DR/VZG+qpY17+nZr2pmwUR4nYeUriKTLr+t20X28Kz07jTaP1uCtNnRiz7LM/pWSw5nc+Ow3WrVSvBtufEyqgw7ZoSZ/tx4Byn9/i7TLcOjEpes3OQfV/bds8bK1T1CDbczAZCy33ewgZvvZ9SGHt+GGf/sYSCuVNFZNc7qEg3zdvbL3PdyDzn9cvAPhx6+SxmbxW7Lk9c3+B8kEXs9KTI3f2I3VxAdKhP/0BieeisGjb1i6zHjpyZxdK93iTGdsrDdr6zI92bx6Fdoo5oBtUG0m+JMPx7mxe+NvQ6ZE29fg+gbLGvv/5af7UN7ueU+FGPIg7XftkbVhaK+ndNGSVm912HJZQs6etpVj+NKH6b75mL7TY1q8lRxWO3jlw8QSWer+jfbOG+OIYD1XVjWf19qx8TSsj6+3bLgYiyaLevxUUlYvn9+sVzMKZk7uvfNT2kcM3G7L9fv5zP6Cvouoo7Fms5Zea4135dhJTEj/r3rLoK161WUhLHte3Xn5MGZpwS+6m/5W7txGmvEr6+qn+/e6VkSP29Zucgc17bpm16pzrVeN1ReBlx/HhC/IKDdr6zjYy403p/ugwTJ03CIXfRp27H//aiUmqzWGvQbt4u8+r6/HaHnSMn5rmrL59aMNdrsnRbnnS7T4+GipJ5V4+bF3Lif/VYHjqrho3z4lECFzI24dqZdsrDdr6zE5Wujyo4PKdUaw2iLjoEJfp561BbTUWVgMcu3KG46M5dGakzQYx/Vobn4AQWCmsQQSMbr6gUlxE7KppRooU8cmIK+ZqLhX5M6N9ruuTj4pt1xO+d/csssvAgeGEZq/eN71ewVli0bHMaDW3wu9MYG5VXVv2IJHNY+1Vf9+ccEq+JLZWXMH56tnG9BkUkz4QweccDj9icsz48eSKKuVQOq2vVsFF+rWA1O4NRue6dWYQvLdVe4dvIY+rEEczeEdXWkzPIFCvVY8wnIBonKH8xidCZlDgWq4cUrobjCYgkXrst6/Kudavdxh3dgyymXtqPszeKYn0RxtlVrFWs21vA6NP6dw1dhyvtBKIybDm/Ip6URLp9IyBibBHzL49h6ms+2kOkKSJ3W+bUUcTeC8JjvTHSlRhE5bkm/dWUYyKvjlx9TB9rrC/3KmtYTccR2tt9eeI5saD9Vk2Z6RL3Eoi9L+LmUAzTb/hELYm6IRpU1TgnlsraKpYvhuAVsS39TgjhG6zF2NvAyldJUW/cL8JKdy+Hpbsh7B9sHhuL18YwHJpGuuxF6OIiVkpGHVJb5D9barvu3FXSE9pdME9EWfxZf9PKcncrnFrT32yXcYUiqMx9r78l5C5pV3zw2qL9lYn7i0pEfg6fEs/r76kqyvLb2l0i38Wc/p6V1nKXn0c+bbavFSVz3i++51FGk5lNXYWtLEXUdeuvOq1eCWrvH4iLvbJRTCiiQBXfqT/GdvQ6XAXj6m4HV2g3F3fEuTynnUvPKwll9Vf97Ra2Nlw3g1cqnVXv3NmnsWpcwOlFpdNcxqqdq5C8c9eJarzuKLzaueOzw+4KmXdaWu5Pl2HixDEcjHSzyXzCvHPn/Dur/3Q49h12jpx0e5es5Tn/fk4JqmG33eXJTlathznnsywPnbUOm9WP9XrOkEM9p03tlIftfGfnySkxUc+z3qVb+1TUxWvu5Nkw07NfiX1pX9NwzZ27wp157YrU38YQfEp9q9YTfkTeCqsv52+mO7p6tXE7jugN0YQ6F8XYXv1NYeOBdt8o8Pyg/RWfJ/Zj+Lh8UcJGTZ+tPNJ/l3sQQOSYT3urhg+hMwH11eyXOdG2t1e8FkbovSz851OYP2G2+7vS9+SA/sqqjPwXS+qr0JmQ2Csbz4xi/E35SR7xW63vM1r1Ply7s6m4cy+B6Q/EO54oEh+Nwvs7/f2mtjZcd4L1u0nMvnUKhwLV/ovqAAp/PoWpa1nbPoz1z8yXv5it6f84pl79M/q96f0a1gtIvX8Kw8/q2xiYwrUP9quvj1wtym84yGPaJ9c5gvl7+lub1ofAX7R4gn/kUdBeadaLWPrwLEbMvpUiLGRfmC9qYpOg9WMYGE2p/0uNVvtuaos8bi0Mht9Tv4JJv/Vzsdj1tSqnMXtmxBJO+3Do1SmkvrPpE1Hfz0xd1zIQxl/bvPr/S17v41vtUyyXpv0T67Zd3yd5j/8UphvCzEr2m53CKTPe6X1Yr2VQ6jCvUOPjH8agnokbY5Z4rC2OfZs73mc9rr9c7TOh9b1OodCbLiud6+bc2dDS9DAm1f9NaoNWGMsW9GPc3Vb+a+O3MrLXbOJNq77PbafrWk597TM/6V/otb0BjB2TL/LIGJ0e20znTn2Zat+vT3ciHF6VdxW079pqCHM9HN6aR+puubHeo+f11f7s7YW1o1+WkJT1MM+EqIfJW75b52GWh/m709gvXwfn0bREbKvc7Iz38BhEgxe4m0HBGrfbTm/tlIftfKfOwygP7dzLiTQyiuHnqzXdwlez8Ly4r3onr8EG0lcmIWuQwY8TmPiffu3tenojb8ts15074yp26J9N2ruitSuaTOJ7nVxZySlx9a5NY78p82rZAfF7ds+yV5aVqPzcM6EsW29Bmfsx4bwfxlVKhyseq9fDijj52t0i9Z3NXYU1rrB43l623C2r/ubEl/pbNiqfR7V97eiq6BaEq9TFnbvNxB3jLqP9HVgnWxmum9WbK5VGmDotnqMzSq7u3JlX3j5aVOZONvZf1PbHuAswoSx8PmHzvLnYF+OqVpOrhebd2pMLHdxha3XnTrC7u1BcUMJ7tfXsFv9ri5ardNXwt1/k71b3w3apiy9GXmH7XfWuf128N+9yzCiLV2zWbTc+mmHhsHiCykx9v2Jj28cmlPgbAYc+yTb7LN1fUeZeadJvVl/azR/NfMhhMX9nM/sszvyCTVw3F8+okmjW19eGud8tz1OTMmMz586y3aZh2Gm+Zpe26hh9+4JXnOK0zTblkxkHneON56jIR+zKoY7StaGirHzcpK+9sfT6zp3lXJv5epvp3MyX68oD8/1340rUKfyc4u/Py8pEkzCvrxdUxLl36lskF78Ir/qqQCvqHRKxbm2dp54LykMRC+dekq+b3LUVdaoJdd2wsmD39JKtNsLGDBPL+ewovbVTHrbznaqHVh5KZnh0stTFpzXjybXm58p1jTvPhSaVbDNgR5WFNs+GkcD8l2x+t5JTZoxBOPaGlFgqp6yZj+VZHpm8XrexNgopJR9XfA7fkRmdX35W0/ipRvBOGneVtVVl+WJIi7ANjanqbzYcg5VxPJ6YY2W63paEq2SGbe3iPRBQwufmlGWbVbqPO9Xwmfh8Tcml4krkuL+a+Pf6ldDpGZttbl24bl513zZVmF0MKpHLC0quuKZULI+qVko5swJeXwEz4oRcPAfDykx6tWZdjbVh41VC58U2fq4vmtdEhVl+7lEm0nbFtvF5q8ee61W37ZTGjAqD+ViFiMvGI73+1xLVff21oqymY0pQL4yDH9uHRbNzYMTbZundzCtEOoqL8FwzgqNm+7WPRdcUQB6Rbi4vK6t2ldtWsnElKOL/Ql5s17r+/ZKSMyq4L9U9ftKw7UVlxQwzkcaM9Rou7FQHRpADQ81lS9UKW2VNWc3OKRH9UfdO8kdzf5oV4JvZZzUvE/nT8biyLNOK/olyX+TLF4L2YdSCmY5aVjqalBmbOXcN2zXSTZPyrh1m3m7zO+Ic55LaIFzVC54WjvtWUhb0/MhzNCbOgXEGKspaPmEOeOU5V9cA6DJdV76c0Mt1vxK5Iqql5o+K7RUzytxpPQ73vHFX7ephPgLWEG/t07lTXtSQXy+tVPOXn6v5fGPjyWhsaGG+WLDkwSJ+raQTSuyEZVAco4uC2MdoMqeUzH20niOnvN5Z5l1tH5oPXOGG8lCUS6mw9jsODVnj8866E7QRNmY9Nqrnfd2lN6c4aNXOdx5qedhAduOA4rPWgUVcD7Vqnxj54LE5ZeXHZWXuXFgJPKeFqUwHgyKuxFIr7mncmX2YhiacR4QyT5LD6IX17i8rUTVTERHT6Td/LVUbR+riFYXihBKVIyfKCGTzPKxZAWyrwlC3r0ZG1zB6Y5OCukH1u+oi9jN6ZVkpNWQc1WfS5b46VjCaFbp2tihcVea+OC2Noxl2H3esGWuTRWQIsaw1q9qicO2JurjR1tLh/qkZmFivriAxMmffuUWbuGgwwjykzHzrXAw1vetp3Nmzu/PbVKvGXbXSYtzJNQtNpwq6KPzUwqZuX9opqFo37oz9EXHW4e6P0de2poAx4vpQVFlsVshsyqqSOCb3LaIsWk+juW0RHran14ifHiX2lf6WZJxTx2PtJH+0MPannby62312zAMqyuJrcr3O+klZK4XtLh2FSatz1xBWvW7cNVlqKowWTvtmVD6dyqKfF5WITYWvu3RdzR+cnhIxz12PG3cyP1Qb5Nar/Wa8bZ7OnfIi433fu8v2DQLj9+suTpph5/RkTg2jrPQpE186ZNaFGe2pmo4aJkYcds4bNe4oD82nneTxNtR9jXjZaQO5Gjb25ZRsvOj1HOMJmS7Tm1MctGr9nZ1WHnbX3844zlaLa/rceY9GICIFcHcKodEppH+wPLG9sY7i3RRmz88jo77Rh76Wz+ZvIPt/45gui6hwaRyBJ/S36/2ygvxXeRT3hhC7HEfkJWDpH1OYviGfW95A6cdSwzP7Gw9K+qsOyVEZT4whiVEkbs8h9Iz+/mbdSyFxaR7znxXqnnPvQ+DlcW00yxtjGHs9ifwvlm88KKPwRRJTYl2VCP/Wo01tXbiqDkyoIwXVLJU1lIxRNtXRDM/W9LPqOu5sVLCmv/Qej2Mhbx0lU3xmjLRZTmPy2DiWftG/vCXhuhNtoCzCbv6DSZx9+RAOGf13vHo/pl/W6+KbxuvbD0/L9Lkf+59zeNZc6HsxiAl5Tm/EkbirvWfI35xVn1f3vTmCQC8C9jdxnP9ZwtRfhnHqlvi/J4LYSVGEiRiaua2dw8jpEftn6IfGcFb2Hy1PYelLu9DYhHtpJOX+nIs45hV9zw+rfSLy+WJjv4FnRRjLMNykjZ/ySF2dxqSc/1HEAa3PzB6M3ZSfinT8QP1arWf3YZ/t6fXA+7z8K/bW0k+lKNKLPKee8+MY7VW+2Kku9zn6NzmqnJ0+7PerZwe57xvOzrbo6tw9TJ9N4pB3N4ZfX2rav8iQ/yIhQlfkBW+N2ZdFTwUxdkYmgiUkvzB+sct0baRHTwzjr9if8V7bWC8ie/UsAn+eVtO3/5LIC+r7lW8ynXsH98E22j/tFbm0IDZczdmqYRd6PQy/U/lv2MhgSfaLOxxB+H8cMus/7oc6QsFNUV9Q32hHGUU1Du+Hd9vyi4dXHqJvGMG35UlOIX6trg+/rN/IeDk0jpGDvSgQN7D+QxbzrwdwSI5HIGo68ddDahzpLr31yA4pD01qf7sIAn+qhnnh7kKL/nZA5YFe8/UEEL2yXDtK5v0ScsmIVrcUb2yp7ZznrtVz2fB49KtXbVxZMa6qOo1mKBl30eqvQP28oixeDpv74j25UNMS7+7O3Zqy+Jq8CuKvuwtk6PLK9K8VpZRPmM/M28310vwZZSgeEa7q62bHY9jCcG3Ncmel7nHQruJOwzmycT+jTOiPw9RfUeppuPZMq6txFubxN6anta9mlFCT/ijqUndc7Vyd6+QugNH/puZRFLNvQd2jF22p3rlzXPaGlbmCsTXjUajmd16MO3DW424nLFrduTPzmXYW67kwzutm413TuR+NpS7ttLHtxuMWeeNp7T3nx5y7zB/bCYtN7nM7S8u0aGFe2W15/pqESU/PXbM02yxN1f1+qycZ5OO36biZ7/is/bBs9616Dpo9nm2Gp3k3rbt0babHVxYcz0vjttpjrue4eJRA/R22duK24JQXOb1fZXfe2ws7k/lYXztL6zLBZNzJajmKo3vKw+pdM+vd5OpTRA39VFuqho3j4gmoXVY03aa39sKi1XceenlYp/EunZY2WnUVMfKVZnmEHDXYRfPciVb3gQks5zNInA8j8JzRxPbCfziMWDKD0mfjUMeEPOaVN0OaWMfSJTkajQfR8xH70QzFd1Lnx5AsezBxIVp7BeqpQQRfm8PytwvqHaHi1QimP6veZ+r/vT4y5ZdFON7D+6WkX4XaD686R9oG1svyWkIWk/7dqB0NSC4DGLshv2cZPa+d0ch+1wfP0CjiH8cgGl3IvhNDqm7ELu/xOeS+X8TM6RD8xqiWnkEEjkcws7SKzEcj2nt/fLjh2poXgRMimQr5bKEmbLqKO097Mai/dPSEH0eOai9T92qvRPUuXHeYe/MY+9NZcbzicA6GEU8uIldcw9qaWOSdzR8T2ghaW8x3LKLG6fLfk+Zd0/VbSUzJE38yjBHLCK2b48GgOE55Fa307RzCfzSuxG1gQ71r6MWA3SisdTY2Kvqr3uj6CYGeKGJ+VJv7UV5hDF9MYFHe2ZZxYE1eaSxBVAx6ROSN+vnd94dHJaVU93nn2c5z10N9/fAejGLhRlwtW/LvJZBuWjxUz8HA75vc9TDcr4g1pO7StZkenx3Yvvx8rx+h0/KpkgKWzwfs77Btq87CTgSeeqen534pa/UrcS7sxgnvqR1SHmIopD4BJe8mJ2/pCcMYMRRhhI/27m6y94DY1sUF5L5dRuywEeu6TW+98XDLw0bqqJjW+e1+KiBzN4Th55uHjeeZ1rHF++IIXNW4U3n8GH1XNgCMSRVFJfnzOUyc8KPybVq7JfziYDVAbWzcmcXkP0SEfymGyGGH29QbOWSuyhfD2Pesw3eeCiH8uszGy5i9axkY/SmP9hhBuUnkfbCmZWpDfdvzSN7efeJIpBSKNsMx9+8NIvLRAjLf67d/SytYvj4jMosBFL9aUL8T+VPzps6Wh2sbmg6V3XHc6cNutZS2DzPT/9P/2uhFuO40+RvaML2eVxLIpOcQPRGE75l+9PeLZVsis27vCMIn5Qv5yLEsyotY+EQ+EuTBxCvBTVV0YjWTmJewIo4zfjJQN0GzSLtD8m8RpTYq8n19u/VXPfI7fWfOZyz76rBcH+1thfPrJCbVR9BGkcguY+7cKIJDXi0ObEEk6NN/cu1+L6sDW8vY59q4ZL8snNi25sA2nzs/JmyOV1sWMKpe2OzQ0DC0y2KzyP9HfeGgD/16A6P0cxsXCf9rt14Wd5mujfTY40prjfpJzL/PYOGjKEJDD79Zp+ks7CDKazXm1x+X7TKhPY7WDlEHU8vx70vOF9h7ZMeUh+KIR/6mT+n0yYLauC1+JspG8dfztkjj7TS2HYTqJjFfzS5g5lwIvprf7Da99cjDLA8FY2oLYxl+X7z3jjb9hLqo0+6kMOatfmfX+w2TOGC3UXB8a/PoqEGkG/c17hzlkbosk5ioTB+1v2ekKSJxflJ824fYe2POjcD1dT1TWEelWU7dZ3Nd6GmvftcqixWHObaKBf2kHvbpd4c8GL1uEwnNpXo11awsdBhBu7pvYJkrJmReobGzDeHahuI9redcZ3fDnOKOOI/q3EFAWiQ0exuo3Nde+Z7oIKtqO1x3mjIKeS3LGXvFqS/RdulH4FhEfbV0OYXsv5M97lvQiheDam0jj0LRqTArYuVL7ZX3KZvz/FvrVFlxmL/N8+x+LZ/5ckUtyLdT+fucVvC8Enbs39A7oqI2qKXm/A9bVFUTYdzb+6pin31aXuKcdzwc23vutoZ2rkScaNpXqR8Dz2rnIPMf5/x7Ja/NnxXwGCVGd+na492nlTl3mzyx43rVsDPn22tmr09rqN/IYaWXLWLR4H5S/r27sXUNbdVOKg9FjD8Ygloi3ppF6t9ZJNV6jQ/jLwd625Cy1W16s2ijPHT6zsMsDyXPiYVqff37OQQQQuJH/f9iyZz3wFPf8Hy38XKFeRzN0sRG5XFp3K0j+34E43dFwNRNmF1v/bNp9aql53QMkQNNorvHi/3qFag05q9lHTKIInK3tYcKgk9bIqrs3HpOvkhj9qbdQweiMfFRWn0VeXH/NiQ6ERduL6hXcMQW4fuj+qK134pIvhlR1wvKxxmb7Oi2hGsrD9JY+EhmtB5MHNQymdaaxZ1+DL+kNR7S780ibTe4wC9ppP4lX/gw1u42OwjXnad6dW79gf3Z2yg7DIazBfoPh7SBVe7GETouLy6IMH3dYeL4nhPx43DtldJ6G3eSmL8tXohGfPDF6on2/EG7pJNqMpCG8XhGoehQVA0FMCbT0u1JTF7b3uKs7wn94ovDIAF4UEKph5Fg8L/H1L/pj1LqOW5UcWwEN2U8en1zxfkqaZd8B8fUeJh+bxLJH7T3doLtPne9Vi3LxuB/Tn3hyDgH+UsJ+/z7hxTm1fw7iNGDRtW8y3T9nF/skXBbVKzVRxMbNb2g6QrVsEtdnke21YA8/cMIqE9fiPrDB071gW544FUvzOaaP3WzaTurPES/aFKoA6vkET8ewqSMh6IOE1LrXFuvu/TWZnnY6jsPsTyst17II304CL/5ZEIemVQZI0PaMTRlHIdIE9P/sj+O/GciBxStwy21nQOqNFDnN0ooMaNjeKuhdysZJaZ29m1vsIXSdWMyUtlZeaE6t5FQKS4rcWO7dsO+GkMly/lukpZ53H7OKYnXtLmPMCT2t/qTLTQfMCBzYVAZPZ9QFuW8RebkHsL9VSVzJWoOJmI3oEoDORfN0owS1gdhsZ1XyGrbwjWjxF+KKPHksrJSsswnI+cwkfNc6XOotDVvVNtxJ6dPxi7C4WBUSeSrnWHXCgvmRK2edoZp7jRct8TmO5CbU0sciNSEh5zTZ+G8ZXqLre5ArjMGVtGWTiZprWdsu4NBOSzzYXlPziiZH/W43GI+LDnwkDq8t2dUmbOEoZU53cOBCWXR+N06stO2lpa8SujiokgXlu+JOF4qZJSFyxEleNESmr3oQG4MnFSfv8l50lIxy+ACvRhQRTDzGGPeMf19Pe1bJ1lu+9ypVpW5w3I9jzL6sXW+TYtu91kdYEDfLzm9y9KKZQ4veXpEfpBdUGZOB5V4B/tsDkjQ8vw5lBk9P3edp1lbLQZUkXO2Zq5oc93J79XMoeq4b5Z5tw5OKAvmnGvtz3PXfrqW8xpW52KsyRvlHHfWCfC7HVCl5Tm3aDOdO+XLrfNrh/NuCbvauc4Eu3nuzLqSqA+8MadkrPNBivBeK+aUxWRMGf2b80A1drZrnrudVh7WD1ITTtmXL611EDamLtNbG+VhO995aOVhHRn3PNY0rm5D5KdNp+Woqj2O5ep8mZWSkrmsD9Snv7VltrVxZyauxsV7fEbJtYjDqx9ribBmlK2mRGZ9wZIh2y17ww4nrKLkLumT1NotHlGg59vbC02Lxp0xwk6TxXH0Scf5hWRmK9axq/BYbF+4VivfTovMUJbtKvebiTvFxWrD0WbxHI0rObuG4SbDdWtsvjCTDd4ZS2W6ZpET0V6asM0st6wwMyurYjHm2+lKNX511EAoLijhJiOl+V9btEl3lop/zWI97uqFhZqlJlwrysqV5qOyqktDQSPe22RhlrvslIZl/I4rE8Y8U71o3AnmBLU2i+dgSAnqjb+Ozp1QLUhrF/N3NrHPyv0VZe6kfgGpydLJPrdf0XcuM3p77rpIs3Yc88v6RexjJyND3hf755RficUx/+4mXcttOZUVIm8MHd2qScxttJnOnfLl1vl1k/PeIuzq49ba5xPNR7OWSyfHLqijFYr1nCb21riwPJQXrPRRwzd3sbObxp3QVXprpzxs5zsPrzysahwVU71Q23LkVqsW7Qf43TVaJn7XjwFzpEORxT8XQOj0DBYLa1i9HoGvWdelX5Yw/d6SWCmC2Gl/m49C9sH/9jIK+oiH1VEWtdHz1FEWC3MO8y71wffGIgpfJRA7GYDeZUTd5/D5BDL5RUSHevc8nv9cCbnUHCbkfh4QUduw14/AyRgS2RJWrzg8Ey7C1RzNUfAe0PfxxyKWL4l1mvVr2NZw9SNSWMTcuxGEDvstx6KPepnKofB5DAG7jsObiTvPBDHzZQnLl8V2zbAV+3pUG/Wy8GkUPrs5XTYTrjuaD5HP81i+GDaPrxqvlxE/vk97c7vsFedSHbF08wOpdOWZEOa+WsViTfwQcVKOipouIXM5aJPu+hG8XBuG6kiqh/staciH6K0VJM4FzfxDTc9PW4+wD4Mn57Ba0keCtaR9LY5PYE6ki9K5xmf7N8v32jLy6TjCxjbl/qt5jTiuS2PY1+P4LUe8zZRE/DLzUz2/SK2gkJ7F2LPq1zrWf3Sm9jjU3w2gvxf7/8QgwldWUcpq5UA1P5DbCCHy7hwW8iVED+hvb5PtPne9YObZ33c4MuQTfkyI/CqTjCF8cFCEvGSJO075dzfpWm5LlhUiXRvlmpY3LmClsIzZEw1ruJMMu4IIhytRS5jrYXFuTpS78zWD6fQfjmG5oIe15fta/SWKmeQyVj7qbIyBfr/YlvhbvppGZksfh91h5aGIlYHjchxpsR+bHEilK12lt3bKw3a+8/DKQ5MxKqalUln4OmEZX6Mdevvh24Wa9oNMD2q8Ese3S7YB9be3xDfffIMXXnhB/x8R0Ta7N48jz57C0lAcubwoOPS3iYjocbWB9DteHPp7GeHUGuaObftlv4ekiPngHpy65UM8n0N0m/rb0fZ6jEbLJKLHUf7mrDoU9fYNpEJERDtbHwKvavP7zp+fRdb1g9no7qa0UaO3cSAV2n5s3BGRe22ksXBJjp/Y20laiYjoEbd3DJPv+kSDZxLRno7GuVNtIH09ro4oHP7biE13AHILNu6IyLXWbyUxVX5IfQuIiGgH64P/rVlMDAHZ96KYvuPy5p1l/tzRlx6Xx1AfT2zcEZFLFbHwiZzxarsmaSUiokfKE35M/iMGP7KYPDaC6bvubeAVP5tX54D0vTnyiM2fS53igCpEREREREQuwDt3RERERERELsDGHRERERERkQuwcUdEREREROQCbNwRERERERG5ABt3RERERERELsDGHRERERERkQuwcUdEREREROQCbNwRERERERG5ABt3RERERERELsDGHRERERERkQuwcUdEREREROQCbNwRERERERG5ABt3RERERERELsDGHRERERERkQuwcUdEREREROQCbNwRERERERG5ABt3RERERERELsDGHRERERERkQuwcUdEREREROQCbNwRERERERG5ABt3RERERERELsDGHRERERERkQuwcUdEREREROQCbNwRERERERG5ABt3RERERERELsDGHRERERERkQuwcUdEREREROQCbNwRERERERG5ABt3RERERERELsDGHRERERERkQuwcUdEREREROQCbNwRERERERG5ABt3RERERERELsDGHRERERERkQuwcUdEREREROQCbNwRERERERG5ABt3RERERERELsDGHRERERERkQuwcUdEREREROQCbNwRERERERG5ABt3RERERERELsDGHRERERERkQuwcUdEREREROQCbNwRERERERG5ABt3RERERERELsDGHRERERERkQuwcUdEREREROQCbNwRERERERG5wC5F0F9vidXVVf0VERERERERbZUtb9x98803eOGFF/T/ERERERER0VbgY5lEREREREQuwMYdERERERGRC7BxR0RERERE5AJs3BEREREREbkAG3dEREREREQuwMYdERERERGRC7BxR0RERERE5AJs3BEREREREbkAG3dEREREREQuwMYdERERERGRC7BxR0RERERE5AJs3BEREREREbkAG3dEREREREQuwMYdERERERGRC7BxR0RERERE5AJs3BEREREREbkAG3dEREREREQuwMYdERERERGRC7BxR0RELldG8uVd2LVrF6bu6G/1yk9JjIjf3fVyUmyFatyZUsPcPWGzgcLNKZzy79GOSywDz5/FUi8OzhXxKIspNVymxCvqqR+SGBuQYTuMs58V9TeJ7LmwcbcuMt9pnP3LPgzome8e/wjOfphG+Tf9KzWMzKi9ZeSaTbZbziL5/ikcen5A/94A9gXkNpdQXNe/42D9uxSmXj2EfWqilQXFIZx6P4lsp7m7mfCdKy/r/0kj+eE4Tv15GHv049H29RTGrzqFj+63MtJXxbpmoaatN3WzIELcyQbKd1OYf+8sRgLV87Fr1x4Mv3wW003Wzb5vfLf5YnusYl+z10QBbNmmDNeRM7NYutf8hHR2PnoQd6zuzeOQ/O77D7NYrFaCW+6vURl5bApy5/O9x99lunVQvjai/m6zc2CkkZ43VqjqUa9wrxexJPNta54/sA+HRP47e0vkv83yfKqzgfzfA9gXmsT8nWrluvxdqY1wfAQbPUbDvGER5fefRdl/Ldu8zuBCRr68/WV0Ecm3xpAsezCaTGDmqFd/X2KZ7awaNvVLu3XCtrVRVrRTrveMssW+/vpr/dU2uJ9T4kc9ijws22VvWFko6t81ZZSY3XcdllCypK+nWf00ovhtvmcuttvUrCZHFY/dOnLxBJV4vqJ/s4X74hgOVNeNZfX3rX5MKCHr79stByLKot2+FheViOX36xfPwZiSua9/1yobs/2+dfEcjSs5m3Uz5+2/X780HGuLfQW8Svj6qv7lWp2fj83FHVNlTSkVFpSJg3rcPZ/RP3gYSkrieIv9NZhxSpx//S13a+d8O8evTpSSIfX3mp0DI43YpneqU43XHYWXEcePJ8QvOGjnOw/BaiqqBDzaMTsuonyaK7RZznTDKAN2WNh05ecFJSyPxTOqzOXX9DfbZeQdTfLKnRaP2ii/G+s3bRznI8zIl7e7jF79p7ZdzysLNnGDZbazatg4Lx4lcCGjbDoXbCP9tlOu94qL7tyVkToTxPhnZXgOTmChsAZxsmTjFZXiMmJHRbX93jxGTkwhv6GvovJjQv9e0yUfF9+sI37v7F9mkYUHwQvLWL1vfL+CtcKiZZvTyOurmO5OY2xUtvD9iCRzWPtVX/fnHBKviS2VlzB+erZxvQZFJM+EMHnHA4/YnLM+PHkiirlUDqtr1bBRfq1gNTuDUbnunVmELy3V3k3byGPqxBHM3hHV1pMzyBQr1WPMJyAaUih/MYnQmZTN1Yo+BE/HkUivoLRmrCeWyhpWUhNqeJY/G0fkakH7ug2RCKrr2SwTYvtVRcyf0fbVczSGZXNfRRz4eQWLF4LiTInvvDyG6bv6Koauzscm4o5Kv5q7+0kMDI5g6otH8t7AY0k0EGrOcaUk4skbATN+TX1dk8kQbavitTEMh6aRFlmK93gci5byUOa/q9k5RA9q5dOpwQCm7jC+trKRz2Be/A2cjyE81K+9+ViIQTQEqvmdqDOURNlvxJ/GOpV7eU4saGHwrn2JviUepDH7Vkq8CGH6QkiUMdSN+rpkZW0VyxdD8IpaX/qdEMI3XFb/Ege5pbbrzl0lPaHddfFElMWf9TetLHe3wqlOr7oZrf+gMve9/paQu+TTWv6vLdq3+u8vKhH5OXxKPK+/p6ooy29rd2l8F3P6e1Y5JT6k7Wvk02b7WlEy5/3iex5lNJnp7sq0rrIUUdetv6KzeiWovX8gLvbKRjGhiIah+E79Mba28lFA+22bKx3GXYmOrnDk44pPPQYRB+zuJIrwWnxN+13fJevR9Op82LGPOxqHO0G8c7dDVc+XfRoT8eicfvf19KLSaUyx4p27XqvGa9ffuTPTpUcJinzO+Yr0qpJ4RY+vTvn7Zrnozt3mrro/ynfuHPb5/rIS1e8MV8tFd9+5exiMOphP1Avs0zLLbGetw2b1Y72OO7TJPLCN9Ms7d10o3JnX7hz9bQzBp9S3aj3hR+StsPpy/mZa+26bNm7HEb0hispzUYzt1d8UNh5o93ECzw+iT31V54n9GD4uX5SwUfNseh7pv8s9CCByTDRHGvgQOhNQX81+mYPTRbHitTBC72XhP5/C/AnrM9id63tyQH9lVUb+iyX1VehMSOyVjWdGMf6m/CSP+K3W9xmtnuzv8dXPjQ3tztphHwafUN+p04f9fpH8hFJNoPbmfNhxijua2jt/IuHr7z/61u8mMfvWKRyq72vZpK9G/fPo5S9ma/rOjqlX1ur6rqwXkHr/FIaf1bcxMIVrH+xXXx+52qzTeR7TPrnOEczf09/atD4E/qLlMfhHHjX3o2Xfpw/PYsTss6r1O51tuFur9REYGJVXaoHUqNGP11jkcWthMPye+hVM+q2fi8Xumf9yGrNnRizhtA+HXp1C6jub/gb1fQfUdY+Y/VB3/dXuLr2NX/J6H99qH1a5NO2fWLft+j6we/ynMN30Drfsc23tb6v3Db6WQanD/kFqfPzDGNQzcWPMEo+1xbFvc8f7rMf1l6v94rS+vikUuugOkr8W1/b5+DRm3vDZl00qL0Y/SkBU0IE745i9ad1Y63RWk9vXx69nh7X+LIWS/gUH+u9W+6s7pQupw31qYf3eku0+y7udtbTtOqXJln1e1b5rw5hU/zOJYcu6cnHqf/Ow41FLTwQw8jft5exdh6dv6uLFwPNHMH6tWT99scqdpE2/91bHUJ/uZXg5j7VQ019ZjidgzZtF3njkraTt9mz7TD0Q8UPNgwf0MsrGTylzMJTO7pLnkbos62BBRE74m6TlzXuYZXb+7jT2y9fBeTQttdsq2zvjPTwGteZ1N4PCT+pbmoaxG5zHmWhdVrRTrtfZZJntmjt35p2efzbp7/L9nCKq6B1etcgpcfWOX0hJ/Ki/pTNa4Tggfs/uTlFlWYnKzz0TyrL1kou5HxPO+2FcNXO4mrB6PayI5pzieSWhaEfc5ZVpnXH1wvP2suXqUPU3J77U37JR+Tyq7WtHVxyrdzmCVxrPWVd37syrUn4RBnbXuOQ25eceZSJt+bwH58Oec9yxY8YnF9y5M86f0+I5OqPk6k6ReVXro0Vl7qS3YR1tf4wrwxPKwucTNn2KxL6I8xmUr5ucK/NO/8mFDu6wtbpzJ9hd7S4uKOG92np2i/+1RT0NS9Xwt1/k71b3w3apS4dGXmH7XfWuf136M69AziiLV2zWbTedm2HhsHiCykx9P1Zj28cmlPgbAYc+sDb7LN1fUeaMO1FNlnbzRzM9Oizm72xmn8WZX7CJ6+biGVUSDn227Ym4oaeJ6Od2eWCj3EX9CZSau81tpDP9m2vic3/NZzaLTZypiPjRrE+gv+FORfv71ErzNOFXIp9az1Xz9NYyPrVIB2Y+u6PikWCXl9Ux83mzzDLCKqLEL4ccw7jx3EoVJXPB6bjF4jQOgXwqy+ivbrfY1M+M/Y5cnFFCTnmzzXpmGVVXNsq4rKYB23Cu3iG3P+4mjKeRXpqzlBH1XFBmi6Obe0m+bvIEmKhPT6jrhpUFu6fzbLURNmaYWOppLeJU/VgRrcuKdsr1qp6U2fpHW2a7G3eeC02q3uZJHFUWWqQBg3HS/DWP8ekqOWXGGMBlb0iJpXLK2q/6ZzKjMh6ZvF63sTYyzeojho3fMTOSmsynGnk6adxV1laV5Yt6JtyQmVV/s+EYrIzj8cTaavhUSjkloRde1cZpLfuMxqv4D4eV6JVlpWSGs1VFyV0O6oWDVwmdX1BylkzACLeGTsmbPB9OmsYdG2YG4YbG3cWgErkswr+4plQs50qee6MCXt+ot2aQnoNhZSa9WrOuxlrRMs5xfXG5Jio68vO6RrzJ+LzTx2yr23ZKY2uf6o83H9YLY5FHGI+D+19LVPf114qymo4pQb2gC35sHxbNzoGRRpqldzOvEPlTXITnmhEcNduve2TYPK9i8QSU8OVlZbWuktOWbFwJnp5RFvJiu9b175eU3Mf64EX1lZaGbS8qK2aYrVXXq79gJvPbd/VGyoGIMicKU/Pjypqymp1TIvqj1Z3kj9VCs0mDdjP7rJYRULzH48qyTCv6J8p9kS9f0POyphW7OkVjX9ov45QvJ7R9r0nH7aQzwdyeRwlekMetvy9USivK4nn9kaf68DMe5xfhFU3mlJIZPyrKWj6hD4pVn37b3KcWKl/paUI24sS2zTRhDXObx+jbSZPOjH1vUn7spHgktSwX15TF09r+Bsz8q/4cJZRM0dibilJaMi4E2ITvdeP4gkrMkvdXfhb1hde044MnqizX5EVGw8mjBN4Q+WupGjDW9WovWlfzTrl4j8eURNayvR8XlQk9z3Yqo+zigDHoiaxHWRtB1cFQ7Os6zRjrVsPXjhvKbBGbUmHtd+rOlcH4vLMuD22EjVm3E3FL3XBJWdCP13M0JtKTsTfWvEl8dq5uP9soK9rJQ3pVZrumcWf2DRuasL+LJpkB0N6dFPOZ8oYMxeLXUrVxpC5eUaGZUKLHvdrJ+bIxGpoVwLYqDHX7ahSKDaNUddK4q35XXcR+2jeYqn3R5L46Zi/tNI5qEriWEcRTK46JtNVVpGajkJbS8Zqrcd6XIsrEOXmORMZyMdOwzU2dDyftxJ06Zka5Qxp37S/NzrsNo0JYl0kbx+87t+jQeJeMeBRSZr51zuKb3k027uw1VJJaqcZh+zRmXH2s9t00CySnipUoWNSMvG5f2ikEWjfujP0RcdYhrRh9bWv6oBpxfSiqLDpvfpNEpeyY3LeIsmg9jea2RXjYnl4jfnqU2Ff6W5JxTh2PtZP80cLYn3byhm732TFvNfoId9Cfua28uI6Zt1kbhO2kM0tf5Xcd7kgY+1MTfsZ6PmXiS4cEWJjRnqawvZvYPO03V72wU39BxZC7ZN8gaCdNOjP2vcl52UnxSGoVl8w0Z/3d6jmac8hzMue1OFN7wdjo1+5xuOMsG5LaetYGhvEEhmP8U1aUmcPyd2vzGSPvDNk8NaQSx642NOsuBDePAzZ36Myypv16gFXmXW0/mz05Zc3b2l92XpltPukm8/CGOpZRljldsHVSDRv7c1Z9gsx8isdo7Dmds58XlUizBlaTsqJ1HtK7Mts1fe68RyMQAQ7cnUJodArpHyzPNW+so3g3hdnz88iob/Sh73fqiyY2kP2/cUyXRTBfGkfAtg+X8MsK8l/lUdwbQuxyHJGXgKV/TGH6hnwmeAOlH0sNz+duPGjRD8GJfLb7xBiSGEXi9hxCz+jvb9a9FBKX5jH/WaGuP1kfAi+PayM93hjD2OtJ5H+xfONBGYUvkpgS66pE+Lf7THj5i3nMfjKLxL/tH6T3v1vti2YslbUSVpZiCMrzLEfpOmPzfPZvZax8nUH+nheh8zOInxZZ661ZTH2QUr+78XMRpbpNdn0+HLUZd1xPn+fwg0mcffkQDhl9r7z6s+m/rNfFN43Xtx+elulzP/Y/59xns+/FICZkPLkRR6JuZNT8zVnIXgy+N0cQ6EUnht/Ecf5nCVN/GcapW+L/nghiJ0XxIFJ+5raWNiKnR+BVX9UZGsNZ2S+3PIWlLzvpi9GGe2kk5f6cizjmFX3PD6v9DfL5YmM/umdFGMsw3KSNn/JIXZ3G5JkRNQ5o/av2YOym/FTkjw/Ur9V6dh/22Z5eD7zPy79iby19QIoiH5Ln1HN+HKO9yhc71eU+R/8mR2yzY/QRziP3fcPZ2QIbdX3DpSbpbCODJbWvcgjj/9tBfyBjvcMRhP/HYa0/7ofay/mmKFvVN6yap/2m1jNIX5UvRH3huH2o+46fVdNE+e9LyPQ4SbZlp8cjWe7fmsKRF09pae60HD1U+6hqP/Y5pEPv3mH1b01cu5vW8umhcYwdtosT/Qj+9aw6UuTStbQeJzaQEftRln3l/+oU/wax/0X5d0HUCdQ3auwftA8xPO2FupcbnUSAah/W7HshhD8RdaNXZBj5EbsZ66IeUEbxP/JvyDEse+/hldnoG0bwbXmGU4hfq+s9K+vvsiwT8WPkYC8K7Q2s/5DF/OsBHPpApgk/4q+HRCwTqeSLhNp31/fWmP05eyqIsTNqTETyi8bcaVN6WGa7ZyoEEeBxmYDEgZU/m8Qh726tE6Jcdj+JPb4RnP1sRf/yPgzoAeDoXgKx98QpPhDH5AmHL8uJw32HMP5jGJn8AiZei2JmaRWKHHb/chiBB0uYHt2H/a9qDQtD3xN2g5e0so6ld+SUBzKjmN9kBcaD0et6o0kf1njs92lMhvYh8Pd8beIdiiJxPawWGtkPx7D/95Zw/S/ZwXQMM19WtO++6IXzkVkGD5FDcafj8H0/i7MvDjp3Qq7T1+/B4EsTWPxyDqLJpjbaUjUV9yKSr/pw6K0SwtkVLLwbQfSjRaz+uiYahTMIH6xg6YMx7PvTKaR+0FcRujsfTbQTdx4BoRbTUCg/JtRMxs7617MYeXY3BkS6O/XWFGZvpJG+nUahB3WLtvQFMGIM9HM9XY3TG2ksXJJZd9Bh8Jz21Axi8v/EcQ4eweRn4uD2hjH3RVwf1KmIgtpL2gfvH5wKNaPCJr4tCs5eWi/kkZYvPjiE3ca+1i9GJ/COKjFtWs9j9uU92P2H/Rh5dRxT/0ipcSD9Xa8jwToKefVIEfijQ2Vtx6nu8/SfLXlq3WJ0wG9sdG2Fdi56WvxHj1+e/Rh8Wn2nPcZ6t09VJ1ZvWPQBSERU6WnM/KGgXeAdEmWVU5IUFfv96gtRefpFfbGDbUc8qhsERpb7wUksiXPjPTmH9MWgWinejPUfi2qFGv5BhwaqYDS4bpf1Sm0B+dvybxqnjEEnbBZt4CmxxnakoScCakPOL7aX/N8xdYoqOen4xIFuGiQVVNQiYQD9bTYMH+kyW+Q/8maCWmpfWkC6WmgjfT2uxo+gaIB1W2rXDmKyG096h3HqQ1FAewKY+HwJUfUCxTpK36sxEcN7ncsS4wJFutzbwOllme2iee5E1DgwgeV8BonzomH1nFGp9sJ/OIxYMoPSZ+Na4+OYV70C5Ew0pC6JzEt8K3o+4hCZ1pE6P4Zk2YOJC1H4rYnvqUEEX5vD8rcL6t3E4tUIpj+rVtz6f683Jr4swvGe0S8lvUG4H1614NzAuhqRsqJiaZeJy5Ga5PcsFc8mM+WbftcHz9Ao4h/H1AZT9p0YUtYRgwTv8Tnkvl/EzOkQ/MaIj55BBI5H1MZs5qMR7T1RsWqrKdPXD+9B0Wj8eEJ8X2SCr883jhTUzN4Axo7JF3lkLDnP+s0pjP2rDM/bMUStmenv+kWjMIK5dAELp8Ue3ptH5GJ1Pr/uzoeTduKOy4nwHfvTWaTuiWhyMIx4chG54hrW1sRSaV7A9JLvWESN0+W/J7GkV9LWbyUxJaPMyTBGGkYv7ZYHg+I4o1eWUfp2DuE/GnFvAxvqxQdRkbQbwbfOxoZ+kaRHen9HuhNFzI/ux1n5BIMoPMMXE1jMr2pxQJ3zsoSEOpJwL4i8UT+/+/7QVg60A1T3uac8Xj1traDUbr3jhxWtstDORU8rY3Tiphf1bBjrPQzGtp8daGOfN1DZgmsevbVF8agZWfafjIrytISVK2GHkak7Y+ZVA0+20VBc08+Lkb/uLLIeGntb/w/CCDvcIW5NNGLVxusAntxs67mVHVJmYyikPv0mn2RJ3tJraL8sIak+ISDC8mjvLt55D4htXVxA7ttlxA4bAVxNTwO/byPQ71fEGr3TyzLbVY07lceP0Xdlw8q4giEaH5/PYeKEH5Vv02rG7nuxydUhYePOLCb/ISLTSzFEbB8REDZyyKiPdwxj37MO33kqhPDrsrQs1w4V/JRHe+Sk3CRiPFjTCqGhvvYfd9mMvfu0q2KimC/WNe6k/r1BRD5aQOZ7/QpQaQXL12dEQhxA8asF9TuRPw2qf9vV96y+zXLOdpvOdosGm/7StIFcVnsEbvj5fQ5h1o/Qq9qjHWXrUPU9PB9txR2Xy9+QjVuRFF9JIJOeQ/REEL5n+tHfL5btDJK9IwiflC/kI8eyaV7Ewicyjngw8crmrjbHaiYxF5UccZzxkwF4ao5PxBX1amARpTYqYH19Il730u/0nTmfseyrw3J9VE0XPfN1EpPqI6qjSGSXMXduFMEhrxYHtiAS9Ok/uXZ/x9fGTcY+18Yl+2Wh3ScAnvHqj+Ukkfm2vbDIZ2VqFU770FEOLvJgdVPrFXR0WcJY73gCJZtjrV0mtG4BvSICXb3g9n3J+UKeqQ+7ex9Ve25L4lGNuknMZdl/JY7wQU/P6ibm0zOlNfOiq7Mn9fMi/lEPJ4TEj5b9c1gmDsjvbr2NO1OY/Lv+H8jX2S4bAB54Dsu/Jay1DpRN2TFltqiZj/xNn7LskwX1gnrxM1F+i7+et0UZ0sZFUif1dzVXswuYOReCr+Y3+9Cv/7/0cxuB/l+7e5YGVD0ss93XuHNkmS/kaLP7KUUkzk+Kb/sQe2/MuRG4vq4XDuvNr+712VwffNqr39HJYsVhjq2i9jyXNmeb+sLyKKXtUr0SbmbyHVbYurpvYFxV8UwgZF79aFPXj0kUUfxSezVoXqlfx7p+pXr9QZMjEYmn4Yx0dT7stBl3XK2MQl47EWOvOPUB2S79CByLqK+WLqeQ/Xeyx8/tt+LFoFozzaNQdCooiljR47L3KZv081vrVFlxSEeeZ/dr8frLFbWQ3E7l73PaUwOvhB37DvSOB95BLR/I/7BFdytFGPf2vqrYZ5+W66S/7eXZ8SOoPo4MTH9S2x3A1oM0EupjykD48HBnFzyeHtQuit0uoNhJ7XWvD+qzHjdyWNnutvgzg9oFxbtin50uuNxb0R6NEunXs4nKpL3exqKti0fbq/8PehmcFedFfafRRiGn3WE+LBo96jtiHfUJnhRyhe2OSA5EfWj82KSoSYgG57eLZv+7ydvd7N9u7FYTpEO/5J7ZSWW2iAsHQ1BLbdnt5t9ZJNV6uw/jLwd625Cy1Y+BZ7X0lPmPY0zESl571iHgsalht1NWOJTrvSyzH5PG3Tqy70cwflcEnu1k0lXrn02rV5xlJ+FIs+ekPV7sV6/KpzF/zenKTBG521rBGXzaEglkx9Fz8kUasze1z2uJhuhHWvESeXH/NkRoEV1vL6hXR2RHc98f1Ret/VZE8s2Iul5QPgrb4Y4Wbye0zHpouKM+G3JfZ2ReJBqUgf/W3hP/qRZyV5LIOmSGxa+0u7d4ySgghB6dj7bjjqtVr3ytP7BPFRvlxkGGtkr/4ZA2sMrdOELHZcN7c8/td6Yfw4drr0LW27iTxLx89EbE5eCL1Tjj+YN2CSHVZAAEzzPagzKFokMxMBTAmMyjbk9i8tpmi4rOmFfiHTrg40GpYWCjzRj87zH1b/qjlJa+G1QcG8FNPS0a6PLvzRWtsdpDvoNjajxMvzeJpKUP8Gb5Toxrj1DdiOLs/9X1oa4h8u8zY+rAT7J/cORYhxfnPD4E1DsL09VHqOpVbCox/cMIqHfURX75Qbd3Nbpkbnse8zdtUySy1+bVxp3n7SCGe5aNi/JJbYiIxksPz7W0VfFoWxl5lcinE7YNoSJS/0qor4InAnoDpJq/Tr837Vjmbx9ZHwpjtiz72cUx+lzQ7H83/ddwF+dGxBm1Lmb/NFXv7KwyG/0BhNSBVfKIHxcNY/no7UsRhNT69tYz0lP+UgJpuzj1Qwrz/5Ivghg9aGkKt1FWtCzXe1lmK1tsu6ZCsKXOb5RQYnJaAjlMqM2klDUqGSWmDsfbOAeLHXNeFniUwLsL1TlphEpxWYkb27UbUtUYAt2Ya8cYRtY6p8uQ2N+2R32tDvlqN9R35sKgMno+oSzKOafMiTOE+6tK5krUnFjSfyHnMKSwxf2SsrI0o4T1SR7t528R+3NSmzclUyjVzHNV+XlFWTSnj7CbB1DOjxVXEukVpdSwrxE93GyGsv5xQZsmQu7TwQlloVA3349lmw3DLW/2fHQYd+wYw+Q+6vPcmdOSHIgoiXx16GM5X87Cecu0IXVDBrc31HgbQ4rXMSdpVpdOJkCtZ2y7g+H0LfPceU/OKJkf9QjUYp47OYS2OhS8Z1SZs4ShlTndw4EJZdH43Tpymg8tj5LTgCwqK5Z5oGT+WCpklIXLESV40RKabQzp3JI5THpdepJz3KVilqlK6oa9bmPbtlNAmOnPmE9Qf1+Gc3ZOiVompG373KlWlTl1KHWRT31sncfUott9tgzvrk6bsyTyO2s+uSby2eyCMnM6qMQ72mex10mjbNLmPlu05oX6vH/VMPGL/aqPP+2lMzPPUucmq84tWJvHi6U+bMz8Vs5PNqdkrHOziXO2Vswpi8mYMvo361D0nad9O9V57rxK+HJGMZPEls5zJ4dcl78r4ufbi9VtWu20eNTNtBptnCOncKzOcxdQJuQ0SXpaaz7PXU6JG/OOHYwqc1nLvGCCnMc3tyTqgCdEvm/JZ1pOI+NwLprFAXMKjbrpE4z3O55nUNiuee52WpltTkegL+FUkykUmuogbEyWee70eqSmxTx37ZQVbZTrvSqz3dW4MyNu4+I9PqPkWsSP1Y+1CO4z5ihpqSIaTdpk3PXbM5e9YYf5Kioi0RsFic0iCst4vr290LRo3OmZWbPFe3LBPvMxM/n6RRbMYh27SGzZH+dFrH/BJqwdt2cssjG9XDPfikFOAGk0VO0XUaDXz+6v2tz56DzuSEam12yxm/NlK22+oJAF7oylMl2zyEmLL010XHBWdVFQmA0NsRhz2XSler46aiAUF5SwZd7F+sX/2qJNurNU2GoW63FXKzY1S024VpSVK+Fq4ey0WC8oOFRsOpW77JQ3ynwjrkyo89z1qHEnmJO/2iyegyEl2M0k5kK1sK1dzN/ZxD4r91eUuZP6RcAmS6f7LK2mqhftHBdRPs0V7HKsdtNZdW6vxkVUTo7rlUabsFn7fKL1/tWs10Xad7B6vVma8CuRTxtT5OYad4LZoK1dzN/bafFomxt3Mq9qWp9yKoN/XlYmnMobc6nNZ3rduDPzHk9EWWy4eGgz/127jEZO04ahC8tscbTGnLGbuyDbTeNOuC/2uUmc8hyNK7n6GzZCy7KirXK9N2W2ux7L/F0/BsxRMkUV4rkAQqdnsFhYw+r1CHzNnjr5ZQnT7y2JlSKInW53zp4++N9eRkEfSbI6Qqc2ep46QmdhzmHagj743lhE4asEYicD0LuMqPscPp9AJr+I6FDvHu3znyshl5rDhNzPAyLaGPb6ETgZQyJbwuoVh+etRbiao2QK3gP6Pv5YxPIlsY7t8NkejH60guXkDKLi+KphYzkv3xew/LZNWP93BCtLzvu6kBfrnQ/Y9g9RR0wtrGLxcgShg4Pmo5dmuJZWMXfC7ig3cT66ijtu5kPk8zyWL4bNeFMNx2XEj+/T3twue0V8OypfbH4gla48E8LcV3qcNOOzF3452my6hMzloE2660fwcm0YqqPUHe63xC8fordWkDgXNOOrmkaeth5hHwZPzmG1pI8ibElPWjqcwFwqh9I5UTXpMd9ry8in4wgb21RH2ZN5jTiuS2PY18mw+22QaT9TEvHLTL96PpxaQSE9i7Fn1a91rP/oTO1xqL8r8p9e7P8TgwhfWUUpq+U71XxWbiOEyLtzIr8rIdrFYBDeY3EtL7wSRfiwvxrH9JGO43r5VB3dtRtejP6zgJVktBq3RRyU+fuyyGsX3tSG6bLTfzhmm1dr+XwUM8llrHzU44F+dLYjQJv7ncFMD0flMw1FsfRtAtGj1WOVZam3B6NNbmU82j5afSqvH0NtGbyAlYJDGfxUALF0AatLM4gcr66n5rGHw4heToh4No/RTqbr6MRPKYTVfnY+TNwwpsGxEmnk0rw6cnr2PVFH+HcHDyIbj+ndSiHtMB5Ab+ywMluEWeC4OuHVpgdS6coTfkyI8MgkYwibeZOlPPk0Cp9Num1dVrRTrvemzN4lW3j66y3xzTff4IUXXtD/R0S0ze7N48izp7A0FEcuLzJl/W0iIqKdrHj1CPa8ugTfxRxy5x6X0quI+eAenLrlQzyf0+ego048RqNlEtHjKH9zVh3mefsGUiEiIto87/GoOupm/q0Ykls6sMoOcjeljWy9jQOpuA0bd0TkXhtpLKhDvfd2AlQiIqIt90QAkYsh8SKF6DtJ21GX3WUD6etxddTj8N9Gqo+TU0fYuCMi11q/lcRU+SE9t09ERLRJ3lfi6jzG5X9Ft31am21nmTt59KVt7yHvGmzcEZFLFbHwiZyFcbsmQCUiIuo1L0YvJjDqKSM5Ooazn7m3gVf8bF6dO9n35kjHcydTFQdUISIiIiIicgHeuSMiIiIiInIBNu6IiIiIiIhcgI07IiIiIiIiF2DjjoiIiIiIyAXYuCMiIiIiInIBNu6IiIiIiIhcgI07IiIiIiIiF2DjjoiIiIiIyAXYuCMiIiIiInIBNu6IiIiIiIhcgI07IiIiIiIiF2DjjoiIiIiIyAXYuCMiIiIiInIBNu6IiIiIiIhcgI07IiIiIiIiF2DjjoiIiIiIyAXYuCMiIiIiInIBNu6IiIiIiIhcgI07IiIiIiIiF2DjjoiIiIiIyAXYuCMiIiIiInIBNu6IiIiIiIhcgI07IiIiIiIiF2DjjoiIiIiIyAXYuCMiIiIiInIBNu6IiIiIiIhcgI07IiIiIiIiF2DjjoiIiIiIyAXYuCMiIiIiInIBNu6IiIiIiIhcgI07IiIiIiIiF2DjjoiIiIiIyAXYuCMiIiIiInIBNu6IiIiIiIhcgI07IiIiIiIiF2DjjoiIiIiIyAXYuCMiIiIiInIBNu6IiIiIiIhcgI07IiIiIiIiF2DjjoiIiIiIyAXYuCMiIiIiInIBNu6IiIiIiIhcgI07IiIiIiIiF2DjjoiIiIiIyAXYuCMiIiIiInIBNu6IiIiIiIhcgI07IiIiIiIiF2DjjoiIiIiIyAXYuCMiIiIiInKBXYqgv94Sq6ur+isiIiIiIiLaKlveuPvmm2/wwgsv6P8jIiIiIiKircDHMomIiIiIiFyAjTsiIiIiIiIXYOOOiIiIiIjIBdi4IyIiIiIicgE27oiIiIiIiFyAjTsiIiIiIiIXYOOOiIiIiIjIBdi4IyIiIiIicgE27oiIiIiIiFyAjTsiIiIiIiIXYOOOiIiIiIjIBdi4IyIiIiIicgE27oiIiIiIiFyAjTsiIiIiIiIXYOOOiIiIiIjIBdi4IyIiIiIicgE27oiIiIiIiFyAjTsiIiIiIiIXYOOOiIhcrozky7uwa9cuTN3R3+qVn5IYEb+76+Wk2MqjLospeSy7psSrR1f52oh6rkeuPfpnpD0bKNycwin/HvW45TLw/FksPS6H/6j6IYmxAXm+hnH2s6L+JtHmubBxty4yuWmc/cs+DOiZ3B7/CM5+mEb5N/0rNYzCrL3FtrAoZ5F8/xQOPT+gf28A+wJym0soruvfcbD+XQpTrx7CPjWBywz5EE69n0S200zZzCScKy/r/0kj+eE4Tv15GHv049H29RTGrzqFj+63MtJXxbpm4aGtN3WzIELcSbVC1XwZQfInfRVd9n277zUu7VXUNsTvDWvrNK2AraN4axZnX7aEz7PDOPTqFJJ3mp8QeR6nzxwxz6Ncb+TMLNLNVvulgPS1WYyL8z/8rL6eWNQ48NZ883W3TPWctawYGZXaR7wi2D7nvGKPv8t066CdyqmRRnreWKGqR73h9psoD2/NN+Qxanx9a1bka0VsNMv36RGwgfzfA9gXmsS8OJ+G8nclrHdwbst3kqIMG7HUY8Qiy7+Xz2Lyagr5nzb0b7rHw70IUETyrTEkyx6MJhOYOerV39cY+9Y679nCC1c7knO9UtadZL1r6V6Line72sj/d+yFJGWLff311/qrbXA/p8SPehR5WLbL3rCyUNS/a8ooMbvvOiyhZElfT7P6aUTx23zPXGy3qVlNjioeu3Xk4gkq8XxF/2YL98UxHKiuG8vq71v9mFBC1t+3Ww5ElEW7fS0uKhHL79cvnoMxJXNf/26NkpI4br9O7RJSEj/qq+gy5+2+17jYHmudmnA+nhB7ZaNV3IFHCVzIKI1npKLkLgWdzyO8Svj6qv5dq3bCxq9EPrVbdytV96s+rjcw45Q4//pb7tZOXuF0vjtTSobU32t2Dow00k4aoGq87ii8jDjulG9I7XznIVj7akYJ7dWOuemyN6jE0mv6WkYcf7TTdDvpxzV+XlDC8px5RpW5vHEeO/DrqpI46a2NEw6L92JOX8kdHmY8Wf2ntm3PKwu2+Yaxb63zlS7ztkdWO3Unp/pah9rI23dqXuOiO3dlpM4EMf5ZGZ6DE1gorEGcWNl4RaW4jNhRUf2+N4+RE1PI11yA8mNC/17TJR8X36wjfu/sX2aRhQfBC8tYvW98v4K1wqJlm9PI66uY7k5jbFReDfAjksxh7Vd93Z9zSLwmtlRewvjp2cb1GhSRPBPC5B0PPGJzzvrw5Iko5lI5rK5Vw0b5tYLV7AxG5bp3ZhG+tFR7J24jj6kTRzB7R1RbT84gU6xUjzGfgGj0ofzFJEJnUo5XNiSR6ejr2S0LGH1a/2IdkWBsvl9dJsT2m9m4M6WGc/PA2UD6vBZ3RAMXibwlfO6vInMlIs5SGel3QuI7tVeEyjfCCL65hLIngInUCtYq1fWWLwRFzChi/uUxTH3deNWzr38U0SsLyBXXquuJpVLMYOYVub9ZzP7vNJZ6dBGKeqc+PldKIt2+EWh6vom2i8z3gn86i9Q9kfUdnUAiu1qbx6ytIpeaQfigLKOWkCszvj6qNvIZzIu/gfMxhIf6tTfbto6l14cxdrUI7A0hvrSCklmPkfGkhJV0ArETgyJvE7WNDcaTnniQxuxbKfEihOkLITVsqXP19UOZry1fDMGr19fCN3bY3bTtJAJkS23XnbtKekK7e+KJKIs/629aWe5uhVOdXt0yrhQElbnv9beE3CWfdpXgtUX7KwT3F5WI/Bw+JZ7X31NVlOW3tbtEPtsrYTklPqTta+TTZvtaUTLn/eJ7HmU0mdnU1ZvKUkRdt/6K7eqVoPb+gbjYKxvFhCIahuI79ccodX9FybgrsamrIca+HRDHtBTTjsPuCsyacZ4CykxBf6/OykcBbf3Ti4p5RirLyoR67B6H82ScH/GdkwvV9dphxp3tvhpXPWctw/4xvnNnf05Euj6n3/21xpMu8M5dr3WZFz2Kd+5+FnmHmi9B8b+93DIerqaiSvS6see8c/eo2dSxfj+nBNXzXVu3sbP2bUKJfsQ7d71g1Kt8553vLhn7xjt39VrXUVY/1uutQw711nbxzt3DV7gzr905+tsYgk+pb9V6wo/IW2H15fzNdNO7TPU2bscRvSGq8OeiGNurvylsPNDuqwWeH0Sf+qrOE/sxfFy+KNX1a8gj/Xe5BwFEjvm0t2r4EDoTUF/NfpmD07Wy4rUwQu9l4T+fwvyJ2ue1O9X35ID+yqqM/BdL6qvQmZDYKxvPjGL8TflJHvFbre8zbpsHWUydGEMSo0hcm4D/Sf19Ow/WxRmSfBh8Rn3RYNCnnQ882Kiej++ymFcjUhhjR+2umPbBf3pcfCpcXeisD90TT8LujDwq1u8mMfvWKRwKVPu+7tq1B8N/PoWpa1nb/p31z66Xv5it6Ts7pl6FqxvwYb2A1Punqv2JBqZw7YP96usj8mq0ozymfXKdI5i/p7+1aX0I/EXLY/CPPAraK816EUsfnsWI2WdVhMXLZzH7RX2k0PoTDIzKq7pAatTS/0Vd5HFrYTD8nvoVTPqtn4vFrn9AOY3ZMyOWcNqn9iVNfWdzW7i+n4G6rqU/6V+b36U3/ZLX+/hW+xTLpWn/xLpt1/dJ3uM/hemGMLOSfa6ncMqMd3rf4GsZlDrsW6bGxz+MQT0TN8Ys8VhbHPs2d7zPely39PXV+l6nUOjirn3+6iRm5eYOxDF7IYBW93K8x+KIH3e4d1AXbwaeP4Lxaw79rDd9vuv7y4tz95dxJM04Wt8nWn5+FvNftwgk2V/cmvZE3D9yZhbZX/TP7ej5SrX/mVN6lVrnSZ2UjOv3lmrTqmP/bW27TnlFW/2vfilDK+GHsc9St7HT/9wo4qdtawEdhpdOnJfsNWta1eP9W/NI3S2b5Wx75UJVe2mpnXy2quGcqPnKCM5+kES64/5deaQuy1APInLCb1937JUe5MFO+X9tn28937WMyTCVnMZ++To4j6YlcVvldWe8h8cgGmXA3QwK1vEcGuKc89gRrfP/zuKQajvzFb2Rt2W2686deafnn036u3w/p4gquvheJ1clc0pcvePX2C/MvLIi7wzZ9TmrLCtR+blnQlm2Xp4x92PCeT+y+p0mhysPq9fDimjOKZ5XEop2xJu7emNc6fC8vWy5klT9zYkv9bdsVD6PavvacHWj+33a1J07eZf2oLyD4hfb1Y/GCE/bKzDi+/oduNGkffxZ/Vi7cxe8Yvnc+M1jxjmws6rMHe4iDIwrqvVxZ8u1vipmanLnzjh/Tovn6IySqzsu8wrYR4vKnE0fEG1/jDsLE8rC5xNKQL9DUV3Evhhh1+SqnXmnv6M7qq3u3AlGnLCGSXFBCTfp++R/bdESf6rhb7/I363uh+1SF8eNvML2u3Zx3rxaOaMsXrFZt+WVZJ0ZFg6LJ6jM1PcrNrZ9bEKJvxFw6MvqkE7vryhzrzTrN6st7aZDM393WMzf2cw+izO/0Ky/k2dUSTj02bZXfeqj8ydUJCNuRZT45ZBjvPHb3XHYzPkeCiohNc+uW0dd/MrElTkl2uTz2Fe1v2ucu8DpqHO/Q4ewrYjjaMxXqkvjsbeRJ+nfbKV5Wq3vg908H2grnn8V0+NrWFmwe+KpDZ2Hl/DzsjLheD7lUq1vtVcuSJ2kpXbyWU3zcyKWdvNDQz6uiCaygpfmmtQbLPlPy99vUs/aTJpskf8bZfzEdftzGcuKus9L8rXdU1068+mnTuJfG3UU4xis9XazXqitW794jor6gqUe3zr/bz8OSdudr7iucee50OQmrHnCR5WFNlOjcYL9l2x+t5JTZoxBOPaGlFgqp6z9qn8mTpP5yKT5yIvOTHBNTo6RAdh8R0YSdRCXmkZlkwTeRGVtVVm+qBfiDY3U6m82HIOVcTyeWF1l2iHyewaVwHFReUitOFas7RsHXsV/OKxErywrJTOc660qCbWCV1eZMvbRIaMsLRkD43iUwN9mlOUfLcnM8nhnTYPE8bit2gxDQ2VNWU3H9QqJpXG6bar7u6nG3cWgErm8oOSKa0rFcq4qpZxZAa9pKAvWzNRzMKzMpFdr1tVYKzReJXRebOPn+jBaE4W8/NyjTKTtws/4vNVjz/Wq23ZKY2uf6o83H9YLbpFHGI+D+19LVPf114o4zzElqGfYwY/tw6LZOTDSSLP0buYVIn+Ki/BcM4KjZvt1j2SZ51UsnoASvrysrNoOmNRCNq4ET88oC3mxXev690tK7mN9kKP6Ck7DtheVFTPM1qrrNVz0EPntu/pj8gciypwoeM2PZZrKzikRvdHTSf5o7k+zCtZm9ll/bNt7PK4sy7Sif6LcF/nyBX2gphaVwBoir9L2pfFiZHvq01dCyRSNvaqIfHJCzydtHuPrwfmOXslU41qlpCy+rT/Wri5ify5a4qI4r8sOj71b8xIZtosFER/0vKTy47ISM8rt+vNq5PVyX5I5pWQeR0VZyyf0gcXq85V28qTWKqKhpYWtaMSJbZtp1RoXbMK9nbzCkVm5lpXbmAinDi8IdBVeRqXfZpsirqykE0rshKjs1zXu1O87lgvdpaWWYSe7bKjh41cmZH3F/FFxfKUVZTkZVyLn7AdEcWIMpBKoy/Prmce9qcZdL/Jg+/zfWkfzHo+JbVjCXLeWCquf1940qDI+76wbQxt1FLP+HNXz3JKyoNc7ZJxbtuRp1XgqPjtXt59t5P9tpb+HkK+4pnFn9g0bmnAYuVEwI22bBd/9ZSWqnhARQZx+89dStXGkn4Tg6QkletyrVai+bIyyZgWwrQpD3b4akaRhFM4mCbxB9bvqIvbTvsFU7Rso99UxKzIaOQ2V/Lrt2CxOI23aN+4si+0opNUGdcNISS0ad5Lap8ByZcfz3KgSfTesBDzi995IKCv1+2n2V/ApE186Jbo2MiLBWoCpCfncnLLcJK/YOq3PWePS2LhryqiA1mXoRhj4zi02abwbGV5ImfnWuThwvpssdH1XtFXjrlppMfrSmoWXUwVdFEJqha5uX9opMFo37oz9EXmIw90fo6+tz3rxysh7hqLK4pbFwVUlcUzuW0RZtJ5Gc9siPGxPrxE/PUrsK/0tyUyLTsdajddb1rjrdp8d89aKsviaXK/Jle96jnlxu6rpa84hzmTOa3lkWxerTF2ebyOvQFhJ2G3OeDqm7ikYI/0ELq/o79QxRphEwNJYMsq7Jvl5YUZ76qYm72ovT2quesGp/kKPIXdJa7zUV5Tbqlw2YV4AMhf9IurFGSWxlFFWSk6ZZHfhZeaJTk881WmrXOgyLbUMuzbqDZ3KvCv3o/nTUJKxb50sHeVtLdNk8/zfKH9CHzlfpK+mT7s6t1E+OV2EddKqTmXp+25c9DEae051ebOfssOFzibnv3X6ezj5imv63HmPRiBODnB3CqHRKaR/sPRU21hH8W4Ks+fnkVHf6EPf79QXTWwg+3/jmC6LoL00jsAT+tv1fllB/qs8intDiF2OI/ISsPSPKUzfkM8Pb6D0Y6nhWd6NB1oPr45Z+5HdnkPIoX9Yx+6lkLg0j/nPCnX9+/oQeHlcGyX0xhjGXk8i/4vlGw/KKHyRxJRYVyXCv/b5cQ9Gr1dHMjIWOaKRNgKlfD5+EqHz6brtAv537dYrYWUphqA8z3IU0jO1z3Jb+yAuvt3ps+zrKH2bQ74givs34pg5N4onf0li+n1tvrlSuYTSA/2rhr0jiJyWO5PH1PERTH1hnTNqA+s/5JH6cBLzX2rvtI5zhiJS/5rG/CcpFOq3+UjZQFmku/kPJnH25UM4ZDz379WfY/9lveG8S17ffnhahtV+7H/OuTdR34tBTMhTcyOOxF3tPUP+5qzaz8T35ggCvejw8Js4zv8sYeovwzh1S/zfE0HspOybso7MbS1tRE6PwKu+qjM0hrOyX255Cktf2oXGJtxLIyn351zEMa/oe35Y7ZuQzxe1/hVWz4owlmG4SRs/iXRwdRqTcg4tEQe0/gZ7MHZTfiryR7s4/uw+7LM9vR54n5d/xd5a+tAVRT4kz6nn/DhGe5UvdqrLfY7+TY7uZqcP+/3q2UHu+4azs8X2Y59DOHr3Dqt/nebH6+n5fsYr9kTywmsXF/u8GDwsXxRQrJsrVep/yqGz9VMBhE7LF2mk83rYbmSwJPvCH44g/D8OGcMf90NUwoCbosxX37Bqnic1tZ5B+qp8Ieoxx+1jg+/4WTWtlv++hEwPs4q+AxNIFxcR10fElOVPVuRb02+dxVhwWOTZuzHw/Fhjv9GuwquaJ4ZeD8PvVK+y0axc2LK01NenjTVwYwGLP6jvbFIZxf/IvyHH9LUVukuT7eX/+32Dzv16+4YRfFv+SArxa3U9xGSdXJZPQ+MYOdiLgljWubKYfz2AQx/Ic+xH/PWQum/5LxJq/zTfW2P2dfmnghg7I/dzCUlRj+uph5SvuGcqBHFy4jdjCIjzU/5sEoe8u0Xk1Tse7n4Se3wjOPvZiv7lfRhoFWnvJRB7T0SHA3FMnnD4spw43HcI4z+GkckvYOK1KGaWVqH8vILFy2EEHixhenQf9r+aqjlhfU90M1TGOpbekVMe+BG7Ob/JCoyl0fVrBaV8AmO/T2MytA+Bv+drK9xDUSSuh9UMM/vhGPb/3hKu/yU7o45h5suK9t0XvW0NAtLX74X/5AzSn0fVwqT8QQrpNvok9/V7MPjSBBa/nENQvnFrFimj4v7drDblwSsJJN7ttGEnJzkPYt9oAp5LGSxfiiJyMYGVkgibrIgHx3ejcG0ch8S5nrpjDZ1+BC+mEJPDiZeXMBnYg93/Tw+bXbvxpHc/Rl5fhBnr/uAc6TwnFqqNWDms/okBpN8bwb7D9VN3bJ9Qi2kolB8TWqdlG+tfz2LkWVEpEOnu1FtTmL0hKlG30yh0UK5uSl8AI8ZAP9ctFw820li4JLP5oMNgRu2pGcTk/4njHDyCSTmVxt4w5r6I64M6FVFQe0L74P2DU+ZsVPzFt0Vjt5fWC3lRdRU+OITdxr7WL0aH8a0Y4nw9j9mXRZr4g0gHr45j6h8inYs4kP6u15FgHYW8eqQI/NG+arfzVPd5+s+WPLVuMTrrPxITjW/b+bbajd1dtaf6MaDnx4Wf9Iut/9HTy+1T5mAcjcswJuV3xCH1NMX8UNAuPA+JMtTpeJ42GrpFlJsNBtOFvmeCiCZXUJL1gYIoA1NziF+MInxQa/CVv0tiPDCAYWv9oKvwquaJw4PO5WFntjAtDYXUC/aycXLKqw3gM/mhaEjeKaDc1YXXCipqNj+A/nYbtscTKNmVv+ZSQkIduM/GQ0mTVtoNArUkvrSAdLUgRvp6XG1wBUUDrNuSuHYQE1nnGsapD0UEk1NTfb6E6JD81jpK32sNy+G9zuWDcdEqXe5x2DykfMVF89yJaHRgAsv5DBLnRcPqOSPjEA2Jw2HEkhmUPhvXGh/HvPoVKieiIXVpUrThPYiejzhEvHWkzo8hWfZg4kK09grUU4MIvjaH5W8X1LuJxasRTFvmR+v/vd4E+rKoj9Jo45eS3iDcD686B9wG1tVIlxUVS7sMbABjN+T3LBVPu1Hz6v2uD56hUcQ/jqkNpuw7MaTqroB6j88h9/0iZk6H4DdG1PIMInA8ojZmMx+NaO+JilUn2XXf4RFtJEnMIq9ezWrT3gDGjskXeWSM1sKDdXVEofK/xuwTkF9NOjWjHpmjid2dReQ9sfZLMcRqRh0VYXNgFBPXV5C7JEKnLBrAb9TNPfiEX2QiYj+SMbMglLwHAgifTyBTWsK4+mbI/sqzjT6PD6OX5hCThcqdSdGY73Fms9XuzWPMmGPrYBjx5KI2l9+aPp9fk0ZhL/mORdQ4Xf67KIz1ytD6rSSmZHCeDGOkxehw7fNgUBxn9MoySt/OIfxH49LCBjbUiw+iwmY3gm+djQ39IkmPdP2EQE8UMT+6H2flEwyioA1fTGAxv6rFgTU5V2aTCknHRN6on99mF1B2luo+95THq6etnO2drK2znee7Nwae0Spz+Qd6dWpjozZv307Gtp8daOMC6QYqvaoB1pP1gT/6ETgm8rNzccylRYOvUlKfhJFq6gddhVdneWJ7tigtqbwIi0Zv4lxQvCqj8Nkspl4fwxH/Pgz81y7seXm6+airDcoo35Z/B/BkVxclOrFD0qTRQC5PIXlLrwf/soSkOmJ8GOGjvbsg5z0gtnVxAblvlxE7bARwNX4M/L6NQL9fEWv00EPKV1zVuFN5/Bh9VzasjLsOovHx+RwmTvhR+TatBrLvxUGRUJ1t3JnF5D9ExBOV/chhh3tAGzlk1McohrHvWYfvPBVC+HVZ2Shj9q5lYPSnPNot2HKTSPRgTYsQQ30d3oXq0t594kiklP3jLXuDiHy0gMz3+tWi0gqWr8+IRDuA4lcL6ncifxpU/3Zit/63M2Ktth9xbK341ZIW1iLDto8XffCdCGNUvrxTN7Su9DsP/CcmtIJQv5q2ml3G3Luj8D/IIS0Ls6Fhx2kW7HmxTytPRSPJet9358vfkBdGRFJ8RTRu03OIngjC90w/+vvFsi2RWbd3BOGT8oV85FiGYRELn8hHgjyYeCXYcoj4ZmI1k5jLiX7nED8ZgKfm+ETaVa8cFlFqowLQ19ddanAkKmqq8xnLvjos10c7ujDT0tdJTKqPqI4iIdPCuVEEh7xaHNiCSNCn/+Ta/a2q9faesc+1ccl+WXB6eqSefIxR/WoK6a96eye4qW0+371QvKfdyQl49LAVZYr6quWdErlMaN0VesV4/O/7kvMFX1Mfdm9nkPZ5EHwvhqj6H0v9oKvw6ixPbNeWpCVD/yBGLy5iVb+ruZicQfSkX60rFG+MY/hoJ0/XeOBRHyMuYW2rk+eOSZNejPxNn4bskwVx5kW4fSbKZPHX87bYp0008uufLlrNLmDmXAi+mt/sQ7/+/9LPbQT6f+0Wa/TQQ8pX3Ne4c2SZW+Ros5vARSTOT4pv+xB7b8y5EbhuzI223vwqWp/NdbinvfrdwCxWHObYKmrPLgCHfdCaTPb916pL9SqMmcF1WGHr6r6BcQXGM4GQeaWkTT8VkVNftH9XS1NEUe/HNmhcqT8wURcedUs2pn3PksAmDmhvrf+iPzjZ7IqNKD2aTZXnxOjf1dWjB7/qfx8pZRT0Pixjrzj1f9gu/Qgci6ivli6nkP13ssfP+LfixaCaU+dRKDoVKkWs6HHZ+5RN+vmtdaqsODxm5Hl2vxbnvlxRC9TtVP4+pz018Eq4d32DHXng1R/xyv+wRXcrRRj39r6q2GefliOkv+3l2fEjqD6OLCpSF+e1i1bbYHvPdy+UUfxWe+V7Ri+j9/qgPoNyI4eV7b5G8MygdnH1bgFFp0bPvRXt8S6Rr3h6dterTX27G8u/rsKrmieaT91sWg/SUhv5rHFXM3gigviVDFbXljEhG6p3JrGk3o1sh/EYsUM/tx7aSWmy/2AIakksu9L8O4ukWhf3YfzlQG8bUrb6MfCsFj8y/3GKHxtYyddd7LFqJ/93ikMPKV95TBp368i+H8G4SID1E5HXW/9sWr3a4TkdQ+RAk2jn8WK/egUqjflrWYdGgWi83NaK1+DTlggjO5meky/SmL1pV/yKhuhHWjYeeXH/NkR+EbVvL6hXUmSHbt8f1Ret/VZE8s2Iul5QPgrb4Y4WbyW0/j4vBeHvIPOR+zojcy3RoAz8t/beZnif0x8r/dc8Ug6dpje+SkO9P+kZbLtgXf/3FCJvifPriSLq0Ene0QOxvU+0l5Ghzu+IPjzVq2TrxuNOdTbKjYMMbZX+wyFtYJW7cYSOy4s2m3vGvzP9GD5ce8Wy3sadJOblYzoiLgdfrCYgzx+0c55q0vnf84z2AF6h6FBgDQUwJvOo25OYvNbLBkRrZr9ih0Fz8KCEUg8jweB/j6l/0x+lHBo0FcdGcFNPi8qo/HtzRaso9ZDv4JgaD9PvTSLZk8EaNL4T49qjmXfGEXkn3TKtlb+YwmTdRNCd2u7zvWl3E5iR3Ris6a5/GAH1Tr+oA3zgVKZvEXPb85i/aZtTIHttXm3ced4OYrhHlYLyjUlMfVGdMNzJxp00FtVXlvpBV+FVzRNTl+eR7VEDp9u01E4+66h/H/Y9q79um2iIquFn/4RUL+2oNNkfQEgdWCWP+PEQJmVj+KUIQmodeusZ8SN/KYG0XZz7IYX5f8kXQYwetNTV2sj/W8ahh5WvKFtsu6ZCsKXOb5RQYnJaAjmkaKuhdysZJabOhWQzh4+N0nV9nhA59P67C9W5jYRKcVmJG9u1G37VGALdmNPGGOL355ySeE2fu2dI7G/bI8Q2H+o7c2FQGT2fUBblfCfVyVrUOWAyV6LmBIn+C7maYZZtyblolmaUsD5tQHUi9Vql62Fl9NycNseKZZuVn1eURXPeHo8S/bxui+rcLHElkV5RSg37asxH5zxktK1mQxpb5iKTUyzMZC3z6Ig4lEtWw6f1NivKWjGjJM4b02M4zFUn9mfwRExJLOWU1TXL/DBy/rGsZcLe+rn1tlyrYYYtjGGC64ZdN6clORBREvnqEL5yjrsFM1zEUncu2hvS2xgeuP2h3nMX9fnP1KX7yXqr2+5gyGlL3PKenFEyxvyJLea5k0N7q0Mje0aVOUsYWpnTPRyYUBat8zJayGlXtHQm5whbrB3WXMTtUiGjLFyOKMGLltBsY/jnlsypCeryNzm/UipmmVi6bojsNrZtOwWEmXcb8wnq79enp/r1WlpV5g7L9TzK6MfWeUwtut1nZU1ZPK3vl5w2Z0nkd5ZyorIm8tnsgjJzOqjEO9pnsddJo2yS081ElTmRp1mzUjm/aS41o0Re0sqoapprnb5s0+mWne9W+2PkV7W/a+yj75W4Wv6Y+Xldugv9sy7dmeWynP5mTslY50sT664Vc8piMqaM/s06t1nneZKd6jx3XiV8OaOYSXUL57kz1lWn/bliMy+piCfW+kFDPtVNeFnyxNo5x4Qm89w1P74u01KLfLaUDGvzxGXr6iIi71xJ6XM+eiLKYgdlyrbNc7eFebDUeiqeOsZ0BPoSTnU+vL+mgzqKyTLP3cEJZcGcW7HFPHft5P9tlNUPI19xV+POiJQ2i/f4jJJrEZdWP9Yqpb6GmeKdVESjKWAWoraLaCzYz7tUUXKXjAzbZvGITCjf3l5oWjTu9ITYbPGeXLBtpFXnTqpfZEQV69hFeMHMnBwXUYhdWWkMa8ftGYtsTC87z61ip9V8NcUFJWxmdnaL2OaFjM02q+HesIhCZuYrh71seYxisZ3Lb6t1kHGa6a0+88kpM5bKdM0iJ/G8NGFbeLRXiHeR4ZmFnFjqJjvujLHtDhsILeKW/7VFm3RnqazULNbjzilx46KEdakJ14qyciVsmYfTYRF5nqnNwr2V3GWnvFHmG3FlQp1jqUeNO6Fxvq7q4jkYUoLdTGIuVBvItYv5O5vYZ+X+ijJ3Ur8I2GTpdJ+ltc8nzEp500VWhrNGqmidvpzS6dac71b7Y+RX9o27Zov/bfsypK1wq9nfzVXCrFavN0uropL+aWNO0V6+aa/0aRt5g7p4ldBlUbnV17PqPLyEluVt9Xy2fXxdpaXm+WzreGR/TpoyGjlOc5/qzG03yVc0znW/rcqDpY4bd7KhpM8Du7mLrB3UUazui3TqVC8Ri+doXMnZ3Pxpmf+3VVZvf77irscyf9ePAXOUTBF9n5Nz2cxgsbCG1esR+Jp1CftlCdPvLYmVIoidbnco/T6IAgIFfSTJ6gid2uh56gidhTmHaQv64HtjEYWvEoidDMAYFVjuszrKYn4R0aEePXsh+M+VkEvNYULu5wGRnRv2+hE4GUMiW8LqFYc+UiJczVEyBXMkyB+LWL4k1nEY3MRzbBYZtfNxwBI21fOy/OMK5k4ONob1f0ewsuS8rwv5ApbPBzY1IEaDZ0KYK5S0US8Pa52lVWKbahz6Xmzzbb/tNvufGhRnXGeOIrqCtcICIv/tsJcHoijlFzD3bgQh6/bEK3N0VxF3Ho3+K/V8iHyex/LFsBlvqvF6GfHj+7Q3t8teEd+OyhebH0ilKzJufbWKxcviXJvxWZxnGU/SIs5dliOx1etH8HJtGKpx63C/Jb34EL2ljeRmjiou08jT1iPsw+DJOayW9FGELelJS4cTmEvlUDonmkU95nttGfl0HGFjm3L/1bxGHNelMezr4aBIkhwtOVMS8cvMT/V8OLWCQnoWYx0/QqXpPzpTexzq74r8pxf7/8QgwldWtSlXxH5X81m5jRAi786J/K6EqN4/uBP9h2NYLso8LY7I8WoZI6l5+DnttyvfL4jf33yq2O7z3Y7QlUzdSMYiXI/q6e6CfRmihltBT6+WEZC18ieKmeQyVj7q8QBEOtuRqfUyaFmk4ZkejiwoeY6KvKFiqRtYj1eGlYyDF+Woz6tYeM3Xu/DSy9vlK9XpFiS1nBDxcrEwj1F1lPAOdJWWmueznuPzWEknEK+p31X3s6tzYjwufyuFtMOYC72ys9KkV9SN5PjVYjc2OZBKV2xHNpdxQy8jPo3CZzM9Rev8v52yevvzlV2yhae/3hLffPMNXnjhBf1/RETb7N48jjx7CktDceTyIgPX3yYiItpuxatHsOfVJfgu5pA797iUSEXMB/fg1C0f4vmcPgcdbZXHaLRMInocbWrEUiIioh7yHo8i6hFl01sxJLd4YJUd425KG616GwdSeZyxcUdE7rWRxsIlOX5ibydLJSIi6soTAUQuhsSLFKLvJLd9qprtt4H09bg6knH4byM23RCo19i4IyLXWr+VxFT5IT3jT0REZMP7Slydm7j8r+i2T1Wz7SzzIY++tO293h9LbNwRkUsVsfCJnIVxuyZLJSIiaocXoxcTGPWUkRwdw9nP3NvAK342r86H7HtzpOP5kKkbwP8H9kbHdutEHl4AAAAASUVORK5CYII=;" vertex="1" parent="1">
          <mxGeometry x="440" y="-102" width="252.22" height="101.8" as="geometry" />
        </mxCell>
        <mxCell id="_rv3rTIkYbMwMZLJfRdI-13" style="edgeStyle=orthogonalEdgeStyle;rounded=0;orthogonalLoop=1;jettySize=auto;html=1;exitX=1;exitY=0.5;exitDx=0;exitDy=0;entryX=0;entryY=0.25;entryDx=0;entryDy=0;" edge="1" parent="1" source="_rv3rTIkYbMwMZLJfRdI-5" target="_rv3rTIkYbMwMZLJfRdI-3">
          <mxGeometry relative="1" as="geometry" />
        </mxCell>
        <mxCell id="_rv3rTIkYbMwMZLJfRdI-5" value="Show All" style="text;html=1;align=center;verticalAlign=middle;whiteSpace=wrap;rounded=0;" vertex="1" parent="1">
          <mxGeometry x="300" y="20" width="60" height="30" as="geometry" />
        </mxCell>
        <mxCell id="_rv3rTIkYbMwMZLJfRdI-11" value="" style="shape=image;verticalLabelPosition=bottom;labelBackgroundColor=default;verticalAlign=top;aspect=fixed;imageAspect=0;image=data:image/png,iVBORw0KGgoAAAANSUhEUgAABJgAAAFgCAYAAAD3rcNjAAAAAXNSR0IArs4c6QAAAARnQU1BAACxjwv8YQUAAAAJcEhZcwAADsMAAA7DAcdvqGQAALa1SURBVHhe7P0PeBvnfh/4ftnrbKgc+5RK5Rbc2BtDkbaHjP1UoHueCtzjtgKv3Aq6ciJwpRsBj5yVQJ+uBNqtTUpPbdLapzJoZyVSJ5VJufUhreb4AupaD6HEuoRSq4Sy1ymgvbYJ7bVDnNQK4Ua+AfZICZlavYSvfTP3nX/AAJzBX5KipO/Hz5ijAQaYeeedd973h3feafr662+kv/x/fgrZd9o2IvXFdWzevFn5NxERERERERERUSWmASYiIiIiIiIiIqJqLQkw/cLf+OvKPBERERERERERUTX+mvaXiIiIiIiIiIioLgwwERERERERERFRQ9QAU5M2ERERERERERER1Yg9mIiIiIiIiIiIqCEMMBERERERERERUUMYYCIiIiIiIiIiooYwwERERERERERERA1hgImIiIiIiIiIiBrCABMRERERERERETWEASYiIiIiIiIiImqIEmCStImIiIiIiIiIiKhW7MFEREREREREREQNUQJMTU1NykRERERERERERFQr3iJHREREREREREQN4S1yRERERERERETUEAaYiIiIiIiIiIioIQwwERERERERERFRQxhgIiIiIiIiIiKihjDAREREREREREREDWGAiYiIiIiIiIiIGsIAExERERERERERNYQBJiIiIiIiIiIiaogaYGpqUiZJ+QcREREREREREVH12IOJiIiIiIiIiIgawgATERERERERERE1hAEmIiIiIiIiIiJqCANMRERERERERETUEAaYiIiIiIiIiIioIVqASX5+nD4RERERERERERFV7/7pwfRlGN1NTWjaG0ZWW0R0x9xOIfJaDzo3izwp58umVrQfjt6jeTOBIWUfh8Tcysue61bStPscz/RG6OnY9NpqHDW6W/F8Ww16GdqN8JfaojvtXqlTXR1Sy7l7qW64xo7N3VFGLEM95YswfK3yZ3Si92JaW1iH22JbnPLnNKHzR0ltIdHadN/UAe6rdlvj7niAKXs1jJHD3eh6olU7YGLa3Imuvb0YPBtB8suc9s672eo2sO9FidfUvDF0VVuwxBqsgFvJJTG0vR3dxyaQuK4tE0VU6taCNk9099LP1bu3ssHymmi1Vb7Gry13rlHF8mltSiN81Idw1gZvOITRXXZteR0edGLgXAhemzjaLwXEOXEvtIOISuiB8LuhLGO7rWZ3LsD0rSiMD25Eq9OH/rciiH1muEhfTyB2fgxDB7vR8eg6bDzJCD7dOxYujWFQVKJt+8cxc1OCJGnTe16I+gQRERER3SXS7/bDd16u141hZF8DwSXdY15MnB+AQzS9B18cA1tBRHcO2221UwNMTU3KJP8aszoWEH2hE76zaWCTB8PRWWS+KhywxfkMZmMhBPe1KQcunWP0nipxYkDJP5PwPqItWpNymElMiL8uBI/54digLiW6VzhfVcvxyX287BIR0T3udgxjRyNixoOR1z3L1uBs/sEgho+IT7vajyBvQaZ7zSNeTCrttgHRglvL2G6rx53pwXR9EmNvyYWlG+OXJtG3ow22B9WXZM0tNrRt82IgPIvUpyH0bWjWXiG62y0g+4X8twXrmK2JiIiI7lrp8yMYEU0ax/F+eJb1B85muH4YFC0lIHIixF5MRHcE2231uDMBpltZRJWZTrRvUmYstTzuxfAhh/avEgvqgFuF8Zs2onNvL8au1Bfpz14ZQ+/eTmzUenO1PtGFntciSJW5xXLhehRjh7sNg36p2zByLobULfEGZQDJTgwq7x5Ep/bZ+lT9/fs5ZC9PYFAer8q5sfAZre3KeFVjl9LiFFiqaFyDb7OIvdmLbn19se7Oo+Gy+1fJkv3f3Inuw2OIWexW0faUHj+xrpLet9X3qtTxBjqPqf8a1AY+zE/5QSwrj0sgj/c1dLAL7cogjJWOb8nnZWNF+9n6xE70n0uZprklJS+0Kt2oRXUBvkfVz1InfbtLvldLo3z6tg4VVTIaSn+xTxNHDZ8tp//JGLLfqu9FNoHwkuMTRVp/vU4Ln0WKjsNGZw+GLqREDrdWz7lppZY0S/+4S3lP97smA3Zen8BOeX33BJa+msSQsn/9iFXbATMnzs+zg2I/uwrbpu2rvH3R66ZneMP5tPR4qGkbRrzOscysxlIpHrNkAakLQ+hxtaNV2X5Rbh4cMc+3JQPWFueFVrQ/I8q/PzTZwyoGul2yrctRXl8bQYf8ftN8UZA82aF85s6zJe9aSCNqLKcrXNcqjwVjUTaWpo+Sd3bm80HTsxHLdKteTqRxp/J5rc9OlJTtQkl+Va5nB4cQ+azkeNaVpmlMPC1/bjfCSuWwWPrsTsN7S3w8pObLo7El5VJtZW5t5fmSa7R+7C/NIqO9pSa1HuNqj0dZtdZV1DSqfI03qGc7S9fRjls0VWvKZhHeK/KzV+6xIq7kXsP4ocpUcp4JtV6nLdVZPpldc0cq1JOX85pbxKweKtIiIdeXLdSVfuJ7EueM1xhxrXCpdY26dsEwgPfgZeMnJBE5Lbdo3Ajsc6Jc+3PJfijb1I3ek2HETK/vwqZu+A+Iv9eGMXmlhrs5bkXQo6TvYNk6yMKFHmVbWl9ZWtbVVGeu53pbpYVrYYyJumpX/ljKkygbnxbH81yiUGc1KL0uKvn5mcL6vvMlW7ksZZ9Baf1ZTBudIv2OTiByzSKFatmG5agvVnE9Kj6HtDyg7YN5tqq/bpdXsrz28msB6UvG463WE0fEuR89pn5G1XmwqnabpsYyp+Y8erf5+utvpP8jcU2Z/sufL0ir4qOgZAMkwC9N3tSW1WgxEZRcNvkzzCfn8bi0qL1XcSMkeeTX9oSkjLaoYE6aPGA3/RxlsnmlUFp7a96iNPuOX7KbvV+fxDZIYjtNX9MmT3jp1pjLSKE95p+hT87np5bsW/y4+lrgxKjk2bR0HWXaGpTiX2kr1GDuvXL775QC789p7yzQt8fzfJ/18SvanrgUNHuPPuWPp/4+sa7yb6NFKf66S8tzJpPNLQ0ni3KLoH9eQBo+7bHczyX5rJyyeUHfbv17B6TJDwZM0qiwf42kv3uP9T7Z9o9KoRPlXp80OYfK0ffJIwVetD4O5mlZ+7mZCXuU18zOrZrTLDksOeTXDk1J89oinf498n6FbmgLdely5Y0FvYyynMT2RZec4Q3kU1GGve21Pi/0SS7HaqDnsWBCW6DJH5dXh6W+bbbi79Ans7JWT5ftAalvj1VesEnecMmxK1vmq5Zs67KU13PS+A75/Q5RrmiLSi1OSwPKuV1yDUxPSn6rclpMchlfelaXy+8qi7Ixnz6j0pTZtazKvGv9/aLcPe5UXrPtH5dmS64x5c/F0uNZX5rOnHIonxd4f8nZW7iemuzn3E/M96n2Mrf68ly6KbZ/a+nrpZNJWVNODce4tuMhWJ5ftdZV9DSymEo+v+btFOZF2jtN32+Yqszvlfev+DyrPc+UUW35pB+b3QPSsOU11zytxBbXUR8uTy8jXIf6rOuhFp9bV/p9JfKU1TVGTLZdw9LMkjqvRTkpE9dzr3LuOqWBD0rKEr2OsGN8SdlsVH4/xFQm/82/H1Dfc2S6+vqmeOf0y2oa+COl5Z/Oqlyto85cz/W2Svp6VpNt16g0U7I5+evSmSlp3CQ/G8v2esqUciq1T83yWM3boKe35VSuvljl9ajMOWS8FjVctyvNM42UX9/MSaFy5Zc2VZ0Hq2q3CXWUObXk0buREmDKJq4p06oFmPIVQTnRg9JUyqrws6AX9jaX1BeekTL5g7YozSdDUkCppNmkgZihxLEs/AqVYPueYWk6PV8owL+ak6Zfd6uZu+TisfhBn5bpxUn8TlzK5FcS25CekSZPByT3CT3rlblwVS0jTT7nlYLhaWk2Y9hG5fumtIppyT4LxoLZvicohRJz0uI36muLN/T1ILnfqbEA/SioVdjE/otjMK9/rTHN4JbGP9eWawrbY5Ncz40WpXfh2EFylDSIK1+YrNM4857WiBYXxWDMsP83Z6TQ8+qxh61Pmi46+fXPkye75DkekuJpfYsWpUxUr7Au3cfy9MqpVUOh9HsnpZmbxcdU1nj6q/ldPvcK6T+uVaLUybatTwolC68vpvRKVplGninDPsnnrDhf5vQN/mZemgkHtH1xiONr3Nf6zk2rBm9daSbKqj55ua00XxU3MpZ8lygf5OWut2s4r25MSv594hyNzUqZ/MYJi/PSnJ7fbAPStDGJGsinix8OqBVj0zIsLo0fUhvnyx1gkifbNr80Gp0tHANxLo7vVy/OtpdLKtHGitQmjxSMGMr8xYzh2JWcU5ZlfoH5tlqXJdWaj/jN90Wjv14UuFyckYJa+ed8PlQ4779ZlOZiQcmtnZvukjxlld8LLPbHmK7ivPSfnpbmljS6KjP//kVp5pR6XMwqVnIFXMmX4ngOizI5nw+K9rU4z9aTpvp5aCvNw8Z9X1IWi4bZEXm5q+j76ytzqyvP5YaeXp4sqRN9lZFmoyJNlM+oM8AkT2WOcT3Hw/r8aqyuUq7iX9d26sF+8Z3u16ekWUNAdzEzK00ddyvfW66cMFP5vKs3z1RSRfm05LjL+619uXzN1X9YWHI9qe+aW4mx7FfrHRlDPXRaCu7SGmYlx6C+9BP5T7+WiHNp2nA9NNYxbUuCNRbpKvKsuo7YBpNglh6MLnutnxefoeRNpzQQMVz35G0SeXA6PCwFjpT54U5eX942UQ+Z0RZVpVLwS399iyijtUWyuurMluVBQTXnuJn4CbcUOC3KTjk/atsiW8wU6g2lbZgl9Q3DfhjVVaaUNSuNamWc97So6xrSaHF+TpqJjEt9+4rTu77ydznqi9bXIzXwaHE9ioWk4D6/NFkSYMqnda11u9I8swzlF7YGpPGEKGe0V9Tr6LDk3aJ+bm15sFK7rb4yp9o8ere6MwEmIX9C5Se75Nzul/pOjEqhaFxUTIpyjYEelXdIAx9avCc1KrnkzzRW3q0y8ufjasVNLDe/PCxKU8/L22dsVM9Iw0omrTayXUWFoFGisSino+NU8eVHL9A9VgEkcRyUE7WmXinz0uQB9XNLGzu6mVPqSV5aoOjbs/QXZY1+wYO4eBlWrHxhskrjwrHq+8Asv8xLU4fMLlD653mkcYtf6+LH1fW871WfcpULqsL3jn5qkUbLkP5W+SH+qvq660S8cO4YzL3tUtf/iUV+MqXvU0CastilmRNaMMNYANd1bhYK7eKKf71pJucPeb3ixqZ0U1zcxXsdx4NqAKqkXJl5Xc4btporUuWox6Y0uFdvPi1UIKyOZf7it8wBJser06Z5K19Gl1ai9eXbR6VZ04tv4dgWVfKtynwD8221KktqoAcmTc9zPe2LG9n5AEmZxoBZpdE8vxtZ7I+ePlv6pCmrVatg9v1zP1ErgOY9BfT9F2ljkWcXo+ov9kXXszrSNN8w216cpmpaO6TgcTUAVZx2M1JQrtAXBZXrLT+qKc/FrsUG1OvwlgGL3sSFz6krwFT2GNd5PKo4v0xVqKtYl5n1bGehF4fjVYvexqIOJL9e635UPu/qv06XV0X5lD/uoqwwzXZ6PURcoz7SFsnqvOZWoqeV6/SstqSEdj0tvs7WmX56HXLJj4aam3qwpzRoYJKu82JZmeCSTK8zDXyoLTBTZx4rEHl/u/w9NZ7/+fVKf7yTFc6N4rpvnXXmuq+3DdIDyCW9zPP1jSNTUsay0V5n2VeOng5V1x9WYBuESvXFctejfF2kyrtb8mldb92uNM80Wn5ZpmXhh+Ha8mCFdludZU51efTudWfGYBKatw4glp7CsPakOHm8hMTlCYwc7YXP3Yn21nVofcK39D7LXBzRN8Sy7QH4f2Bxt/P3OuCS/15Ilh2vQZa+ElbGg+p7zgO7uqhEMzqcIqsjiZnPtW25FkPomvhr60XvcjyOtBbfLiAltnnsZD96nu5C19PaPfJPDSkvJ2+b3xXb0WaxnY/Y0Sn/reVJfQtxxM7KMwEE9ph/rmNPL+RUy74RRdzko1sfbtHmSmxxwbdFngkh8ZmypDH6sdrSD992s/zSAvezvUoejJ6LmeSXDrQ/ps2WsG9SUg65BsckMteBjsct0mgZ0t8qP9jb5LVEqoh8YfbtrY+JYlSIfFHPvcGtWG+xS47tPiif/G4CKWVJneemlbrTrAVtynfEEEsWvmMhEcOE2GLfrj64j4gF52OI58eQSCP1kfxeH5xKXq7RrRRi58ZEWdgjzm9xjmtjVXS+Jr+YtDhVa8yn12MIXxJ/bUH07zdPj5Vib2s3zVtyWdQh/xVJZ7qLLeux/gFtvkgLXLsDylzsw6Tl+A+rqrkT7pflUiWC4XMlQ7Nei2BMTntRJnVv08ukBcTF9U8WONRtnt+3+NC7R/zNDiH6oWkK1WezKGvUi/CySJ/zofPZMLAtiEi4Dw7DAzwUet47EoDHIs82P9GpnIvJZLpwPGtOU6GlDZ27xd/LMRROXy2tRXq6j7jRJ5ZELscLYyR8kcKM/N79TrVMkjVc5pYpz0Vuj18aUvbTI+o/ztL0Wg7ljnG9x6OSOusqlurZTr2+KJb2/7D8+DjLbhmu0w3b3I5202xng/0J+a9IG8N1YVmvuSZaNqzX5kpscMFzSJ4xXGfrTL/kFXUwbMdRH1xm59IGN3yHlRofwlfKtBBuJzC0oxODV+3wvxfC6C6zbcgi/VP5r8fy+qtoblbLkvOTmDIZD66yVtiVukQc6ZqS3Q7XPtHkFiky+Ha0eByYW2L/lXPDD79x3xquM6+UHLKinJ84qY47JNeNlDF57D5xRRBuLZjWG+yODthM6w3CSpR9D7aIoyUTx/qK2cg7JRrdhjrri9bXo0JdxPOCv6brUd11Oyt1ll+24/3wljsfl1mjZU7ZPHoXu2MBJlnzY6JyF55F5ptFZFJxTEfGMXyiD/5tatAp+1kY/a5WdL4hThJ1FeCnSXEJEi735AcfXDppgyBWzMyiApRUPg0jT68z+Rx10gdz1BtoCzfSSmbCbgfalCWrI32hH12Prke7SzQ0jo5gQlSaY5cTq1jAa0QFPC7/3WJHq1UZpRcoYuuyZQZvXEpcSLWCI5OponCuIH+snG0WFSZBD7Jdzi4tvNeiFU3/8pofsqggNspmV8+lbAbqYa/v3LTUQJrZxcVdrhyGP5rVypMcZj4cUxqori2iwv2UHNyYEI1+Lb/m0pi5IP7u6UB7LS2ab9OIvNSF1ofb0eXtRf/JCXF+i3P86vKf4QsprRzdXua8uIu0tLYq1wx8mq5vMORl1wzX3n4l3yRPTRoGWc0h9t6wUia5X/AUAhgiz6WU0SIdsD9qlUH1SpV4t6hMrz2LSJ8XlVyvFlx6f8C0cprPeye7sM7knFamR7VGQ1HtuNY0lYly5Snl7EX8U22F3Axib4mU9rrgaO6AS27Yno0ipp3zuc9nlO/2ONoLAYkVLXNTSF6W/9rQsVnJxauq/uNhbSXqKnVtp15ftHWgbVmf7lWFO3idrs8yX3NrIhrlj6p5P/WlVoLXlX4LyHyu1PjQucn6yqb/6BLLWtT45ODSMx4tuDSNcYsAl1zmLSpFcStayjXEt3gQ2CHPRNBjVwccHnxTNIavppAtffCBqWase0j+W9ygroZ9lx9+eebsBCavK4sU6YsTotYiTo2XvXAbHru+FuvMCx+PoXvzOrQ6utFzdAhj5+XyJIZUg1++EmUfWlzwHJHzchJDrvXKgNRyXS5yJYn0wtLPqHsbVqy+WKiLdLat/vWofoXyy/W91azVLlOZcw+6owGmvAeaYfueE67dfvQdGcZ4bBaZxQymXnYqLydeEZVV/YlG4gRTD+VyyGGhjot67rZ2AWxdbx6tXQG5y/3o9Kgj8dv39GE8EsdsZh7z8/NY/EaClAhq71wF+jHY3KpF6svJYbHKclllQ+tmdS5T6y+cJmo7ViItG//Klbei6X+H2ESlS5nJYEGpcNV3blpqJM22dCqPCc73rpJ/FT+pNVDFP1ueckMJMem9ID5LICT+uLY71aBHVUQj+ZVOdP8oJipsdlFBGcdkQpSD4vyen1+EJEmIH9feugzy54VIj7upCmHJplV4r+VESq4ReqMiO4TwJS0gZPWrsdjqnPyrsTj2rYbKvpVcblGbWzvS53rh26s95e3B5kJwpkQ+79WjpjRVOb6vnL0Ifaz2jcx9GMWIOHN925WzF5071ABxLKF+Xupj5eyF+/uGM2NFy1z92HfCfgdOxoaOh4mVqqvUtZ36cXtKnFfKglV0112nl/maW6PWx9QGWL5nW13pV9gHy17yRl8tijVKxRH0ejCo3D1hkzsflZFFVgkOW/fOVtnhD88idMQt5rJIXRzD0As+7HS2o/WhJmzcO1L2KXoN2eCGV+n5GcXYBSVFBf3Jdw7073UVldVrrs58fQK+7/cicl0cjW1+DIenMJNWy5P5RVGe3AgpvXvqsdxln6oZrteTmD7hhRyfSV+V78zpQberAxvXr0Orqx/hnxYSrb5tWMn6Ym11kbWjcO63a8Hq1bEcZc69aW0EmMw02+A+FlS6r8tR/7QeYHpALvKFPSFkxEkkn0jW0wDUEJU1/eIRTJitXzxN7lMzbfOD2uVOVJq0Ku4KyyL67oj4P+A8Lipr7w3Dv9spCq8WtLS0oHm1u9bp3X0/z1TRW6AZ68peoEtlkf5UnbNvqOJkraC2Y7W+xm29Q1Y0/e+QL9OYUWbssGkXtXrOTUsNpVkbOuVeDtkYZkQlJ5eIISRKoW6lZ4TQ0gm3/PpbUcRFJkunZkQutsH1RA2/omSjmDipnOFif2cxecIPz9Y22MT53dKyAgfwAe0z75WLncg/yi98221rKGBmR/dzym/HmPjxpBJ4sfrVWM5zzcotEGlkqmhoNDev0+bWjuRF0WA5HsL4fhuyF/vhPhxWg02l9LwnrmVm53LR9J635HjWkqaaxzuVAHD2yox4fw7xKyHx5m50arev6gHisUtygFi7vdXmQvsm9XXFipa54s3KTi7cmSBDQ8ej1ArWVerZTr2+uLCIVQ/J3oXX6WW95tYofV3tGeWyaZ9bV/o1o0UrAzI3q6idP7ROPvtKRBH9yIXxcFBcjRMYe8aHoatWJ6a43myX/2YwX+nrWtrgPTGFOe2OjanwKPoOOEWJJvb9fD86dw0huSLn/9Ken7krkxiWgwg7AvCU3Ma/1urMyfOD6m1P+0OIx8bRt88Nx2NqedJw1WhZyz6DB0T970gIs5lFzKdnlLtzBg65lYBT9soIfNv8hU4T9WzDitYXa6uLrCV6+TX/1WpeSJejzLk3qQGmpiZ1WmtEJXrJDTmbHOiW/56fwWzDecgGu0NtJMY+rb5bYcujdvXCdyGZHy+mOvVWcUSl9135rwv+fas8joCZx0SDW/57LYW0VQF0fVbt9mkIGFQnjfSH8l8X2uxL93Sxxu7B+WOVENuqLFkql1JviVhbjdMyVjT975Av02p3ePmWLeWw13duWmoozVrQ8ZT8G1kMydQCkn84gaytF66t6qvy653b5UbvGGIfiSbqp3JuqnH8pS9SCMt/xed4t678GW6zt6t5/dpauaWsMVlRiVPIt1OocwWizKiv5G28SdqyzaMEL3BpDJE/TCBs8auxnOfalF9DxDUlbVVJSWNWKRvFu82C79/e2V5NjlfjiL3qhf+dOEJykOldH3yvxJY0UmybO9Qy+cNZyzK5nOrTVNPSgU557KrLIm1vJZE4m4XtsKvw41NLJ1wHxN+3Ypi5pd3eahx/SbaiZW4r2pRGakwc+9WsGKsaPR7FGq+rWF3j69rOR9rU8Tgvi+O2Uklrdd6t+HV6uc/3Zb7m1qTww6LjMa0Eryv9WtC6Wd2H+E+t9iGH2WRJMKuIB6FESOTfAUQ/VINMg7v9mDD0OilYh3VKUaz3vK7CA+odG+59AQyLsnJufhoDcl3h6iCiSs8RMzksfiX/FdtbT5BWH9tU6fmZROQtdcw3/3NLx/truM5c9/XWTBYpbUwu336rccHqt7xln5lmtDzmUO7OCZ6ZwuyNOYwr4yiGEfpQ3a+6tmFF64uFuki80XsQV1Xh7pfkF6tZq12OMufedEd6MGXPD2LoSrbiL+e5qzFMKXMBOL6nzBQqgxjB4MlExc+oxLFNHVw4dmwQ4WoH38sX1qMYPVdNkSAu3PJAoxAFdl0D/OkR5XnLi5h83/SqyR+DCUxcMPveHBLnJpQLv+1lNzprKP/S7w5jUC7TdnjhMvyCbHtM7QSbSte4n/qxujaM0GWz3JJG5F35lgiIC75r2S9gK2IF0//OyCLyk1GlwmM8BnWdm1YaTDNbmzoO01hiGFNnRAP1QHEDVO4FIYeYRi4PIyY3sGodf0n/tfbmgsWvhgvI3NBml8PjTvjkv5dFI92iUnvnb9mo0u0ERk/IF28bBnZ0Fhq1G0S5K/+9MGPeuPxWNGpM07TR8tpAHo9BuT0hieE9Hgxa/Gos3qgFKQs9c0rlroYxId+OYRuA+6lC5mrZoJ4xEdEoND1k2fQKVZ6L2dvsato/YIf3TATBraKN8kYX3K+VXKf1MvnyIAarun6WqDpNdTZRYVbOXsRPT2E0a4P/B0VnL1y7lLMX0VNy78SS8ZdkK1rm2uB4SgmDYORcyUC8um9XsAdOo8ejSP11lYrX+Hq20yYad0rwbqRwS2WpxfpS1vaoOgJnxGqw6xXLM8tYPpVY1mtuLa6FMHpe/DWWbXWmn74PyVMhxMzy4BcRTChBUDe828xqfB2wawMEt/xgAKGwF7ZsGD3b/CZpIo6F0jYx3GVRq5Z2tGsNY2sZpJXrdL230TrgeUG9VXjisBt9Wlp7d5j8UFFvnbnu6205hd4hCxZDZuSymSp6WllY1rKvCuLa2K6No5hXzzasaH2xUBeJnJ5AotrA6RrQtkX56QmxC1aDz4uyvsZOCtVovMy5R3399TdS9ur/rkz/5c8XpNWgP5rP9rhX6ntnUppJz0uLhkf0Lc7PSfF3+iSX8lg/k0eU6o9rhk1yvTguxeX1tZekbxal+fSMNBUOSt7nDI/et3yEZuGRm9jkkYajs1LG8JjBxfmMNJuYlEYPuaVhw2MNM++pj2GG/PjS8Iw0n98A9fsnTwck9wn9IZWL0vQRdV+cL09JGbMnf5ZVeJyobVdQmr6hf4D8XdPS6HMubVvEVPJI8YqPBbVMl/IWPwpqx8Au+U/HC/v01Zw0/bpb257Sx8AWtsd9JFR83BYz4pgHtM90Lnmk6uIH6uOksXVAmsrvv5H1o3vzx8rmkgYis9K8ltcWb85IoefVx9wufbxk5UcB6/nY+jHFZio87rKK75U1mv5W+aHiPumP263p0fX6PrmlvvC0NHuzcPyKjsGSR3TXeW5a7EO9aaYS+6CVR3K5U/QodEXhkcryVPS4/GosTksDyufbJPfr04VtW5yX5mKjkn+blg5iKj529ebTRZEXHOpnbg1IoWThWbCL6bg0/qJ1mVKJVR6rfL5Y7Ev+kbXeJXlgPjUlBXdpZeP+0kdrF45JUbkr0nQ2Oix5NqmvLd3WRsvrEvojbLXJH7F4PPDijPZIbEj2A6NSXC/nxDVtLhaU3FbXw/wjvp3SQDSTL1MXb85KUyc8kqjOaN9tka51PzpbZXlc02K7lDS2Sd6flByZ9wNa/rJLnhNT0qwxkcXxyaTiJdfQEtWmqU6UW/n8bBuQpkuPaT4N5cn4qPSC+sqP6srz/LEwOf+L86rVdcNClce4ruNh+tn111UqX+Pr2049f8LmloKxMudHrefB5+OSS/lcrzRuKD+NGrvmWKmifKriuJuX0/VdcyvRj4Fj/7A0mZwr1PdLyjZPSTlRX/plpMn9Wh7cNiBNpvRjI/JgMiQFtDLWdmQ6nxdUVuequFa+ruVb+bHtJYd67ifqvpW75mfCfsl9aFSaTIj0LDQW5ASVZiMD6j7aAtLUTW15qfkpSTSdxXtKHvNei6IyThyLE9afVF+dud7rbXlz77jV9UrrKRnRzjpuff5Wrm+oGr4WlRLXmrZ9QSkUnZHmjMdazuuJUcmr5HWnNJzUlgs1b8MK1hcVhrqIUo6nDdvzlSgDYiEpuM8vTWrXoobrdqXlVL3l16L4ni3qcufLk6KtoS1X0l5s8x678tqS9Sqq1G6rr8wpm256Gli9fhe4MwGm9/2GSm+5SZxsp2dEsbXU/AcD+QCU5WTMnOUy7Fez0viBQsazmoozpOGiYzUZK1D5oFjxVHXGuSkuMIYCumgSFYHREwF1fpUCTLK598odR6cUeH/pBVffHutJVCTeM7tQz0jD2klaNOW3u1zBWeFYiYrncNJ42ssqF8TVXsCKLU+ASdZI+lvlh4r71FCAqcwkV9JTpcdAqOPcLLcP9aSZSq546+8TFSuTTdW/V77o13bxUs1HA5bbZt8zKg0/r84Xf3YD+fQrsa7ZOSVPomLp2aUFoNZKgKnMZNsm1imq7KoKDRSTdUTFKficOr/keDVaXheZk8Z36J8hKmVWjQhZPihjPjmfnyoJoskWpZnXtUr/kkmugAa1hoVFutZR9huVPa7pkFahtknesHHLF6XZd6qoB1jmvRrSVKY30ORpScNSppfLYhKNOMtvrbn8qKE8D+s/Wi2d7Hs8kluZX5kAU13Hw+qz66yrVL7Gy+rJN3NSSKv8L51EHXOP1oCt+TwwBGOKpuJjXf81p4xK5VMVx92yLlBXfbi8wrXRenK+PG1a168r/eRrm6GRXTrZdg1LM0uuF+XOVfkHGa2MlYNMxnX1YPeOcZOyWVV5/8vng3zw1bTsqlYh+As4igIcS9VTZxZr1Xu9LWtGGrU6lqKe0ndqwDSvV65v6Bq9FpXQ68iWk7gmn5opOY61b8NK1RfzKtRFjNeihut2peVUA+XXokh/qzyITS7JpQSgKuX/UpXabUIdZU7ZdNPTwOr1u8AdCTApFjPSTGRcGjjkkVzb2gwFmU1q2+aRAidCUrxSms7PSVOnA5LHuP4mp+Q60CeNKj0ltPfJqsiwGTnCecAlOfMnlbYtr45Lk8nCL19G859OSsNiHwrr2CXnnoA0HDb82qKZ/zQk9e0qbKt9qygc368h48zPSqEjbqlNC6zZt4ptOy0aHPJV2aLhXymgUE26lDP/+ZQ0atx/kf6eQ6PStMWH6dszINIndNwvuR7XTkhbmzhuQWnyU7MqhqZk/5Vj/eKUtt2VC079+Orr2x53Sf7jk9Ks6VdW8XlVX8CMli/AJKs3/a3yQ8V9aijANCBNmWyv9TEoqOXcrLQPtaaZTv9cy0pe/oJgHoCqRnEZoZYlo9E5peJtfuwazKffZKTpE4Xz0HhO5Pe3pmNtnccq5i2rfdHTdbc4RtFRKbDHma9YqWXgtJQx9IAttZiaFHlHX0fkm12V0lTVcHltoP8KaxONqIpZQ7+ubdUbeVo+iJX7blFBjQQlv76OKE/lX8ynPlf2sny61ln26yod10KFb2nPVCmjXQfy+6rmQc+hAWk8MmPeO0NTU5rmy11IfR+Yv7vi+a2prfyosTyX81w+fxuPu/45KxVg0tRyPMp9dh11FUXZa7xBzflmXpoN9xXOKeMx07ennvNAKz/zeUGux2wfXdLLpN5rTjlly6cqjnvFukAd9WEr+TLinbgUD4tyKl9n18rjsmVbneknjs2S79rml4JyjxztLcUqnauFQGVxb9kZaVhptJbpifaNyH+xkNJWyNd55c+Rr7dHxivkA71nkFnP6RrFBtTvLhMMM6qtzqyq93pbVsl5pm6H1ka0yOuV6xslGrgWFVuUMslJafxI8WepeXa4fBunxm1YifpiETnd3+kznEOFPDuV76VTTVrXWAdpsPxaTE9Jw/k8aKwnVhEoMlXlejWWOWXTTU8Dq9fvAk1ygGk+OSv2AXho8y/jF37xryvzRCsh8VoTOo+JYiYhYSA/SDIRkYUvw+h+1IeI/OTQWp7ksmakMeHeiJ5LDgwnZ9CnjFFDjWGaEtHakD67ExsPRuE4MYOZI8roOMvn+gR2bu5BdMswZpJ96tg7dZEfbW9H1xtZ+CPzGN/d+FOaie4uWYT3tsJ3PoCp+VG4eQqsqDsyyDcREdF94VoEY5fE37IDUVNNmKZEtEbY9/ShzwYkjwYRrnewb1M5xN5WH9PvOaoOJFy3W1GE38jCcnBvonvdrThi8gD3Oxxo4ymw4rQAk9ILS50lIiKiZSAaCO8NIynmzB4JTfVgmhLRGvKgC4ETHjETQd8r4WV7amfuD4PoP5kFtg5jcF9jfXfTFycwIf46XuqGq6anXBLdPbLne+B7LYzYT7PI5Z8Yl8PCTyMY3BsQ54ANgUOsN6wG9mAiIiJaCfzVePkxTYlojbHvH0Zoj2jgvtu3PI+8/yIM/54hJOFE8EeBxnoviU+JnJb7QbkR2L3Mt/ARrSXfziN8zIeutlas+7kmNDXJ0zqsb+vG0JUsnC+HENzFesNqUANMegcmdmIiIiJaFvzVePkxTYlo7bHDeyIEry2LsNeH3osNBJluJzC0z4dwFnCeGsPA1sYKutyVSQxfEzMH/OjepC4juhe1fN+P0SN+uLa1FcbrtLXBdSCIUCKD+OsuMLy0OtRBvmf+SPnHQ5sfwy/8DQ7yTURERERERERE1VN7MDU1KRM7MBERERERERERUa04BhMRERERERERETWEASYiIiIiIiIiImoIA0xERERERERERNQQBpiIiIiIiIiIiKghDDAREREREREREVFDGGAiIiIiIiIiIqKGMMBEREREREREREQNYYCJiIiIiIiIiIgaogSYJG0iIiIiIiIiIiKqlRJgampqUiYiIiIiIiIiIqJa8RY5IiIiIiIiIiJqCANMRERERERERETUEAaYiIiIiIiIiIioIQwwERERERERERFRQ5QAE58iR0RERERERERE9WIPJiIiIiIiIiIiaggDTERERERERERE1BAGmIiIiIiIiIiIqCEMMBERERERERERUUPUAFOTOjU1yTNERERERERERETVYw8mIiIiIiIiIiJqCANMRERERERERETUEAaYiIiIiIiIiIioIU1ff/2N9Bf/e0r5x3d/5ZfxC7/4XWWeiIiIiGgt+RdXf4bwH/+l9i9aq7x/+6/jf9r6N7V/ERHR/YIBJiKiu9CLL76ozRER3Vt+9KMfaXNL/e3f+Rzua2e0f9FaFd1yGH/8m5u1fxER0f2CASYioruQHGAq1wgjIrrb6IHzagJML7/8sraE1po33niDASYiovsUx2AiIiIiIiIiIqKGMMBEREREREREREQNYYCJiIiIiIiIiIgaoo7B9P/6qfKPhzb+N/gOx2Ai4gDKtCaUG4eEYzAR0b2mljGY/vk//+faElprfuu3fotjMBER3acYYCIywcY73WmV8iDzKBHdaxhgujcwwEREdP/iLXJEREREdFf5q7/6K05rdCIiovsXA0xERERERERERNQQBpiIiIiIiIiIiKghDDAREREREREREVFDGGAiIiIioruKJEmc1uhERET3LwaY7oDsuW40NTWh+1xWW3KvyiF1YQg9zo3K/spT6xO9iN7ru31HJTCkpPWQmCOqFfMPEdHy+gSnf+mX8Eu/dFrMERER3dvueIApezWMkcPd6HqiNR+EaNrcia69vRg8G0Hyy5z2TsKXYXTfNY2/HJJvuNDuGcTE1bS2TBzvzzJY+Fb7x73k2gg69PzbOojYimRbNv6pBleHCmVq0bQRnU/3YOhcAtmVPhf1MmtvGIwrE9FyMus5U/X0s49x4cwAevb8Q2xRgj/y5MQz+3owcDKM6Gc/Q85svXondYvNX1v16WP8S2V/e3Dhz8yW/0t8XPT+2iciIrp/3bkA07dphA9uRKvTh/63Ioh9Zmh+XE8gdn4MQwe70fHoOmw8mdReoLvGrSjGXkkANi/Gk/OGisckvI9o77mHJC+HkIQNNpv4R3YI0Q8ZGKW1Ko3E5QkMejvR2taDyBfaYiKi+8CN3z2CTsevoXfo3+BS/HPc1JYDf4pP/h+X8G9++wie+0cO/MoP/jU+014hIiKi6qgBpqYmdVo1C4i+0Anf2TSwyYPh6CwyXxV++Vicz2A2FkJwX5tosovmUI6NdcUjXkwqaTQAp7Zorcol45gQf13Hg/BvaVEX3rMSiJ5KAjY/Bl9xK0tGLsRELidaC4KI5wO8YvpmEZlkCH3bROl6fQLd+4aQZBFLRHeZfJlWw/SXHwzgmd5z+FM8ih0Dv4MrM9dx48YNdbr+R5i58m/xZv+vY/PD4gu++HrZejHpzF5b/akDzyv7/DZ+zVb8ms64rJ6JiIjuX3emB9P1SYy9JfdYcmP80iT6drTB9qD6kqy5xYa2bV4MhGeR+lQ0hDY0a6/Q3WLhlnpbXMuD65S/97LclSmMiuxsO7wTgd0+eOSFcq+8W8rLRGvLA82wbfFi+H1RtsoR/KuDmLjMcCgR3etuIPru7yg9llz/8/+Ct/9HFzY9/PPqS7Kf/y4e3vTf4df/6ZuI/cEVvPncd2F4lYiIiKpwZwJMt7KIKjOdaN+kzFhqeVw0hA45tH+VWEgh8lqPYfymjejc24uxK2ajfeSQlW8Lkcd7Mgw63dTaroz3NHYpbdrjJPGa+r6hq/K/FkoGrW7F0MfK2zQLSF8aQ+/eTmzUP39zJ7oPjyB8JWUx9pD2ma52tCrriH04OIKY2S5YjmdSMjZPNoYxsZ+dm9VtaH1iJ/rPie9X3mtu4XpUrLMT7a2FdXpPRpC6OKjux2vVjvqjbkurN6L8K+I1jK0lJjUdNd9mkThn3PdWtLt6MHTBYltL91/Zz8I2Nz0bMaRLFuG92vIVHf8lh7jIV1k40L/LCTzihu+AvHwC0Q8tUryKcWmK852gjKfTiUHlH4PolNc3TJYDxteRF+Rx0YYOdhnyQhd6XhN5wWylmo4JrSkPutD9nDo7di2lzpRzK4nwm/3oebqQN+Rpo1POH2EkSg608jCDR31QSoLzPu0cL0xFZYGglkGFvKqWnWPmZSER3ffMes6Un/4P/OyKuu6Tf/sRk9cN00O/gl979Vn8qnHZn13ADx99FI/+jxfwM+Nyw/Txb4vXxXtOf1LymvKt6vxf/jSK032/gW0d6ns7f+0ITl/63KS31Mc4LX/fo6eVMZF+9h/O4bW+X0enskxd71//h5/l3/+zTy4s/dzYnxo+z/xzlWWfnBb//nWcULbzBH5d+w59+uHvFr6nmomIiO5fdybA9ACUW9/ksUAydfbyyIkGd1dbO7qPTRjGb0ojcX4Mva5WdL6WEE1/owXEftyDIblniWHQaWRTynhPve6NcL8QtWwML96IYdDVVjJotXi3HjS6ncLEwQ5sdPdi7HxCbInmegKRt/rhc7VjrCgYJaRC6Nc/80pK+26xD2f70eXwIVzz2CgZxN/sxsbWLvSK/UxcV5dmP4tixNsO95I0UaXP9aBj806xThQpLQHkdcaOdqP9mSF1wXK7ncDQ0w50eo37nkXqygQGPe1oe2YEydvKQhPzmDnbo+1nYZtxJ26lzMURfUNswBYfXFvkBS1w7fIrL02cs85PK6+evJBD4o0uOJw+DJ6NGfJCDBPHRF5o24mRa1ZpvIaOyRr1V3/1V9rcUuVeW1E/p/2txvUofC+MYOJyIW/I0lfl/OFDp2MnxizzR3np83oZVMiratnZi67WTvReNJTZRER1aQbkW9+EGz/7z+rMqvoMv3t8H7Zt/yc4+d5/wHVt8KcbM/8WJ3/owm/8y0/wtbqoxCd4+9B/hyd/4yjefu8T3NCWyusFf+Mf44Wzv6u+/usvLP3c3/x1vDBVGGWKiIhopd2ZANPjTviVCNMEAgeHEP1puf4UJr4Iw797EDG40BeeMYzftIj5ZAiBrUDimAfBK8WNneYWL4Lhacxm5rGY/6VFrJOewoC8zpt+jJasoxva24Xwhl5MJo3rSsp6csM8dtyFHnlMqa0BjCcyhfcszmMuOYnRQ265alMk8lo/QtiJ0egs5he199+cwfh+kTjZMPrejpkGhKyNof+FJBzHQ4inF7VtXEQmqo7ZlDgWREhvvGnkQJ3PO4G0eEfgnTgy+nbI47SkpjC836L3mCUnBsT6mbByoxg84Yy2HeqkplcWkcMeDF7JwrYriGnDturHL3uxH+7jFvt/vhc7X0nDdXoac4axu6T3vFrgcvUsXI5gRPx1POuCnlItT7mhhJjOhzBVkt512zog9jGOoPKPkjF1xDS5r3TPa88L2fN+eF6JIWtzIxibw+I36mcvijwZel6slY2if4c478wCf2vomKxFf/EXf4ETJ07gT/7kT7QlBfIy+TX5PatrAfMZdc6ljE5fSTPch0ZFGTiHeeMx/iqDmbfFcRb5o/eVUD64bts3CelGSL1ldE8IGf392qSWBaIM+liUQXu1MkiU5/my8Ks5TL/uFvkngbFnejGxXOcSEd0TjOVJddOvoGOvGmH6twPP4/SVz/GX2nWuuknug6Qyf73Qc0f8y7BcX+8Sfuf3JPz6yQv4w0//I/7Tf/pP+E9/8imip59Fh3j1k5FB/OuZnMl6MVyaAv7xK/8G00nDer/1a3gYN/G7/9MLCE7l0NlzGtH86/8R0z/SXn/zAj7Lf6bxc+UZbZmjV6x3Af3K8n5ckD/DMP2rZzYY1q88ERHR/evOBJiaXRi8EFQautmLg9jZth76o7P7T44hfCmBVNYqtJJD7O0+hLMODJyfwvA+h2H8pma0bPFi9OwoXMhi6LxxoGUbPG+HMLDPhTZbiyHYI9Z5TDSoTw6I+SyiFreKeM7MYua9AXi2GNfVXBON+ZNZ8RVehM6Nwr/VVnhPcwvsWzwInJlCn9ag0jlenUYqNo7Ajja06CtscMD/+ojSKMueFemgLq2SB+PpOUy+6oXzMf0Dm2HbEcTIcbkBGUUsaexTk0bo+KByW53nJyGMHnDCpq8mj9PyPTd8O+zagmV0LYTgu3J69SEUHoDLsK3K8bs4hYDY3OzJkSVBEMWWPkwlpzH+vAt2w9hdxWzwvqdVdlYsyLGA2IUx8dcB3zZDIG6DC55D8kwUkQ/vVM+LWvNCEqHX5dvcbOj7ySQGttnR/ID6SrPIk97TUUwdkg/KCEbOm+xTVcfk/ibnxbfeegvXrl3TlohTQczLy+5IhVwZC0+eccD9/SrO863iGJ8JiDLQjhbjMX7QBsdzIl/tFvOXkua3UlpaQPSMWga5Rfk8KsrzfFn4oB2ul6cQPSVfKaIYfKfWgDsRkdHPozPwNvrly/XNKxj+zS488Su/jB/8+j4cff3H+MnvXcHMn9zE16bDGSyHZ/FvYucwuLcDj35XG93pge/iV3/tNQRf+VXxjz/C8CWzXkz/GCf+wx/iX/+Tbdj0i4b19v0P+A3lH50Y/N0Yzr36a/jV/Os/j02eIzjylJif/RjXv1QXExERrbQ7E2ASmrcOIJaWA0Tqk+KUW8MuT2DkaC987k60t65D6xM+jJSOp6TfkrQ9AP8P9JZIie91wCX/vZDM/5qe9+0CUlfCGDupjiXS9bQ2XtJT6q1gydvmTZgORxusnoWWvCI/oh6wHe6F9zF1WTXsbe3mn/mIXfk1S76/qrYGVQfaLb7fvqlT+ZszVpyuxxC+JP7agujfvwKBJAt6ejmO+uAyC0ZscMN3WA2ChK+YBDM2d6BjZSJGtbkVQ/Ss+Cvyoke5PU7XAtfuPmUuei62NA+uihrzwrUYQnLcY0s/fNvNzqsWuJ/tVc5V031aK8dkjfrFX/xF/NN/+k/xy7/8y/id3/kd/MEf/IEyyfPyMvk1+T2r4nYWqUtD2PlUjzjDxOl/SH7So/pSNXJfJhE5O6KOZyeXocoYeBvhuyC/msGC5a2tJhbiiMnnEAII7DEvgxx7etWA+xtRxBlhIiKN3lumpukXHOj9v32Isy//Gjbpt8sl4/hf/nUQr77wP2C36+/iv93ahRf+1X/Az0x6N6mWLi9M+luKl6v+Jr77UPFyfWr/wa9DDjEh8gk+NyxXPY5Nv1T8fnV6BJt2yq9/Fw//rYdMXn8Yj7TLr/8+/vRnxa/pjMvKLa91IiKi+9cdCzDJmh9zoy88i4xyO1Yc05FxDJ/og3+bGnTKfhZGvzye0hvJQqDlp0nE5L+XewoDaS+ZtMGQSwI06Qv96Hp0PdpdPvQeVccSiV02jJdUlwVkPpfDJUD3ljbl791iIaWl5fY2rF54qZBenZusv1UPgsSyJQHGNSR7OYQJ8de9z7Uk/ZqfEnlbnrk8hkihw8qatXAjrQT94CyTFx6xQzkql7PyqUU1+oVf+AUcOnQIf+fv/B383u/9njLJ8/Iy+bWVUzIo/EOtaHcPIioOov3AOGIn3JbB8yILSYzt3Yh1j3ag+2C/Op6dXIbmx8CrwxcpxOW/W+xotdoIPeAuSuosn8xIRI36zqPY9k/+Jf79R1/gjz/694ic+1f4n18ewHN7OtWg083r+L03vPj+nlH8kfmgSMvv4UehPPPm5s+wfMND/Tyav6PNEhERrRIlwCRp/90xyu1YTrh2+9F3ZBjjsVlkFjOYelm+NQJIvBJERO/em8upDeEa5S73o9OjPp3NvqcP45G4MhbT/Py8OtZMQh3dpnY5LGiNntaHq2qmrRm529oALJtbV+gWMjM1ptdXizX24lotaUy9qz4pL3rQ8FRCfVrXpYzNpNx6drmeHLu68nmhdX0VwQZxzrAnSV0eeOABPPvss/j7f//vK9Nv/uZvKstWla0NrgOiDIxlMPuOH21V3dKYxoS3A73y7ZE2F/wnQpiSx2IS5ef8vDzGVwahPdpba6GX56IMalUWlJNjviOiZfXzD29Ch/Mf4//6T57DwMkw/v1Hf4yP/k2vGtRODuPNf7dKA2Q//DexWZn5Gf7zf1FmiIiI7kp3tAdTWc02uI8F1V4giCCtB5j0J9CZDBq7dFIHNJa7MkXfHVF6XTiPxzH73jD8u53KWEwtLS35sWbq04yWDepc5maNg5XfaQ9ot0KtahCnxvR6aJ1YYw26HkNEvr2wCslwrK6g6GpqflBr3mfmDeOWWVmPdWvyoNwd/tpf+2vYvXu3MsnByJVXMih8ZhbT74gycJthrLhKPg5jULmd1otQYhrjR7xwy2MxifKzJT9oUh2am9XB8T/PQAtxltHMfEdEecX1veWa/its+Ae96Puh+h2//4XhMf/6D7FF7y+Z1HdYLC9ZZpwyf4rPlPc8ig3rDcuVZYZ/L5mUN8jvMHlNTOrLFstLlpVbXuNERET3LyXApPe6WHOa14mmbIlNDnTLf8/PYLbqqEgaqXflvy749zmXOWDRgtbN6gDPkxYDhK9VtkeVm/OBa+kqGnfLpZBe8Z9a3ZyYw2xS7R1U3dOtVl/6SlgZv6b0KXnFUxxBefOvDSN6VVmt2LfAojZbm/rWKqflUbva0E+kLG8ZzaVmoByV7bZV7PFGa0H28xn1tsj9fnhqGGcuzyqvP9am3nYpys601e1v12fVW3lhh00LThMRrZyfR3O5np3/P7mWsswyN/CJ/PcHv4JHtXG675zVui+QiIjuRXekB1P2/CCGrmQrXqBzV2OYUuYCcHxPmREt4U64DsgzIxg8majyIt+MZmUQ23nLAWjlMWjq5djmUxrn2TOjCH+hLrsrfM8hUla4HEHM4hHgiyvwNBU9vZKnQuaPvP8iggklIOiGd9vqjQ5VvSQiZ+Qmrx++7eVCLU64lMHKsxh93/AErA02dZyjCzNIm2Xgb7NI39Dmi4j15Cd1QTTGlzufbXHBJ58j14YRumy2UWlE3g0pc2ZjTtG9Ld/D7daCeZl7O4OMWde3R+xQRqa7MGs+ble+PJ/AxAWzMjiHxLkJJcBke9mNTvZgIiKN+Q87ZabM72P4TBw/y5m8Zpz+yyeIX1G/Y3/brxSWtzyMR+SF/+4z3DD7jG9/hht/pqwmb1zRazrjssL0M/z+5E8g34z3D59x4hHDa7ri95e+Lv6avKZO+luKl+uMyyRpAx79R/LSz3HjhnF57RMREd2/1ACTfC1YzevBtykMulphf8KH/rMRJL8QjRZDICO3kEbibD927tYfX90Hd35gmBZ4XhhWbn1LHPNg50sTSMjrqy+Kz85h4YskoueG4PthRGvUtMGxQ27oJzF8bAixL/V3y++NYeyHXWjbKw/XXKctPgzuF5+fDcO3rxfha4btyS0gfS2CscM7MWLWi+VOanHBd1wO9UTRs38QkZ8WWoi5LxIIv9aNrmfVnkTLKp9eI/A9Y/xecTyuhdG7z4ewOHC2I33wKaNe1iOL8F5tPKS98uP3l5H+xLUDbrgq9Khw7upXg49nY4UnYDV3oFMPkh6PIpvPjgtIXRpBd1srfD/WlhVphU1JjwhG3zastywc8L3ihU2k1MizOzF4IYUF7ZzM3Uoi/IIPvnflg9KHPounfdG9q6XNAbc8c3YYg+eS+bwhP5EueWEI3Y4O9F/WlhWxwb5d/juB0R8b1strgftwUCnPo6Ic7nkzUcjXt9OIvdENzzHlKoDgQdfavF2WiO4SX+P6SR/+3t9/Gv/st97Dv5u9gf/8/9Fekn39n3Ej+R5ef+4QRuT72v/hb6Gn67vqa7Kf/1U8+d/LM+MYOf0HuKl39BHrXf+DcRz6P/89/LN/qy0z9Ql+/2IC1+cLPYS+nv8jvP8vDuFQ6CbQHkCv+1HtlTvhb+LhX5b//jv85Jxh/4iIiGpwZ8ZgenC90gNCfkrcyMFudNjXY93PacEAMa1bvxGdB+UBue3wnJ5B6LmSBu2WPkQ/GIDLlkXsRz3olNfX1m36uXVYb+/ATu8gwgv5Fj1cL00gIBrn2YuD6Hp0nfZd8nu70HulBYMnlL48dbLBcyaC4DYbcHUMPodhe9atx0ZHN3rfihaCTmtGM5wvjiG4VcxeFY3EtvVauohjYO+E71gS9m3KjVNwPLicTbtCemWvGL9XHA+HD2NXxTt2DSN6bG02KJOXQ8qYSv5drsoDYus9g7JDiH6o54BCozrxxk60rivklXZ3P+JtQQSfU99ZTORjrxZcNa4npu5zjYfQbHsmEHndBVs2hiFPO9Zr5+S6hzvgEw1/2NwYvhSEq6pBoemessmP4GmRN5DAmLcjnzfkJ9J1eEaxIM7XAaV3XSk7up8PKIHL8A8N64lpSAu4N//dAYTe84t3pjHxQmchXz+0EV2vRMWaTgTeH4W/7mAzEZHwf/ou/rocQLl5He+//c9x6P/yD7Dl8Y3YuFGb2rbgH3T/c4wnbuJR97/Axd/ei+Jwz3fxD/f3KQOAz7x1EH+vrbDe0wdfx8ymPvT9hvpOc3+A8X/qw9NPtuW/s+3JXfhnvzMDPPwMfutf9qJjJR8oWtHPw/nMK0v3T0yHLq7SYOdERHTXUwJMq92BybZrHHOLGcxExjFwyAPXtjbRANHZ0LbNg8CJEOKZOUw+7zBtxLdsD2I6NYep0wF4jOtvcipPSBoNT2P2jNwjQ7PBjdGPZhE64kabttC+VXzP6SnMfTSJwFOVn2FU1oNODMRSmI0MI7DHWbiFSGyP59AwQokM+uRAzlojb/dlkY4n/HDqDThlm0cxLdJfD+7ZbQ2mTyn5ez9IIh4Owp8/fvKxFw3ZyCxS7/fBsUYDGdFTcnhJzndVPAUPDri8apBu5EIsP4C23KiOpSYRPKDnFbHvuwIYjc6JfR+Ay+pHTDm4+mkIfbsKed6+1QX7sqRVM5wvTyOZCIntcuXPE9vjLviPT2I2NYW+LexDcr9yPC/yRmwY/q1a6aY8jS4oyrYkpk/50G7xsISWXaPF6ynnuQsthvfb94xj5vMpjIrrwdJyKI7RXfkSlYioPg//Q/zWlRT+t//7W/it5/fjH/3AiU0Pa68JD/+3Tvwj3yv47cn/Df/r6H78qqHzku7nnwggdPkt9P33HVrw6WFs6tqPf/HO/4rLPw7AWbaqFMA7V97Bv/D9I3QoPYWEX+7A3hffwgeXfxt7f+WOD74EtPfgnd//bfR0bRJ7pnrU4cSjdzTwRUREd5Omr7/+RvrzT/9Y+cd37Y/iO79ockWl+1b2XDdavREE3p8XjbxqAir3hhdffBE/+tGPtH8Rrb5KeZB5lIjuNXK5JitXtv3t3/kc7mtn0Nvbqy2htWZ0dBTRLYfxx7+5WVtCRET3iztzixzdJRYQvyyPweSGo+3+CS4RERERERERUW0YYLrffRlBj3cI4SspZA1PdMvdSiFyrBuBs4DtUADdHP+EiIiI1gizp5dxWhsTERHdvxhguu/lMH9uED5XO1ofKgzAu+7hdnS/FkN26wBCx92VB7MmIiIiIiIiovsWA0z3uw1O+E/3wb+9MKizOgivH8FwHJkPgxUfxU9ERES0msx6znBaGxMREd2/lACT3mtFnug+02yH+/lhjH8wjdmMXjnIYDY2joF9TtgsngxFRERERERERKRTnyL32X9U/qE8RW79Q8o80f1Mf5IN0Z3Ep8gR0f2klqfIHT58WFtCa82ZM2f4FDkiovsUA0xERHchBpiI6F7DANO9gQEmIqL7F8dgIiIiIqK7Sum4P5zWzkRERPcvBpiIiIiIiIiIiKghDDARERER0V3lr/7qrzit0YmIiO5fDDAREREREREREVFDOMg3EdFdiE86JKJ7VTWDfNPaxkG+iYjuT6seYPrkk0+0OSIiIiKi6p39s2Zc/ov/SvsXrVXbf/H/iwP/dU77FxER3S/uSIDpySef1P5FRERERERERER3O47BREREREREREREDVEDTE3aBEn+HxERERERERERUdXYg4mIiIiIiIiIiBrCABMRERERERERETWEASYiIiIiIiIiImoIA0xERERERERERNQQBpiIiIiIiIiIiKghDDAREREREREREVFDGGAiIiIiIiIiIqKGMMBEREREREREREQNYYCJiIiIiIiIiIgaogaYmprUiYiIiIiIiIiIqEbswURERERERERERA1hgImIiIiIiIiIiBrCABMRERERERERETWEASYiIiIiIiIiImoIA0xERERERERERNQQBpiIiIiIiIiIiKghDDAR0T0sgaGmJjTlpyGxhIiIiIiIaG1KvGZsvzRh6Kr2wl3gng0wlR4U86kb4S+1FYy+XUDq0gT6D3ah64lWw/s3ovPpLvQcHUP4UhLp29r7Ndlz3Yb3mk+tT3Sh+/AIIp8taGuVuDq0dL3WfsRKvktV0njeG0ZWe4VoeWQR3mvIY6ZTK9pd3eg9GUHKIlvfm0qDV2pa9F/Oaa8XKy6TLMoeIiIiIiJaWdcn0FVUh5enHkRuaa+viNJ21b3ZHmAPphILfziC7rb1aHf3YORsDLHPjCGbNBKXY5g42QufuwMbH6o9U2Q/iyHyVj+6n2jDzjeTMG+KlsiOoP9Eorr3Eq26LFJXIhg72o32tp0Yu3Y/59QsRo4GkTANCBMRERER0Z2WvDiGmDZfMIHoh/fVr+UrQg0wNTWp031u4Uo/3E/1I3JdW7Cisoi+MIhQld+VfK1PNNy1fxCtVdkoel8JIa398750bQh9P05q/yAiIiIiorUjidhPzOvqE+eiopVOjbhnezA5X5UgSfKUQWiPtlDjCWe01ybhfURbmIth2DtiGJ/FBterk5i9uai9V0yL85hLTmL0kBt27V1l7Qkho68rLSITHYBTe0kVRSxZbRZOoP+Vifu74U5rQuH8kc+JDKZeLs7VuBRD1dn6HpV4aRATqxKoJiIiIiKiql2NYtiq48b5EKZYh28Ib5HTfZbARFGj2I/gcQ/aNjRr/xaaW2Df4kHgzBTmMtMY3rNee6EazbDt8KN3t/ZPTe5bbcaCzWbT5oRLgxg8z5gqrSHNNrh/2AuP9k9VzjJfZ6+GMXK4u2hss41OeVyzCUSvV+iSupBG9Gw/ep7uxEZt3abWdnTt7cXIuQSyFc4lU7cTGHLq90GrU+drdd6OKs7VwtkaxeDxSA2/gCwgdWECI8d60f10F9pbDdsk7+PTPeg/G0XK7L7w0nHbtLHYslfG0PtMO1q1z9h5eAwJ4/rZBMKv9aBzs7reRmcPhi6kyu672fFTx5Ubq3z8iIiIiIjuqBxi748a6ugOOLca2tuiDh++YtWlo/LDg0rHZO4+p36TurwVvvPKPzUR+B4t/3lF5LbQm73YqdfDN3ei57UKY+DK9f2Ton3h0toE2npdB/sxcSktWiAmvgyjO79NYtLbFqIdMHRQa4eVG/v566+/kf7sWkqZbv/FX0or7eOPP9bmVktGCu2BJHY1P3nCGe01g0Sw6D2AUxqImryvjEzYU/wZe0Li243mpNBuw+twSMNJ7SVdyXZ4zoxLfTbDOraANHVTe68Ul4KG9y79PqJGVXH+pEOSx/A6tgxLM9pLeV/NSuMH7EWfs3SySa5Xp6V5bRWj+Q8GJJfxPDCbNvml8dSitoau5BxBUCzRLUrx407Da5Bs+0PiLK1W6fk3Ko0fsRk+zyYF3i/sTfy44b3wSKEb2guK0u20mpxSMFGyj6Vl1/Y+acAqrW1eKZSel2bDAclp9rrYZm/YJAW+mpFG91Rx/F6Pi1QlIiIiIlqDFqelAWObQm63fBiUbMY6rVlbRlGuXaEqjQfo7aYlcQLTqfB5xe0GSP7jQclt1RbaKtb7Slsxb1Gafccv2c3eb5hs2wak6XxsQXOjpG23e0AaftFVnEZl4g7swaR7xF7SCyOBIXdrPsI3cjaC2LV0xR5Hlr7NIX1pAqMXtH8Ltv2D8G3R/mGlZScG3w4UekZkxzB4mgN+0xpxO43o26OIaP8UuRreV3xwaP9SpRE+7ELP2Uo3eGYRe60L7pIeRLmrQ3A/PYSYZZhcc30CPdv8CH+h/buC9Dk/PMcMvxNsDSJyxlvd7a+m1mPn0QkECicrxo4NL/OA3wkM7g4iVq4AuDyCIau0zobR52xDu3fM4heSLMIvTZR8vnz83Og9X8Xxe8WD/ovsyUREREREa8/C5QiGDG0Kh9cFxw9c6DV2YroWEu1+bX6NmDg2iKhVW+jqIIIl9XS5neM6WHl4neyVIXTtGirfXrkwhP4fxax7LJVggEn3iBv+Q8acpbmeQOzsCPoPdqPLsRHrfm4jOg8OIfJZFY2o875CV7SfW4eNbr3bmw2uFycRf8djuKXGWsuuPowYxpHigN90J0W8hdujmh7aiJ1vaKEKmwt9kThCe4pz9cKlEfS9ayyS3BhOzKtjOH0zj5m3vUXnQeJY0DD4fQoTLw4WBUMchyYxt6iOAbV4YwoDW7UXZHIA5e1Y5QDs9Qn0eg1dO21ehM4NwPmg9u96bXCj74QhVF3LgN+Pe9H3zhRmMyXjvsWCcBsTKDuBxGfavJktXgzHMlhUPmMRcz8pTt9sthWBt+PI6Gn4eQjeMp+fPtsLn+H4OV+Wx6bTtm/J8cti7F0OjkhEREREa80CYhfGtHmZA77t8s/iTrgOGyvDSQxfNP8ptl62fZOi7lw6NrQHoRtanVqZSsdrLnA+H8KMPja0PAbukeKf86NXkoX690IUIy8V38LmPhHH/Dfq98wnx4vr/iYBqiJb+jCZEm0LbX1leq+4fWHEAFNei0j4KIZ3WSWVLo3E2UF0P9GGLtGwrq8nURazlycw8lbC/L7HJezwvjJsyHAc8JvWoOwsomdHMPaHxly9gPjFsaICznEiiL6tLeo/HmiB47kxjB1Q/6ky3Pt8LYqJq+qsyo/B4x7YtaHRmh9xI/jWcFGPqewbUcTLnZjyuEv7e8S36JwIXpiA9zHtnw2y7x/EsCHoVd2A304MfBrC8AE32mwl475tG8DgYe3fCpGa5XpSbt4J3zYb1E9phn2PHz5lXmdH5w4n9K9p3uSBf786rzJ+fhqxc4WUAvoQPCaPTaf9Uzl+QQS3a/+WnZ/BbH0FIxERERHRyrgVE20VbV62xQeXdjeRc3tv8Q+yZ6bK3zGwynZ6vXDoY0PLY+B6utV5Xa6wsQsfRjFmbHxtGUbwiBMtD6j/bNnix9gZv/oPTfRczDq2sLkDnd8TbQtt/UoYYDJ60IG+91OYi44isKvNMiqnaux2kOxn4sC/0Im2Z8PVBYq2BDDyqqEZfakH/ecYYqK1JIvUxTH0PtUGXz5vppE03BYqczuLI+5ycNfhdGnzqlgypQRfs5/PoKj/z26XKFy1ed33HChZG8mfarNLpBE66sGgIWjlPD2Bga2GoE7DHAicHDAEvaLoeaXK8/xWCgnDYN9d2oB8nce01+vRvA7lH0fQjHUPabOlFlJIXtbmFSPoWqf1XstPG9FT9J40smaDkRMRERER3SHpixOY0OZlyu1x2jy2ltwml51ALLGGfzFdMrxPQfqzSW1Os6uz6Md4WcsTzuL20+Vk+cHCa8AA0xItsO8IYPT9WWTk21OS05h8Zxh9B1xoWxJxymLsfJn7EfeEkNG7kcmTfDtJOFDU9S37bh8mrlSTeZvhfCFoGN8FiLzUh1Ftnmi1eMKZQp6Wp5szCD1flKsN4/iI/5WcIOtMot/rHtR6NOluLai9A78tOTfEuuu02bwlAZSkMYhfYgJjbxVvUOJ1sa3LOk6S2KQf9CNovOX2fB/6zmjzZr5Ni/O5C60Pt6PT04P+18YQuRxD7ErKunxZDbcXkNFmiYiIiIjuTmnEzht75YsWw9EOww+mnRgsqnRnMSTa+csUc1lVuW9LWg8/p/01Eu2n4tZXBgvL1B5igKkc+faULS54DvRh+J1pzN6YQ2h/SZTJuiW7lHw7yb4++I23k4jMO3E1pc1XsMGNwVOGWGU2e2cbn0SyDQ54X/AXR8Hz4/g0y0OOFVk0ub1rybINLeotXg+U9CwS71vUZo2KlznQXK5D0tYA+ozncXYE/SeWe+D8FrhfGTH8siDOVcuTNYfYK53ozg+eJ4/RNo6p5Bzm5+eV+53jx5UXVp9I/+KkHEDcGFw0nSbhfUR7OxERERHRnXY9hvAlbb5ab0UQuwt75Tc/UNL4+kb7a7SkPdaKlkbHotWoAaYmfZL/d3/KnvOh66Vw+a5hD9jh2tGp/UNTtiW7/Gz7isd3IVrb7HDs1mY10UTpoNcLSF4pPIdO5nK0KVF12+aO4i6dF2JIlhb01+KG8ZRkLji+p80u4UHo3CiGXx8rGtwu+VoAwT9c3hATHvFi8JTVUH0GCzFEThqjT34ET/nh3mJHS0tL1fc7rwibHR1FT7qcwOTlZU4nIiIiIqIVlLwwhpg2X70JRD8sFxyYRabR3h4mP7w3yv54yfhMF+PFQ44IC0nR/tDmFdsdaCu5oaRe7MGUl0PsRz60r9+InYdHEJZvTVkwNKS+zSF7LYzg6eKGsH+3q8JYTQa304i90YvBovFKAN/fbdPmquFA4EfBJfdREt0puS9iGHppsKTQ9sH5uPy3BZ07AkXnSPJoAIOXstotcAtI/jiAgHHAPbjh3WZXZ7e44CsKqE4g8NJEPsiU+zKKwUP9RYWm7WU3Oi3jvh2wy4N5P+JB0Pi0N/EJQ88Hyz+isw6OQyMIFgVoTCy5DS2FmWuFi9nCT6OILe+DLGrggOewW5uXZTHytAu9ZxNIG8vH3AKyP40hfLIXOw8WP7WCiIiIiOjOSSIWNrYWHBhOmvXCl+8aKG7ZT/x40jCOqmhgFL0cRuhCEgtakEhuE02ci6v/qEpEXV/713JpcbqLhtXBtX4EXokiq1XdF66J9tRh42hUovW1zwWt9dWwezbAlHhNv5+yFb7z2kJN4THr3Qh/qS3MSyP6Vj988uC669dp7xPTz61Dq8OHMcPgwLb9IQzsLhPqO+9TBujNf8ZDG9ElH1ztZcXWYfi219YLqnlrH4aPVB3WIlpWhfNHndbZuzB4sTik4Dzlg0vL1i27+jBSdGtpAkPuVqyT1/+59ej4YXFAwnl8EL5N2j+0gGrxuGU96HhY++5Hd2LI+JQ5mxcjP3SV3NZlzr5/GOM7tH/Irg2h70fLfKtcsxN9J/rKB6EfaUNnURAqgl7H+nz6rm/bicFau/QuI/u+QQSLgnwJjB3sxEZj+bhuPVrbuuA7OoboMgfpiIiIiIjqdjWK4WvavMzw9LhSzl39xR05LkUQyz8Nug3OA8W1+sjhDqz/Oa1dYtImKmaD/Yni9aMvifX1+nTTkKhlL4MNbvSd8ha1PxJv7ESr9qCe9Y4ehI2buTWIwT3LFV5iD6aC5vXlG4FF5DFSJhF/x9tQpM+2bQDTF/vq6I3UDNcLxbf4EK0N4tx4dRrRF4252g7vmShGKxZc2rqvOosCRM1bBxB6vw+uSvl9kx/jVybglXsoVcUO/+vDRcGrxLE+jFxd1hATmrf3Y6x07LYiDvhP9RVtRzE77PmA2x3woBMDl2aqOH5ERERERGtJDrH3R4t+zHY8a3h6XCn57omi4FMU4St6HybRBv/hiHUbfGsAwSPFz7Yu5dxfZv1lZN83gehpT8VYhRqPGIBzmcZfkjHApLHtHkfmqznMREMYPeKHa7uz+IDY2sQyP/remcRMJoPpU+KA1TE2iu1xF1wH+jAeyyAdC8JV+sj1asm3+Bw33rpCdKfY0LbNBf+RcUzfSGP6uKvkqQTCgw4E3ptDJhHC8CEPnIaAiX2ruu7U5ynzdQX7rmFMp+Yw9U4f/NvaCsFg+bzcE8BwOI5Mahz+79XWGxBbAhh7vSjEhMEXR5Bc1hiTDZ5jQZQ7W1u2DSP66SSCB4rLHfuOPoQ+nUHoWW3BndKiHr/51BTGXw3AYzwGgl6ujYanMXum+BcTIiIiIqI7IhdH9I2i8BJ828p173DA5S1+PXYmUhiO4zEvQslpDBueMG/f6kHfO6It8uEo/I4KAxlp64+WtIewySnaNDbTdlB9muF4fhJzmThCJ0TdfauhhSF/lxyPiM4h1Ug8wkLT119/I/35T9V+X9/9b34J32l5SJlfKZ988gmefPJJ7V9ERERERERERHS3Yw8mIiIiIiIiIiJqCANMRERERERERETUECXAJGkTERERERERERFRrdiDiYiIiIiIiIiIGqIEmJqampSJiIiIiIiIiIioVuzBREREREREREREDWGAiYiIiIiIiIiIGsIAExERERERERERNYQBJiIiIiIiIiIiaggDTERERERERERE1BAGmIiIiIiIiIiIqCEMMBERERERERERUUOUAJOkTURERERERERERLViDyYiIiIiIiIiImqIEmBqampSJiIiIiIiIiIiolqxBxMRERERERERETWEASYiIiIiIiIiImoIA0xERERERERERNQQBpiIiIiIiIiIiKghDDAREREREREREVFDmr7++hvpz//jnPKP7z7Siu+0PKTMr5S5OfW7iIiIiIiIiIjo3rDqAaZPPvkETz75pPYvIiIiIiIiIiK62ym3yEnaREREREREREREVCuOwURERERERERERA1hgImIiIiIiIiIiBqiBJiamtSJiIiIiIiIiIioVmoPJg7CREREREREREREdeItckRERERERERE1BAGmIiIiIiIiIiIqCEMMBERERERERERUUMYYCIiIiIiIiIiooYwwERERERERERERA1RAkz6Q+T4IDkiIiIiIiIiIqoVezAREREREREREVFDGGAiIiIiIiIiIqKGKAGmpqam/ERERERERERERFQL9mAiIiIiIiIiIqKGMMBEREREREREREQNYYCJiIiIiIiIiIgawgATERERERERERE1hAEmIlp22XPdykMDus9ltSV3owSGlIcfdCP8pbaIGpRFeK/6QImhq9oioruQXsY1vZbQlhAREdG9RW8LDIm5u9D1CeyUt/9gBAvaotVwHwSYFpC6MILeZ9rRqmSQJmx0dqP3zRiy32pvKaJnpOom0wZ0NoHwaz3oeqJVe18r2l3yd0aRrnB0Fz6LYOhgF9pb1c9vfaILPa+Fkai6nZ5D7Ki8bp2N4tti/51l9s0ge2UMvXs7sVFLCzVdK+/jEl+E4dP2t6ZGZxXbmvsyicjZQbGdXejcrL5XPR496D9rkQeuDmnvq2YqTedCA7r8ZHJ8qv3eVW3QWO+PnDe7D48hen01iyy6PxXK5RUNTH0ZRrf8PXvDIudbqOY9dwN9P5p2YuK6tqyCxGvqNa3jR0n5X9bXSkMZlQ/ELJnur8BtPh3cE0hry8oT6atcFzswck3795I01Kaa07u6zyIiIrpnWLazNqLz6R4MnUtYxAaW0SrXIZMXRTsNNgzsd6NFXvDxkBoPcYxArsmZEumkxkzK1dP0Oko/YjltkYESYJK06Z5zO4mRZ9rQ7unH2MVU/kCmr0Yw9kIXWtt6EPlCW7hM0hd70dnaCd+xCcQ+078xi9QV+Tt3YuP3rb8zfc6Htie6MXg2hpS2avazGCaO+dDp2CkqmSZH0CC3kEbizV70nNQW1CyN8GEPBis24HKiodGJVlcvxs4n8pVlNV3FPu7oRbTadJWDRPt8CNd8llWzrQmMPNqB7oNDYjtjSOQbUfLxmMDIQZEHnqphW6mInDcjb/Vi5+Y2dL2RELmCiO4aj7jhOyDPRBG+Uk3II4HYGbmgdiGwy6EuoqrZtvvgl2cuhRGrJqB3NYZRObm3B+DZoi4iIiKi5Sbaz5cnMOgVbdsViA3cOUnEfpIUFRDRVtvWrC563Amf/PdaFDMWdZH0pzEtZhLBTMqidXctjkn5Tfs70a59tNE93IMpi8hhN/ovZmHbNoDJ1DwWJQmSmBbT0wjusindxrr3DSFZlHZODGjvKzslh8U7S4jP631mTFTDbXC/Po25r/T3L2I+NWX4TpOo4bUR+LxyNNOJQHgG899o696cQeh58U3ZKPoPjZlGG/VfLNet34jOF6r9dbSUHDTywfeuyIdiM8tZuNgPz7GEeKMbwVimkK43tHS9Ogb/iWgVXfH0IJGt4ncWq35b8bgXwfAUZtLi+OtpKo5HJjEK/ybxutjWncdLug1uHdDeV36aObUkBxQJJszXU6dJeB/R3lhqTwgZ03W06dXy37tSPOFM0XYszs9h+oQHdpFrY6944D9fc5SQiO6YFrh2KSEPxM7HKl43clem1IDHDi9cctmZv1ZmENoj/9tQRhjKKNu+SXVZIqgtCSKurFemDLwXbXDBrQT0YlUE9HKIvT+qVPDc+1yijJUtZ3pX91lERET3Hv26qE3fiHZhMoS+bXo7vTQ2cHfKXZnE8DXA8ZK7ELNo7oDrkDwTQzJl1lLPIvlhTJsHQlfN+zllU3ElJuF6ygGzpvg9G2DKXRlF4F1RPbMFMPFeEJ7vtUAPsDU/5sJAOILgVvGPq4MYu1TrLT5ZhF/vRwJuuL9fSFa1G5rw/AQmXxaVwgeVxUIzWr7nFt85gYD8z6shxJQu7zpRmXxvWHyeyAQnxjC6z4GWB9RXsMEB7+kxDMu/YF7tx8TFlbkdKX3OrwSNnMcjmDisLTSVxuRbY0rF138mhAFxMubT9RGRru+MKb/SZt8axETRPpYqBIm84liMPKUtrkL12yoq0Z+KbdznhuMxcfz1NBVbbNsawPj5YSi/w5+dRKzW2MiXYQRfEkdshzhp76dGkkFzix2uI5OYftst/iWfEyHr7pZEtOa0bPOo16TLY4hUKK/jlyeUct+9Rw94UG1a4NqtpDZiZyLly8pcHLGzSmrD8xRTm4iIaMU8INqFW7wYfj+EPrlZf1W0YS+vTHt79ej1NjcCu429zlvQ5vQoc2MfpZS/RXKziIu2OV4ewIBIi+yHsyY/QC5g5sOI+OuA+/vmdRQlwKTfg3gvSV1VK8N4zgf3BmVRsQedCBxVf72duKB3BatO7vIw+s4DtiN98Cm/5Kpyt9Uqo+uJtnzQpciDHehUfi3MIFd0j2cSsTfkLXCVZAKdA57DLmVu7MMZkWWK5X+xVKY49N8tq5W7OqT0nsL+EEKvOrFeW27qiwSil+SZPnh3KHdzFtvghveIPJNE9CPrX2mLgkT7qq9A17StlWzpFKedLIxUTd0hc4id7kMENvS96LvvG1v27T4oRdW1OFKm9+rK46ANocelj4O2EZ0HRyyCejlk5W6qh7vR5dyYL5uaWtvRtbcXY5fS5XvGZWMYE+vmx9uS1zs4hMhnZdb6NovYm73ozn+f2D7lu2bFmWqi9P5p5Tt35sdNa3o2oixPvKb+23LMoHL3YS8Zx00e46wLPUcnELlmmnDWbiURfrMfPU8XxnbLf57V+G4l21Y6NtxGZw9GrpTbjtJjro57NnQujsxK399eaiGFSFFaase3ZPuVnqCP+sR5LZz35cfs0yf5OFbzniJVfrdKHxdHG0hSW7eQl4cKQYnlyh8tLni08jp0uUzIIx/w8MC3/Q6VeDlxni4ZT6/SWHAlaVpSPrQ+sRP951JlyxSrcRHjdYwf1bLdI66cwrXSH5mK5RIxTMjJvceHnYY6BhEREa2QB13ofk6dHbtmEnwpVWP9utY65ML1aHGbZnOnUt+pqlPErSjCcmxhh0frdV5gf6JT7WBxUe2FVOSzBELiT8DpR+duMXM5huSS70sheUH+64Lje8qCJXU0fP31N9Kf/dHnynR74StppX388cfa3MqKH1eHlvL8ZE5bYuLzccmlDD8VlOLaospmpOGt8joeKXRDW6TJhD3qcFZbxeeZJeXitCQqlxJsA9L0orZMlt+OAevtSATVz94yLLagnLgUVD5r6faZWRSf67IVb3M+7cIZdYHB4gd96nbsDklWKZtPh0NT0ry2zGjuPb8kmiiSbb/+GRkptEf9zmBCWWCq1m2taH5KCsjbKadVWltWjeSw5JTX2xMSW16qun0xpR9j08+9Uwr7Y5nGN0KSR09HLc/pecDz6rDUt82m7lfpZPOapHvh+6wm5/NTpumj5yuzdQCb5A2b5Nib09KAcj6Xm0rOJX1/94xKU++YfKd2/PS8aZkP8p9TfLzz+dz4mUVTLeWVoOcrq8nmlkaTxgJJ0Ldt94A0/KJLspWuo0wWafrVrDS+3+KYG6bazg+9XKttvUpp6Twel/Q9z5dbFpP8vdW8R1fLd6v0fRyQJj8YMFlXPe7LnT8WYwPq8S1zbcmX+wcmTcr0KsoIWT4f1ph/dflyxmpySoFo6ffraRqQhk97LMuHpcdCtijNvu21yPuGSaxbvUVp+mX13HCcsExtafqI+tn+iNkVdDnTu8rPIiIiuttVcV3U6+6Fa7tejzBZJ/95FlNJ/bqWOmT5No2o77xfJr4h6N9lXo8Q+6TUI5e2f+fedonlLmn888Jn9H1QUkMS7WCHvB3Gdn5JHe2ef4pc/Msyv002r1NHVMcsMtVEA4XsuSD6r4pDe2pwyfgRtt2DGFXGIBpEp6MbQxeSWMj/Wp9D4uQgRmCD93QvXMYuTreyUO92XKf831RzsxptvJZb0oOpbl+E4RfbHIMXoXMDcOZv6bO2cEvrlfSA9dY2P9iqztxaWLKtSg+kvRNIbw0icsZbfe+fOra1klwyjkl5Zksn2h5TFlVBvz3SieFXvKb3neoGtSfcKZPWA2fkQvlfyxUlUW29Z0LNt/GtllsZrfukHbaS3oKR1/oRwk6MRmcxv6j1srs5g/H9IuWyYfS9HVuSR5pb5HGzpjGbKYybJhpdmE9PYWArkHjTj9ErxWvl89UmD4Zjc4Xv+mYRc7Eg3DZx3Ly9JU/LkscA61J+MbDtCmIqNa99l5i+ymA2KtbT3mnqfC92vpKG67RxvDUxvVc+X5SXwsSLIp9n5XIiXvS58phXM5Fx9O1rNu8haakZ7kOjmEyKdDFup9jHmbfFtmaj6H0lZD4Gz4Uh9J8Ddp6ewuzNRXW9b+bV9eRz4SWRL4sOhSjnTvjQI9+eLN+GmiiM0SYtzmMuMY7Aag1YnC8zXOgLzyBjHBMvGUJAzkvHPAhqeUnpCXojpPbGMxkHTc571bxHUeN3FxtC99NhtByexIye5sokyr0VyB/NThf8coa17FWzgNiFEWXOv8ulXTPvhGas3xdEKCau1/OGdJHzVVROmwTGDo6aPs0EGEP/C0k4jocQT+vrLiKjrCcfC/G5JYNd5v4wCN8PtXER34kjo5cpSlkUx/ghs97GlTSjc7tfKR+S4djSXw5lCzFElAd1+OF+6s6lNhER0f1lAfParQuuqgYHrq1+XW0dMvex1qaR6x/yuMx6/eOrOUy/7hZ1CFHfeaa0TWOUxtS7cj8pi7uN0AaH3DsJEcQ/NbZKF5BKxsSGutCxSfxpU3s6hT4u7s2VH3/J0WaoExbX0e7ZHkxz77jVKNqWAfPeRLJ8tK263j7SV9NSnxzxs/VJ01af+U1Gmj5h/KXULrkPDUh9e+wSNnmk4Q+XRhLn3w+o7y3Xc6XqbdUjrRXe95V4n9xzw+aSgoniyGS5XkEzpxzqtpb71dYqQpwOSV45/Tb5pcmiiGnhV1TT3gl1bmtZizPqZ4p13e+UjwIbyb/kiyJHsh2ZNvnFW1a5B45tm0gXs/xTKRIu8pL/veq3dXlU+oVb/rVd661i6N2gR70dr06b9mLL52dbsEKPvBIfDqife8q41pw0vkPexqWReN1iVD3HjOsVem5YlREW55K+7Vv6pKky2a6uHkz587xcr4PlNCeFdsvfF5CmjAcqv48D0rTpAdTzhU0KfqQtkn0+LrmV7bc6FhXOdUv6sah2Pb2niEMa+ND8TJVSo2rPUbNfYKopiy3fU+d3G/Lb6Kemib5i+SN+XD2HbWbler6nZ0keyatURmiq6lFTv/ir8mc7pOGktkBRSNNxi7JB33fve8Zt18sUsU8WvaDzv0TW1INJJrZJ+eVQnDsmeTlfH7DoAby86V3lZxEREd3tKl0X83VYY11Cr0fUWnepUL+2rEPOS5MH5PVE+/Rt8/rHzCmn8rrtZYu2qNbDyPJ1IV+HedWwV/qdVvk2rlZf2T6u3XEkm5emDsnbV1rfKnbP9mCy7wogoPwqOwSPdwixLww/a+YWkL4WwdjxCcSVBc2GAaCt5JD4UT9GsqKqeqofLqseNLdmkfwoqfSkCJ4eRmAHEH1rCCPn5fhlDpkbmSU9WHK3TUd6WUH609ucCF6Qe4VU/3u3Ps5UzW4nMLTPh7DcA+nyODxV9xiqf1utLSB2PCA+U1Tx94cweqDKflS5BEaOjiALD0ZecIlcY8YG73vFEWl5knsXxN8JKL+WZ68MwnN8ac8d06fXLc4joz+BUKTFxN5yEevVlMPCFwlMiHToOil3rXJi+AXPkt4N9rZ28x4Pj9jRIf8Vq5p2OPh2AakrYYydVO9t7nq6ExvlHl1PDSkvJ28b1roeQ1geF+xIwDJfNT/RqfxikEym5a8UcohfGlLmPUd76+sRt7kDHdX8wFGLB1ug9v+bxNSVin3dapL7MonI2RF1fCs5TZXxezbCp9xHLcql28rbim1uR7vpAbTB/oT8V6SgYUyltDhm8oMObMf74a36HF8BuTii8r3n2wPw/8CizPheB5SR7S6I8lpZsEwa/m6Rrx43TfQVyx/OXf3Kr1TZM1NLegAtXBHXSnnmiAcui81aVbdSiJ0bE2Vxj5qPtbHTOl+TX0wiZ1qgdKDdIj/aN3Uqf4vGRdTLFFsQ/fur7mdbJSfcLympjdH3S68Dcm8xJbXRt/tO9hYjIiK6T9zOIiXaBDuf6lHrsIeC8NfQ276u+rWVBXnMS3kmgMAe8/qHY0+v0qbJvhFF3KTOk7wsP3TJgf69Vm1VsY/fd6v1UOM4TD9NKndUeb/frq2n9XS6nEThgXP6+EtudJqlkVZHu3dvkdvgxvCFIFyiAZi9OIgu+zqlEqpM69Zjo6MbvRdntTe3o7VSQ/F6CMFj4hBsHcbgPos3fxGGz9GF/ht+xJOTGHi+D6PROUg3ZzF12g/X7ShGvO3oOBgpalTkbylbJak39ae3hWoO2DQ/WM9tAQuIvqIHiSZqang2sq3m5KfXudH1RkIcy9pu00u/G8TgNfPbIyuRn7jmPDCK2Ad9yu0R2ZMRxKppHza3wCY/gfD9OMZ3yAuiGLtYZ5CvQRFvYUDhpqZ1WG/vRM+bIh1tLgx8EEXfMt36lL7Qj65H16Pd5UPv0RFMXI4hdjlhGQRYSKkFIk52YV1++0omfVC9fOtTFJCX5b82dGxe7ihRA5RBl+XtSWLIJcopZw/6T04gciWJ9IJpy7myhSTG9m7Eukc70H2wH0Nvibwnp+lnaqht+WhdawXX95a7UV4j7SKJyz1qYNJ06sSg/B6RDHWmrLmV/O6VyB+yLS745PM3O4FYwvg5C4hdnBB/bRjY0WlZUVkV36YReakLrQ+3o8vbq+y3ko+vLmt4UJEvU7a3rchDHBzbfWpA72ysuHJ4K4aoXLG0DcD91B1NbSIionvUIDqNdbKHWtHuHkRU1MnsB8YRO+Gu7geelahff5FSO79ssaPVaiP0H+lFyyh7S5kpyMUweUq0E7f44CrXLtvUocRIlAc0aQ+6Sn8qB5tccDn0dlELOp6SQ1ljiH+mLpHfPynv3qFOtKlLVCV1tHt6DKbmrQOYTsYROu6H63E9sURDf7sfwXAcmYv96q/Bu+1Ko9/aAqKnRMYT7+o7HlDHQlpiAZHjPoSzoiL+el9xj4gNbXA/P47pTyeVXlXpswGMXCxEF1oe1gJMH6bNn1oly49z0wF7g4/FX1iQn6cjj0ljeEqXYeo8pr6vEFDQnsAjtNq06vbnGbltZGrhprYXe+xa5TyHhaz87gQGnYZAX35qhe+88sbCuEX606sa2NalFpB4zSXWEe+Q88bFGsZyuhXFyLGoqPj3IfhcPUE2VfP2bqjPLhxD8qfKTJXscO2TT3LRtEykLNN+Ndm3ehA4MYmZT6cR3L48v7XnLvej06M+Yc6+pw/jkbgyFtP8/DwWv5EgJYLaOwvq6wGYQ04Zb6YT9vIn/yprhuv1JKZPeNEmlxVXJ5SeGt2uDmxcvw6trn6Ef1pLICGNCW8HeuUelDYX/CdCmJLvFRfpOa+MY5NBSHmy5XIQ57l2oWt/9A4nai5X+EVmta3ody93/tA54HpW7VUzcTleCHp9GUVICXiIa6jzTgY8coi90onuH8lPfLXDc2Qckwn5Pn89H0uIH9feugzyZcrm1gp1gzpZBPSyl0NQwnkHxHWK8SUiIqKVZ2uD64Boc8QymH3Hj7aq2oYrVL/W65Ci/lG5+0kOiyVVvtyHUQyJNpT7BY9FvELXBud++a8+DtMCUomIsi/thqfO6eMwRT9Sa7ZqEArwPNVhCMItraPd84N8w+aE91U5uJPRbjuaQ/yDcQzsc2LxU3WQTcdT5X+lzF0dw+Bb4mjtCCKw3aLWl5tBXOnS1on2zRbv2eCB/wW5upotfvzhBpvaTS27WKjYl7o9r2a4LbUO8Lu8WjZoKXVbZGp1bon5Ba1yvqHlzv7iXWRBZH63ElyybQsifikIV8mA1NZySLw1iDH5hH09YH17ZJXKDOVe1rqKt3GuLE9YP4fUaS4xidEjogCrOh0rySL6rnwLIuA8Hsfse8Pw73aKhnQLWlpEXrLa/we0XCbWMW6f6ZQfgFuso8wsLCmc77gHRHlwJITZjDyY8AymI6K8OuRWAgrZKyPwbfMjUu0j0j8OY1C51ceLUGIa40e8cG+xK+nZ0rL8Z2ez9pHzX93hRBV5RTm8JoMoLp3UgZ6XzUp/93LmDwPHLlG2ib/GLtfZDyeVnn+2wzuLH0yx2rJRTGi34gYTs5g84YdnaxtsK5SP82XKV2WuyQ1xwHNYSW0MXdIDelnELiipjd5nrLu1ExERUSNEO9BYF8vMYvod0ebYZqv+2rtS9Wv9oV6fZ6w7neQ1Y13RVy0gek5+KIsf/l2V+l83o+OpgDI39pEck9BufdvtKO6ZtKUT3aJ+mfwwhbQehBJb2ClXOnUmdbR7P8BkKYnIaflOSzcCu8rF+NIIHR8U73YgeMxnHYhaWNAyQoUGa7NJPPIRu5qZkMCsxfg66ZTWL2d7yYGvg/NVw0llMum/BBcCCoVGULO9TRs7ZAZp0/3MIf2pcjOSYXR583GJClMhyhtMaMu0QEAj25p3O4WJZ9uU2+Js+8cRe1+8p5YON/rtkVuCGNxX6YSt4Ms0ZpQZT809Z9LX1RHD8L1KPe7uVmmk3pX/uuDf56y6kLdt7lDPnw9nxSdUqxVt2+W/MaTMM/KyWTSO7VKTZrQ85oBrtx/BM1OYvTGHcfk8yYYR+lAuyCvLfj6jBOywXzTIV3xMJBvs2gUn+UU9vcqW0SYHuuW/52cwW8/hFcfMKoCeZ/WeRr+7ao3njyKbXPAqt+GOIHJZ/jVLfwqJA/27ljUEV7svUgjLf7f74V2WW6XLs9nb1TL2WplexQ2ybxOVUXlGv136+hRCck/eLf1w608jJCIiojWn4fq1VR3ysTYoI0NeSyFdevub7vqsehs/Sp7erfc6P+CuqhNFizY+rTIOk3brW3HPJJk2DtOFOFK3Uoi/JeZt3cXjL5nU0e7TAJN8q1QA/ddEGh3pg8/QFazUwsURJUIpD/gVKFextdnRoSR2DBPnEha/eqYxc1ntYuZ+xBAiaO6E+4g8E8PYBfX1YklEzqhZKSAO/MpXr8uQGyFKw3wE4UsmgwjdiiKsPGLZAff3GwzGLIcvoujd3q48Nt358jRSP6m266OucHtk4HgAjd4lkr4UUscC2uGGs5YC6XYMk2fkosyGgW3lAqJ3s2Y0K+fQvOWAeAs3TEJI+u0mlwcxeK7aEJMNjqeUUClGzkXFUTbx7WLlIEMZNpv6+YmU+TYtfLl0wP+yHrCjXRlYu3r58d1uLZiXSbczyNS0EeW1/V2f8jd2JqL2uFxCpGndAbcatHTCdUCeEeX3Savy2MQjdjWAf2FWrTiYqfSeer+7UXXkj2J2uPYoIQ9xHYph4XoMEfnXuUr38a8G/Re9mwsW58wCMje02eXwuBNKTr48hohyK+1SDfd8FNdSjxLQE99xZQHpDyPK4KIOr0v7wYmIiIjWorrr11XXIScwccGs/ZBD4tyEEmCyvewuup0+fVluY4p24v4qx5CSg1ly/U4OLkXkW99KeiYp9HGYJpF8N67UU5b0cjKpo6kBpqYmdbrXyU+PuxrG0N4ObRyeICLHynRFzyUwdmxMZAA3gi9VOlgO+F5Re90kjnmw81gEqVuFLJf7IoaRvV3oUbrT9aGvaGT4Zri8w0rPm+TRAHrPJbGgN8JuJRF+QQ2GyT1ofMs01k397Oh+PqDs58RhH4auZPMnVu7LGIYOBpQxJLCnX23030nXJ7DTuRNjV23wvj2L2Ou1P5XHeHtk367Ka2fP98B3dEI0StJYMAy6m7uVQvSNnej8ofJ8AvS9WNobLoERdy9GzsWQyorCSj/+3+aUcVZ6t3cpTzCUt8O/7Y6GGFdQGxw75JyVxPCxIcS+zOcsLIjzZ+yHXWjbq+SuEg74j8t5Uh6rqwvdJ6MiDQ3FvTjvsz9NIPJmL3aKBr/OvsOvRu7PBuB7I4b8KuL9qUsj6G7rgvrMuvrYv+9WCtzYsUFMXCtcZXLy0/deEvvi7Nd+gTC4OoR27xDCl0oGbVbywRhGz8j/cJpcAMy1tDnUXhJnhzFoLFduZ5G8MIRuRwf6lcHOl0fzU90IKherfgReCCOp//qi5eN+Vyd6lKdPrLQWeF5Qy1SlPH5pAokvDJUAsT0LXyQRPTcE3w8jhou8DXYlgD6B0R8b0qtIpffU+91VWOb8Ucq+3aedE1GMndMCHs+ugYDH90Q+lnfpmsjHJedq+soYelxt6P6xtmw5NHei+7i810n0H+pF2OT87Tyo9tStnx0796vj6k1cHEP4vJLa4hrP8BIREdFaVn/9unId0n04qNQho6LdIz9MKV/nuZ1G7I1ueOQYhhybOGiMYWh3ZtU0ZqYDnR65chXB0Gtyncb8yXDqOExZDL7Ur/x4vKSXk1kd7euvv5H+bPa6Mt1e+EpaaR9//LE2twpuhCRRfZPEbi6Z7HtGpZl57X0W5t52K+91HI9Li9qy8hal+OsuSaTxku/LT5v8Uiitvb3IojRzym29rs0tDSfNtyIT9pivY5zEPlQrflxdxxPOaEtKzUlTzzuXfoc+bQ1IU6b7aCUjhfao6wYT2qIqld3WRLB4u8pOQWlpCs1J4zvk1xxiu6rLAZWPhV3yvzNrkp/iUtD0/YXJtm1Amr6pvX3VFI6NdX5YSk8H63X0/S1J95tTUmBT8X7np00eafREQJ1fkp8Xpdl3/JK9dJ3SqWS9ubDX8pyz7/FI4uIh5j1S6Ia2gkwvV/aEROqUk5Em99uWfK46OaXA632SS543fk7FPGuT3KdmqiyPVDOnrcokm+R6cVga2C3P176P+rlXes4uin0QF0bD9xQm2zaRplvU+drO9crnR34yHOP5DwYkl83kPcapZB/n3w+Yppdxe6t6T83fbXFOGK1A/ig2L00eMH6eSxr/XHtpiTLHxHAMrMvEkjxXwXw0YHl+y9fz4efV+eJ8VTlNLcuqr8S6W4u/Jz/ZXJJnl0Odr+HausTNSclv/Nzt4+KqY2U507u6zyIiIrpn5OtQZepZS1jXI+qqXwvV1CHn3ivXphFtiPdLagvJYckhXnOcmNEWVEfelvznHpoStUAzIg3y9VnzemFpHe3evkXugRa05p8eJw734y54Do1iKjWPufcCcJTrkJJ/algAwUPVjgfTrN6G9fkURg95DE+us6Ftm/bkutS4xWP6m+F4cQqpj0IIHnApA7bK5G32Hw8hnpxC35a10nPFDvfpGOaiowjsceZ74ihPFTs9hblLo3Cv+HgvK6/q2yMNbLvHEA+Pok8cw8LxV4+jnPemb8xi/ECbSX5yIpCawvirAXi2F9JUTmvlqYeRGaQ+qGVg8rvUBjdGP5pF6Ig6aLEsn68+mkTgKatnKjSj7cA45jLaUyO3FlJQTfsBjIs0zByRfxMosO8LIfVpCH35fCzSe08Ao7GMKCP61fug62aD5ycpxE8H4Nbzwianej6L7RzdX3qfs7C1D5nkJMaPFO+DvJ7n0DAmP01h6kVHleWRyvH8NJKxYfj1z1OelhFEKJHE9Ckf2pd58Hj56Z3xzDSG8+WYVv5FZpGKjcG3WXnbqmjZHsR0ag5T4hh4trWJLdGI9JSfGDIansbsGX3gd1XLrtHi9FK234UWQzpV9Z46vruiFcgfxVrg2qU+51KxwwtXmVvIV1PLjlHMyOfqLj0ttXM1OocZcT3vfFhZuHwedGLgwwymT4i01s5f9Xo8idnUNMYaHY9PtsEFt9IVXuXe5zKU/URERLRW1Vu/rqYOad8zjhktnuDU62FKXU+0JeU2RNEg3jnE3htGEi4EdtfWC7rFoY3DJBTGTi6ljcMkK3nKnK60jtYk92D68z/5T8qL3/2v/xa+89cbfERWBZ988gmefPJJ7V9ERERERERERFSThSh61+/E2I5xzEX9a+KHqvv4KXJERERERERERHefhSsRjIm//ue610wvaAaYiIiIiIiIiIjuGmlM/lh+AJI8HEPlh1GtFgaYiIiIiIiIiIjuGnb4oxIkaRTutRNfYoCJiIiIiIiIiIgawwATERERERERERE1RAkwSdpERERERERERERUKyXA1NSkTkRERERERERERLXiLXJERERERERERNQQBpiIiIiIiIiIiKghDDAREREREREREVFDGGAiIiIiIiIiIqKGMMBEREREREREREQNYYCJiIiIiIiIiIgawgATERERERERERE1hAEmIiIiIiIiIiJqCANMRERERERERETUEDXA1NRUmIiIiIiIiIiIiGrAHkxERERERERERNQQBpiIiIiIiIiIiKghTV9//Y305+k/Vf7x3da/he989zvK/EqZm5vT5oiIiIiIiIiI6F6w6gGmTz75BE8++aT2LyIiIiIiIiIiutvxFjkiIiIiIiIiImoIA0xERERERERERNQQBpiIiIiIiIiIiKghDDAREREREREREVFDGGAiIiIiIiIiIqKGMMBEREREREREREQNUQNMTU3qREREREREREREVCP2YCIiIiIiIiIiooYwwERERERERERERA1hgImIiIiIiIiIiBrCABMRERERERERETWEASYiIiIiIiIiImoIA0xERERERERERNQQBpiIiIiIiIiIiKghDDAREREREREREVFDGGAiIiIiIiIiIqKGqAGmpiZ1IiIiIiIiIiIiqpHWg0kyTERERERERERERNXjLXJEtOyy57rR1NSE7nNZbcndKIEhsQ9NTd0If6ktIiIiIiKi+4DeFhgSc3eh6xPYKW//wQgWtEWr4T4IMC0gdWEEvc+0o1XJIE3Y6OxG75sxZL/V3lJEz0jVTaYN6GwC4dd60PVEq/a+VrS75O+MIl3h6C58FsHQwS60t6qf3/pEF3peCyNRdTs9h9hRed0qG8XZGCaO9qBzs7ZPre3oOjiEyGfWG5r7MonI2UH07u0qrKfsYw/6z1qla8HC9SjGDncb1t2Izqd7MHQuUX7db7OIvdmLbufGwnp7ezF2KW150tS1rVeHtPdVMxnTeRnyzhI5JF7rVNfZG8bqh2uyCO9duu3yJOfN7sNjiF5fzSKLiIiIiIioBpbtuyrbocvhyzC65e9cpTZd8qJop8GGgf1utGjLyrVzNzq70HN0ovG23ddffyP92X+cU6bbf/mVtNI+/vhjbW4VfDUjDe+yGe//K542+aXJtPbevLgUNHuvxeQJZ7T1VHPvBySnyfvyk+l3qubCXslmto482dzScHJRe6e5xfk5KX7aL9mVdTxS6Ib2goXy22qTXK/HpaXfWEX6bA1IU6b7uCjNnHJb76OYbNuCUtwsG34lvner+Try5Hx+SprT3lpQ57YmgubvNZ2M6dxY3jFTlCf2hKTKayy3jBTaU7zdS6eleSUT9iivVbOPa5d+PCufS0REREREtEZV075b0k7X2wKifaotaciNkOSRP29V2nQz0vAW8V22km2vqp1rl/zvLW1ZV+se7sGUReSwG/0Xs7BtG8Bkah6iAQyxz1hMTyO4SzTbr0+ge98QkjltFYUTA9r7yk7JYfHOEuLzep8ZQwI2uF+fxtxX+vsXMZ+aMnznCJLaKnnXRuDzytFMJwLhGcx/o617cwah58U3ZaPoPzS2dD1Bvx1p3fqN6HxhAmlteTm5j4fgU7bVDv/peGFbF+cxEw6Ircgi9ooH/vMm8dXHvQiGpzCTFmmqb6fYx0xiFP5N4vWrY9h5fGlXvNzlQbhfihb2cVFb95tFzCXGEdgq9uXKIDxHoyXrLiB61IPBq4BtVxDTNxYL3xkLwi2SNfGmHyMXTaKt9Wzr1gHtfeWnmVOlOaCBvGMid1UcI5EnYBM7uAZ4wpmi/Vicn8P0CY/IQWXyChERERER0ZoQRNzQnpHboZlkCH3brGIDd6fclUkMXwMcL7kt2p0l6SCmxYwWd0AaE3t9GBHr1+Ve7cG0GBtQe37YAtLUTW2hkaFHjD8yry2slt6rwy2Nf64tEmZOOdSo3/NTJj1/hK+mpIASFXRIw0ltmWJRmn5Z7WnlODGjLTPSIpDi9cD7S7dV7y1SPJXrdTEnje9Q3+c8ZfZ9hp4zW4bFt9cgOSw5lO/3SpNFodl5aeqQ+p2uM7PashKpUcmlrCuOmXE3Px+X3MpyvzRpciznI37lc5dvW6ugR6B3jJv0nCrHPO8skQ5JXpt439agFI9qkeY73IPJqjfS3NvuJenPHkxERERERLQm5HvuWPRG+mpa6pPbXuI9hfb23dqDSY8tmLQ3K6WDIU7gsIgTVHLP9mBKXZ2A0p/iOR/cG5RFxR50InDUr8xOXIip761S7vIw+s4DtiN98Mm9YDS522r/ItcTbWhW5ko82IHOPfJMBrmiezyTiL0hb4ELgd0OdVERBzyHXcrc2IczKA2q2vZNGqKPcYgTobys+L5L8owHvabfB9j39aN/i5i5Nozox+qyqmzphFuZCSP1hTKjyWHhljrn2GRXZ0p9r0OkgGweOcNOphNRROWZI17TY9myw4s+eeZaFDPXlUXVsdzWSnKIne5DBDb0veiDxd6Ysso7RW4nMLTPJ7bKi9C5ATjXa8vXKPt2n8hJwrU4UqbjfsnjoA2hx6WPg7YRnQdHEDM96XLIXp7A4OFudOXH2hKTPDZYhfG2FNlY8fheVYwpZj2216w4U02U3j+tfOfO/LhpTc9GlOWJ19R/D12V32Si3H3YS8ZxK9wXHblmmnBERERERFSPB13ofk6dHbuWUmfKuZVE+M1+9DxdGDs5X183GT9ZuePoUZ9oPwrnffmxofWptL2wZMzizZ3K2Lfm7acSt6IIy7GFHR64rNqbluxo17o8JW+bd+WqtG33bIApJxqNMs9m69uLWp5wqgGNd1NV3VamSmLs2IhoEHow8oKrKJBk36Q0sxF7R2Sq28pssdwsZs6LvzY/nI+rixTXZ7WR6Z1ot8gE9ifU0AsuJ1FFli/v25wWpGqD/TFlxkQbHNvlv1nMfF5NTtYszGsBAA/sRUlvE/ugLgi9GzFPb5EOMfnvDhcc+XVzSH+qnIrwPGE3D9w1t6NDCdzFkEyVDT8Us9zWCq6NYfCkSJM9I+jfbrpFFqzzTp4cXHpGvh3QieCFCXgtj88a8oD210wqhH5XG9o9g5i4ktICKWkkzvajy+FDeElgbwGxH/dg6K0IYlcNuSSbQuz8GHrdG+F+Qb7Ncqn0+R5sbO1Cr1g3oQca5fXODqL7iTb4zpnkulsxDD7Viq4XxhDJf5/YPuW7ejCmLTE3j5mz+ndGkdI3yhgdrYN8a2SXoxO+YxOIfVbY0/TVGCZO9qDbMaGVF0REREREtCx+TvtbjetR+F4YwcTlWKENICj19WM+dDp2YuxafW0CuU3TsXlncZvmegKRt3rR1dqJ3ovlIxfZyyFMiL/+57pr6giR9436x/Hg0tZqNdt2zz9FLv5lmYBD8zptRPVZZMxarCay54Lovwo4Tw3C+4i2UGPbPYhReZylq4MiU3Vj6EISC/meSjkkTg5iBDZ4T/fCZTxet7JqYAXrlP+bam6G0tdIZNTGmq9G6TL73Yx1D6lz8S9M+3GYyiXjmJRntnSirSQ44jwwoY6z9K446Vyi8X4la9iXNMLHB0U6OBE8buwVtICsHoR4wCp9mtGi9WzKWERazZTbVmtZhF/vFw18J4Zf8YqjWb1yeUcl0uCwB4NXAG84hIGttQSv7qBbGbHlMjtsJT3MIq/1I4SdGI3OFsbcujmD8f0i5bJh9L0dW5Kfm1vkcbOmMZspjJsmj5s1n54SaaKOtzV6pXgtZbyqvRNIb/JgODZXPL6XMk6XOG7eXkwU9XCT07tL+cVAHttrKjWvfZeYvspgNirW095p6nwvdr6Shuu0cbw1Mb1XW74olsLEi+I8yMrlhGFsNDHJY17NRMbRt6/ZPDhJRERERER1WMC81uR1VTX+bTPch0YxmRTtDmM7QLQhZt4WbYFsFL2vhLQ2kmhryHcc3Qipd33sCSGjv1+b5DaOTBknWW7TiLZm0ZjFX81h+nW3aGMkMPZMaZvGKI2pd+XOGX3w7sg/O656t2OY/LE8Y4N7S5uySFfttiljMGU+TyvTvTQG09w7+rgwA+ZPJZPp90FWO8aKfm+mrU+atvrMbzLS9AmP9iQ3ebJL7kMDUt8eu4RNHmn4w6VjKM2/H1DfW+5+zKq3tYpxYxanpQHtHlPPT6xHEIofV9+D41Xedbo4kx/Xyv2OxefOz0qhF12FJ6PZ2iTvkQHJv80m2bb1SaFU6ehVhfGnggltkYkV2VYTix/0KdtuOzJtPs6WlYp5Z1Hsg1Nsj8nT+/R7ZdfkGEyL0vQR7UmNByYlPXfrYzA5Xp3OLyui52dbsLZxsz4cUD+36J5g/V5hkectntC4GFXPMeN6+XHaLMsIi3NJ3/YtfdJUmQOi50nLfGt2H3b+PF+me72JiIiIiO53lcYeyo/5axwrud4xmOak0G55vZJxhc3q/kXmpckD8nqiffq2eft05pTcXhRt0Zct2qLaGMOWr1ulwzeLUiYZkvpEm1z5/P2TJdtY/bYpPZi0b7mn2HcFEJCDj9eG4PEOIfaFocdDbgHpaxGMHZ9AXFnQjOZyt/kockj8qB8jWdHcPNUP14Pa4lK3ZpH8KKn0pAieHkZgBxB9awgj5+X4ZQ6ZGxnttqyC3O3qewgti2YXuo+qN1dGnvWh91wSC8bkkW8rOjeE4Z+o/7Y9UE1/iQXEjgfUJ73tD2H0gHmHvIUvk5i5Ngts68Pw6T54N8wjfHIIE1dEwt7MIJNZkjrI1TuCvaXqtnWJXAIjRyvc4maqct5Jn/PDcywB5/EIpl523gU9VHJY+CKBCZEOXfLtgnKPrhc8Wo/AAntb+5Jlikfs6JD/ilVN+5x9u4DUlTDGTqr3Nnc93YmN8j2+Tw0pLxfdE3w9hrA8ptiRADwWPdGan+hUfjFIJtPa7XU5xC8NKfOeo71wWp3P5WzuQEc1P3DU4sEWtCozk5i6UsPtnkREREREVJvbWaREm2DnUz3KmL+2Q0H45XGIq5QTbdvI2RF1/Fi5zaKMn7oRvgvyq6LdbzZsjpWFOGJn5ZkAAnvM26eOPb1Kmyb7RhRxk0ZU8nIISTjQv7dSW3UQndr4T8r0c+vQ6vBh5ArgenES8Xc8xXdk1LBt9+4tchvcGL4QhEukTPbiILrs6woJuG49Njq60XtxVntzO1orNRSvhxA8lgS2DmNwn8WbvwjD5+hC/w0/4slJDDzfh9HoHKSbs5g67YfrdhQj3nZ0HCweg6j5QbVJuZocL4YwqQRWEhjzdmD9ukIGWycPjOwdRVw7ITofq7R9OSRec6PrjYRInyAiZ7ym93vKtzG5n/Ah9MgI4rFh9D0/jNCnGSzeiCN03IN1n4XR73Ion1M4X5rRXMNJXll122om/W4Qg9fK3eJmoVLe+WwMPm8Y2B9C6NW1G1yKeAsDTjc1rcN6eyd63hTpaHNh4IMo+pbpOKUv9KPr0fVod/nQe1S9tzl2OVF0zhgtpJLqLaYnu7Auv30lkz6oXn58pJQogOW/NnSUGadt1bW44Dkib08SQy5RTjl70H9yApErSaSNUWAiIiIiIqpRSWDloVa0uwcRzQL2A+OInXCb/zheaiGJsb0bse7RDnQf7FfHj5XbLIbxU2v2RUrt/LLFjlarjdB/pBcto6z2AK28XAyTp0Sbc4sPrjrbZe4zMUyf8sBe2vmmhm27p8dgat46gOmkHLzww/W43oi0w7ndj2A4jszFfrW3wG57cYRuiQVET4mMJ97VdzygjoW0xAIix30IZ20YeL2vuEfEhja4nx/H9KeTSq+q9NkARi4Weie0PKwFcD5Mmz+1SpYf56YD9lqCG5bs8Lwzg7noKAJ7nPkgi+1x0cA9NIqpz+MY260ua3u0XOosIPGaC53H5ICNSO+LAxa9QcRJeGgQCbgRPFYc1Gl+xAnvq5OYTQ6LV7OIvdKHsXyvpVa0blbnZm9YnbCFe2Y9Vk+oU1S7rSZuRTFyLCoSqA/B58xzgLkq8s5tsV3ijzw2ldJLp3RyDqrvMzxxwPLJZKvIvtWDwIlJzHw6jeD2qoriinKX+9HpUZ8wZ9/Th/FIXBmLaX5+HovfSJASS5+RWF8PQL1nXGdtA7yvuGa4Xk9i+oQXbXJZcXUCI0d70O3qwMb169Dq6kf4pww0ERERERE1zNYG1wHR5ohlMPuOH21VtQ3TmPB2oFe+Q8nmgv9ECFPyWEyivTI/vwhJyiCkPICqRrmcaDELm0X7V1lQTg6LJU2C3IdRDIk2lPsFj0W8wiiIuGEMqLmwOoZs9HjQ5CFMQg3bds8P8g2bHLyQgzsZLQHnEP9gHAP7nFj8NKYklOOptrK9WHJXxzD4ljhaO4IIWD01LDeDuNJtrBPtmy3es8ED/wvyocsWP/5wg019ml120dBzp8TtefWgblnOAX5bYN8RwOh7ccxpmSvz6TQmzwTgfiSNGaVrXwCdxifeFVlA7BW3ErCxbROZ9FIQrpJBnvOuzyCqNeitnpTXvMUH/355LoF4fjj+Fti0255yuUV1Zol5LGhvbzUZ7V5Vw7YukUPirUGMySfs6wHr2yNNVJV37hKesH4OaQVRYhKjR0QBVnU6VpJF9F35FkTAeTyO2feG4d/tRJutBS0tLda3seq3cIp1jNtnOuUH4BbrKDMLSwrnO+4BUR4cCWE2Iw9sPoPpiCivDrmVgFP2ygh82/yIfKm9l4iIiIiIqlQcWJEys5h+R7Q5ttmqb2N/HMagPDyHzYtQYhrjR7xwb7Er7ZWWlgbae/pDvT7PWHc6yWvGuqKvWkD03Ij464d/V7X35xTY900gctwpGhth+PYNLX0ifg3bdu8HmCwlETkt32npRmBXuRhfGqHjg+LdDgSPGZ9uVmJhQUvsCg3WZpOY3yN2LcqYwKzFiPDplNzHRdjuQPF47itj4VJYiYDaXvbAZdY55XYKE8+2Kbea2faPI/b+AJzlOrEsZKHekDhfJn2a0bwkeNMM+2Yl/IbIp2nzAFxOD4a54Ggz2Yhat7WUfovbliAG99VywlaZd7YOFAdBSie9147hiQP6kwbuLWmk3pX/uuDfV/2tgrbNHer58+Gs1suvGq1o2y7/jSGVXtkI02L+SZK1akbLYw64dvsRPDOF2RtzGJd/DREFf+hDLaJKRERERESrJvv5jPKDOPb7Lcd/LUu0DUy7TTzWhk7577UU0qW3v+muz2pPny95eveXUYTkzi4H3DV0ojBqhvPVEELyk76vDsJzOFzcrqph2+7TAJN8q1QA/ddE4/RIH3wWPWpkCxdHlAilPOBXoNxj4212dCj3OsYwcc44hpBRGjOXlX5IcD+i9qNQNHfCfUSeiWHsgvp6sSQiZ9SsFHiqo+qGd92+CCNweELMuBE8aDJA2BdR9G5vR8+7WThfnkbqJ1V0J9zkQLcyE8LEBYswwO0ZxJRAkU3ptaKzb/OqPbxOhhE1ydByMEyO12KLGx2lx7KebS1SuMUtcDwAZw2JX3XeIY0+3ta85YB4CzdM8s4WF3zyepcHMXiu2hCTDY6n1MDlyLmoOMomvl00L/yrZLOpn59ImW/TwpdLB/wv6wE72p/Q5omIiIiIaNXlx0++tWDe5r+dwZLnVskesasdRS7MqgGqUi2dcB2QZyYs2ss5JM5NKEEc28tudBqal+nLIURE+2Zgf5VjSJmyw3smguBWKEO3+F4zxDRq2DZ8/fU30p99nlam239p9ez95fPxxx9rc3fA4rw0lwhJwT129cF5W4MWjyfXLMaloPKIfLc0/rm2rIzMe17t8fs2yfXqpDR7s/BwwMX0tDSsf6/Zo+qTw5JTWdcpBcIz0vw32vKbM1LoefWRf9gitrfis/EtHq1ehcXMrDR12i+55Mfpi33whk0eQSg/wlF//e1Z88cfmlqUZl7X9gN2yX86Ls3l02BRmjc8FhE7xqXib56Xpg5pj0zcFZSmb+jfuihlYkFte0weo1/3thYsJoLKox6XblMFNeadsvTHSVo+0nIlZaTQHov0LSMT9lRYx+yxn4vS9Mvmx3lenD+jz7m080tMx4sfFjr/fkB7zS55TkxJsxnD0RbnfSYVlyZPByT3CcN6+qNCRf5wvz4t5VcR75+NDkueTdp3lZ5LFR8xqtEeEwqbVxpPFp5RupiOS+MvGvbF+DniWLftC0qh6Iw0N2/Yh28WRdk1KnmV/Ow0PD6ViIiIiIjKsno8f1lm7RVBbmMqy0va7V9lpJlI0LoNIVqT49vl5XLb1LCeweJHQS0moLaX8+2Tr+ak6dfdWvuhtH05Iw3L7U7bgDRtaD6YqiId5Pavug3F8YBqt+3eDjDlG5BLJ/ueUWmm0OYzNfe2SCDxXodozFY6VqpFKf66oeFoNm3yS6G09vYii9LMKf3AmEw2t2hUmm+F3pgvO5U0yGXx4ybvkyebS+qLWIRT8pmymqk0485Jkwe0IJvFZNsm1jE7LukpKbDVfB15cj4/tTQA1NC2ykQhsEN+zSEFE9XlAF3teacMfT/u+QCTcFMc53yhXDJt8kijJwLq/JL8vCjNvuOX7KXrlE4l682F9aDw0sm+x6NdPOoMMIlXJ/drQdMlk7ggvd4nueT5kgCT+fv1ySa5T800nqeIiIiIiO4X+Tq2dWBlKYv2ijBz2qrNb5NcLw5LA7vl+aUdPgo/ihdPwYT2BmHuvXJtGtGGeL+k1av9qO04MaMtKKPKdCi0kZxF7eBqtu3evkXugRa05p8eJw63/oS01Dzm3gvAUa7/WP6pYQEED1U7HkyzehvW51MYPeQxPLnOhrZt2pPrUuPwmt6r2QzHi1NIfRRC8IBLGdBXJm+z/3gI8eQU+rYs721WzS2Fp8fJXeLyT9dLT2N4t+WIQQ2Qn1w3h0xC3Udn/nY28d17AhiNziEVsxgf6TE3Ri/PYep0AJ6t+rYV1ouedhv2ZXnUfYtbXXmHFBvEcf5oFqEj6qDWMuVpdaenMPfRJAJPWT23oBltB8Yxl9GeGpnPI+o55Dk0gPHIDDJHnNpSlX1fCKlPQ+jLP0lRy1OxjCgj+tV7jetmg+cnKcRFnnXrZcEmp3o+i+0c3d+xtAvr1j5kkpMYP1K8D/J6nkPDmPw0hakXHcxTRERERER3iOP5aSRjw/Dr9XXlaXRBhBJJTJ/yod3i4UQtu0aL11PiBC60GN5v3zOOGS2ekG8vK22BUUzLbYiiQbxziL03jCRcCOxWR3VeDvlBv5HA4G5//sly1Wxbk9yD6S9u/L+V1777NzfgFx76jjK/Uj755BM8+eST2r+IiIiIiIiIiKgmC1H0rt+JsR3jmIv6l73DRT3u46fIERERERERERHdfRauRDAm/vqf614TwSUZA0xERERERERERHeNNCZ/LD/5PQDPtvqfHbfcGGAiIiIiIiIiIrpr2OGPSpCkUbjXTnyJASYiIiIiIiIiImoMA0xERERERERERNQQBpiIiIiIiIiIiKghSoBJMkxERERERERERES1YA8mIiIiIiIiIiJqCANMRERERERERETUECXA1KRNREREREREREREtWIPJiIiIiIiIiIiaggDTERERERERERE1BAGmIiIiIiIiIiIqCEMMBERERERERERUUMYYCIiIiIiIiIiooYwwERERERERERERA1hgImIiIiIiIiIiBrCABMRERERERERETWEASYiIiIiIiIiImqIGmBqalInIiIiIiIiIiKiGjV9/fU30l98+WfKPx56+G/gOw99R5lfKXNzc9ocERERERERERHdC1Y9wPTJJ5/gySef1P5FRERERERERER3O20MJkmbiIiIiIiIiIiIasNBvomIiIiIiIiIqCEMMBERERERERERUUMYYCIiIiIiIiIiooYwwERERERERERERA1hgImIiIiIiIiIiBrCABMRERERERERETWEASYiIiIiIiIiImqIGmBqalInIiIiIiIiIiKiGrEHExERERERERERNYQBJiIiIiIiIiIiaggDTERERERERERE1BAGmIiIiIiIiIiIqCEMMBERERERERERUUMYYCIiIiIiIiIiooYwwERERERERERERA1hgImIiIiIiIiIiBrCABMRERERERERETVECTA1NTXlJyKiRmXPdSvlSfe5rLbkbpTAkFIudiP8pbaIiIiIiIjuA3pbYEjM3YWuT2CnvP0HI1jQFq2G+6AH0wJSF0bQ+0w7WpUM0oSNzm70vhlD9lvtLUX0jFTdZNqAziYQfq0HXU+0au9rRbtL/s4o0hWO7sJnEQwd7EJ7q/r5rU90oee1MBJVt9NziB2V162zUXxb7L+zzL4ZZK+MoXdvJzZqaaGma+V9XOKLMHza/g5d1ZZVo9pt/TaL2Nl+9Dg3Ku9Vj0cPhi6kzE+2q0Pa+6qZqkznCvuoB2Sqm1azkMsivNdsG9S82X14DNHrq1lkERERERER1cCyfbcRnU+LduG5hEVsYBl9GUa3/J17w6KFtfKSF0U7DTYM7HejRVtWLIfs1TBGDncb4hZ6G28QE5dEWzmnvbVqopX69dffSNn0nyrTf/nqv0gr7eOPP9bmVsFXM9LwLpsk9tR82uSXJtPae/PiUtDsvRaTJ5zR1lPNvR+QnCbvy0+m36maC3slm9k68mRzS8PJRe2d5hbn56T4ab9kV9bxSKEb2gtVm5NC+wvpVbpvBYtS/LizsG2l09aANGWxj0t8JdJ7a2HdYEJbXlGV25qekgKGzy+dbNuCUvwr7b26RND0veZTFelcxT5mwh7DZ1aaxDZr6628jBTaY7YNxskmuV6Pi1xRoO+PdR66G+hlQT3nEhERERERrQnVtO+WtNP1tsAytb1uhCSP/Hl7QqKFtdJmpOEt4rtsFtuenpT6tpWJk+iTrU3y/mROW6kaceke7sGUReSwG/0Xs7BtG8Bk6v/f3v2HNpHmfwB/Cx7Ew4P6/XowhT3YiMK1nGB634Mm4B+m7IERD0yp0AS/4KYuaKqwJhV2m+0f3dQFTfoFt1HYbRROEkFpCieNcKXpH0IiuJcp7NEcKI2gkICFBvRojl2Y7/PMTH7PpOkP64/9vGDsOJ3pTCZPRj+fPs/nWQELgMFeNVazc/AfF+RuY739YxBrMnNmDKv7NV3EANuzDvt5g38JIQUBtstzWHpV2n8VK5mZqnMGIaqHlC0E4XTwbKYZ7mgaKz+px75MI3KenSkfh/dsqPE4ptT7ZdeefbBcCCOrbl+fIlJfO+G8DQjsMpsp3PfCPpJiO9rgT+Qq9/W5el8fheC6Em+hK14W0XN2+B4Ja56zVovXWhQx1n8MoUeA8fQEktnVyvshRuDuZvdu3gf7uVhtFrl7WN2v+ZIeb2gBGlp7jUL/lOY5apcVzJxd143aUvZoruZ6VleWMHfFDiO7e4kv7XDd245cPCGEEEIIIYRshB/JqnhG+mkVORYXeo6wGEszN/B+Ks5PIbAAmC7aGnMWfGSNuRfBeRa7dbswEV9Erpy34DFeDouJCPx9RhYsZxB9tp4Yj53tQ+3BtJoYVnoDCW5p5qW6sVpVrxJXbEXd2KpSrw6bNPlE3cSkx01Kpu/8TE1vjrJXM5JbzgaapICobpOtSnNfKBlE05W0uq2amoFk33f/rfFatXu/rK/XRan3lHk0Kc2MKj9Du/fJkjR5VPm+5n17OSW55PPXv8Z6pV5QguSIJsu9ZFrpwdTqtS7dtMnfQ3eA3UEN2YjkEFq5Vg2lDPTRSXZH9Gz8NWpZTfklEzteGJrTbl9vRKUHk15vpKXv1Pt8qHKfqQcTIYQQQggh5J1Q7sGk06Pn1ZzkkePC6nj7fe3BVMot1OYqFGkpoOZAhFOT0mL9SJ46K48nJPuV9b36D7YHU+ZRWOmVcsYJ2155U63dZrgvueTV8HSitgfLGoqzAXjuAcKQB8796kam+FrpX2Q92AGDvFZndxcsfXwlh2LNGE8RiW/4FVjhPmFSNtUwwX7OKq+FHqZRn1St7f2SBPsgrEvx0ZjcewqnIoh8ZcYedbumZynEH/AVDxxHNUZz7rXBMcRXRMQf6/elyt5xyb2gzKMxhPuN6ta1tX6teYjzcXnNfs7O7qCGjx3wXuTfERF4oNU3TE8RiWsexCDA87kTele/0deoLYvIqI9dqQ3+z6za7estMX7iBHtYAgtJZDTrUfE6aGMYsJbqoO2D5dMgEpofuiLys2H4+Fjgcs0strR3oufkIEIPss17xuUTCLFjLQeqjvt0DLF/NjmK1+j6dhC95fOx65PPtcg+qRrqx0/L5zxWrpu243+VHnGpr5W/69YVazYOu6GOG69x1oOBS2HEFjRvHCGEEEIIIWQjdlvRe0ZZDS1klJVmlkVEv/Vi4M+V2snl/69r1E+WRxz9zsniR+aes1wburTUxwuFp/HamOaARa59qx0/1VmOI8pzC0ftsFblKrjCdAhefi7BjfC4Cx27le162v7HjamhVkbtVHywCaYiCxo5+wH9IUVtB82Q0za3M+sYViYiNBJkAaEdwQu1gb5xvxxmI3GTNarX8mqt4iLS99hXwQXzH5RNsqeLatFmMzrrGkGJ8aCSYMKsiBaafMt4wubYCR9S3X7Erjt0kyUlxSdp5YNxogtGzSyHAZ0m9T6I2kW0s/dY4FyVJGo1WbLua1UzcR1G/T07Din3Nc+uteWwfSEE31W2d18Q3k+0r36jr1FP4X4QvgeAadRXk9R8J+xUv2rJROC1dqDT7kN4vnSPs0jd8qLH5ET0mbyhSgGJ7wcwdiOGxKOqT2U+g8S9EAZt+2C7ENd8r/g939feg0F2bOqpupEfd8uH3oMdcN7R+JQvJ+A73I6eCyHEyudj1yefawAhdYu2FaRvlc4ZR6Z0UaWGt0G8nfeYLHCOhJH4Z+WVZh8lEL46gF5TeBuLvBNCCCGEEPIL8Cv1ayuexuG8EER4NlGJARj5/+sjTlhMxxBa2FhMwGOargPHamOapynEbgyip92CwfvNMxf52QjC7KvrTG9dvFxAcpZ/h8WUF13anXC2wAc/i1zyRZOeC4ZdakX1ReS0IlYN+Tt+OetnHvfB8ZG6USWc8GFCrkHkY42qF2PTIgrlnkpFpK76EIQAx7VBWKszDst5JOSVXfKfmgwGpRcOa6hbNiz0WRQuds0JOBC5MwzzGhlMrrCsNuid+ldr2N2urCwXGq5V7oF0Moxsi0misg1ca0m2yZtr+I3aB+phVru3SoM8ope9LMA3I/Clg72bjTb8GvUUUwiNhJAX3PCf3Xyyasst59QErRFC3YMq9rUXERyTx/aurKq97F6mMXmK3bl8FJ7vEg1txNDmgD86h8VcpW6axOtmZWcw3A2kvnVhYr72qPI9329HILFUOddPq1hK+GET2PvmGES49JCW8fpYPfJvDITjfsxkVtRzseVVDotxdpy6p6Z7gzj2ZRbWa9X11thyV7tdtCaD8Oesnef5cyJZ83N5zat0bBKefsO71wYIIYQQQgh5bxWwogaD1paKAxtgOzuBKZHFHdVxAIsh0t+xWCAfx+CXkXInFnnE0fOIMuqjL4JcaX914TEOV/xBjWlKdZlLMc2rJcxdtrEYg8WFf6mPaaplMXObdwfRGm2UQfIG/yqg97Dm+J4tISeY5EF4fOUDInykhIb5u1PavYlqFOuGrOl4nUDgInvDBA/8ZzTeFIMJ7pioFD5+GoPP3oU9v9qHY+d88J7shOWv7Qg8zCDSV9toCy/V1txn1E9G7G1Xv5dGtpVp8dfCp/jvdyIKK/zTYTg+VrevIZdXPyYHjbpBdNtv1QTTvWz5QyVTk0Sp/S5MrSdJtKFrbYOwX7nC6L1E7XVoyfNWsLbK8Eg/3IfUjdU2+hqbyN72w7cA2EY9byzTvHFFJKIByAMMT1vQVZf5MH01h0xiEu6jHWgrfW+vCa7LQfkBm7+VquuRJ8D+XQTD/VZ0CG1ViRQD2j62wX91mK3nEa/puqoMH0yxnxiZnYLniLFyrp0GGHmR/5tu9pc4QvcrQyGL82H5vcShYcSiw7D9vuohvFtAx1ErLOpfNR3yYEacw+R5K4xb8D7LXohIyF1kBzF43lzzcw1tRphOuBCIerSHfBJCCCGEEELW7+kUQnLyxQTbn1roHtDN4oDrbtgPsbijOg5gMYTpjB/BE2z9gYjM2rNeVSkgfp3HNCzuY/HQRL+pEtPsNsL6xQzi8iRTcfhuNv6SXrYQQ+gBi6i+sMFSF5fhRVaNuyww1nWU2UofbA8m43E33Dy/sDAGu2MMiWdVb0GxgCy/+aNhJOUNBhiaDfORFZH6Py+CecA+7oVVL6BcXoT4WJR7UvivBVhgzZrAjTEE7/EURxG557mGYWPF1631ndk6pZnNzPBP814h9a1PX6nO1LqVk0QORGYnYW8xobXxazXAetKrVM2/54TzQhTiclUbeJ1HZj6KsXGlmyDPlq35k4spBC9pD4+Ubfg1NvEiCu9nceCQH75Tm+4LtYWKKDxLIczuQw8fLsh7dF2wqz0CK4wdnQ3bZB8Z0cW/6iX2fi7I70/oqjK2uefPFuzj448Pj8nfFl9XHfU0gSivCzbEHvI699xw0CIntEQxy0/JFJF8MCav2y8NbiwReKALXXpZ1o3a3QYlPTuFmfl1/YtECCGEEEIIWQ8eE7KY4NjhAfDqvcJZP1xanQh0FF+IiN0KKvVjecwi10/dB+c0/y6L+9fs6FKlkETiFl9xw81ncNNg6htUfkn/TRxJjSBKnI1AhAnek2+vZq+cYCoVl/qg7LUhMO2HlQWA+fs+9Bh3lV/njl17sM/Ui8H7i+rOnWhfK1B8GoF/RAS6A/D16+zMp/wz9cD73IWkOIXh8x5MxJcgvVzEzDUXrK/jCDo60fVprKZHTXlI2TbJfKtM8e+IRtaVXOIMuzfSd6KA+JelJFHrvaW4zVwr72ESueuSe36l2M/p+m1VG/hNOzqtTkw8XFX2PWxUA3t9pZ5EWsMjN/Ma9VWKibtH3TC/raeEKuaoFJzesWMX9hgtGPg2xZ7EVgz/PQ7POh7GzWSnvej53R75/Rm8pIxtTsymdHuhFTKiMsT0ag92la+vbikV1SvXR8qwBzD/KqCrSZ22bddmhX2IX4+IMSt7TpkH4L0aRmxeRLagmYojhBBCCCGEtMQHS3WMwGNCmw/xPGA8PYnEFZv2L8frFUSETu7Drt91ofdTr1I/lscsVfVT1+1ZRun8cojFpXoXUfolPYuM8svySkUxgalxkR3vhHWL4rKN+KBrMBm6hzEnJhEZdcH6h1IQaYT5Exf80SRy971KUuGE/nAvRQHxcdbw2F4eFuhrp1gKiI06Ec0LGL7sqe0RsbcDtvOTmPtxSu5Vlb3lRvB+pXdCeUhZszpA5To3XZvu0lYo8I53vCZN1SxdVYtlRNmvklAYKxcVbhfUbOqTnNoTpFHjkL8iCnm+dwo+c1WSp7y0w8mHKjE+s7pNnVlrM9fKGfsmkX4yg4mzdphLxbGFDlj73HLyL3m9V9n2+zXawHIcwZE4O9ajPTxyE69RV6mY+FE/PMdbetRtK2O3He4rU0j/OAf/J1tzfcVZLyx2ZYY5Y58Hk7GkXItpZWUFqz9JkFKNcyRurAdgEcUF/tUCY/MP/zYzwHqZD7N1oIM/Kx6FEbw0gF5rF/bt2YV2qxfRf1GiiRBCCCGEkE3jceFpFnMkcli8ufasaooswo4uDPIRSoIVrisRzPBaTCxeWVlZhSTlEJFnjl+nYlEpO3Kgfc2ODzyWWa0LCYoP4xhjMZTtgs4M6h8Z0SGvJLem5I6OD77INwQzHF/x5E5OLaK1hOTfJzHcb8bqjwn5TTQd7tCvfcQUH7FA/4YS6Lt1Zg1DMY2k3KXNgs4DOvvstcN1gUez+drpD/cKymx2+VXWVHS8XlEa3KG3W+C3ba96p16zRq2sNVgpqAH/3uoaOm9P234b3NenkHyiFknLLWLu7gTcR9uRfTwl7+P+k/Jx01ZE6oYPIf6BvezWHx65pUrFxAUMDzmbts/tYo+WPkPKspSawsQQe4BtWV2oPOK3+RBEwDyaxOLdAFwnzHItprY21pb0hrHuVFsZO6b6+jSXcgFudoy8Umh4OL91O9nzYCiCxRwvbJ7GXIw9r87a5IRTfj4I5xEXYm/wHwVCCCGEEEI+TH4kq2MDHhfeZDHHEaH1uPWHqDy7NwQHIqk5TA45YOO1mFi80lYumrQBpUm9nuRamHzKgF01pyogfifIvrrgOq4XORrRKSe+8ph6KGcW3ogPP8GkS0TsGh9paYP7eLNhX0oBYT6W0T/SJNAvFNSGsEbAatDIR35kVLOMKSzqVITPZtR+OZ+Y1Mzjxpm/qvpQaSzJUWW/SkJhWKllxBiMHUoybDqNrObrLCL7ozwYCVZTh9rFUIDjbuN5Kksly+tPqdvURMBmrnVNy3FEv8mzyxuGvVkPnNLwSF4HqV+vBWz8NWopFRNHXxCDRzbxoHqvZJG5zb9a4epvfbY84UCX8vl5uKj28mtFOzo+4V8TyGg35C2z2soEApp4YXMTrCdc8F+fweLzJUzyNpSPIvKQp+EIIYQQQggh2yn/JC3/QhynXLr1X5tisYFmR42PO5QJhhYyyNYPfyt5uqjOPl83e/eLOCK8s8tpG6y6v/wXYOt3yWvieBhxvXNs0i80wVRA6ms3vAvsNg954CwNndJQuB+UM5S84Je7WQ0gwYgueaxjAuE7KZ2eSFmkZ5Vsoe2jqtSCwQLbEF9JIDStlU0UEbuuNCX34a7Ws6tvwn4rHHJgHkT0gUYRYp60ucpXWqzA/7b8nEX0ohu8xLeND6HUvamV4ZHbVwdJRGiE9+QxI/DlZqa8f98YYJA/Qyu6BfEKzzVSSIescPLjZn3w3Wk1xSTAdFhOlSJ4J87eZQ0/r+r20muFICg/P5XRvqbCi8aC/03tNKLzoLpOCCGEEEII2Xbl+snLBe2Y/3UOOa3/5JeGqE0vKgmqem0WWE/zlTDC01rxQxGpO2E5wVQ/S1x2NiLX7R0+1byGVNtRF/w8bsqH4LoYRmaNIuSFf0YxyGvursMvK8HEZ497FMXYyS5YRtiN6vYjNtKkwnoxxQL9EGsANvgvrlXwywSnmgxIjdhxbCSGTNWsZcVnCQRP9mBA7k7ngaemMrwBVkdA7nkjXnJj8I6IQqnXw7KI6AUlGcZ70Di3qNbNxhnRe94tv87wOSfG5vPlD1bxRQJjnypJG/R5laD/XSPPFBDCwJ8tcN7OQzgVwcQZ/URY9fDI7aqDlL/jh/cRayZDfrjfxXv4xnTAdJS3LBGBkTEkXpRbFgrs8xP6rAcdJ9VZ/2qY4BrlbZLX6upB79U4Mvmqxz373Of/lULs20Ecu1p5QBrZA5bPwoBbbji/SaB8CNs/8yCI3o4eKHPWbYzxTza5Z1VixIfwQuVfmSKffe8iey1mr/obiCqPxtDpGEP0QV1R75+L7NkVwsR1/hczLHy8HCGEEEIIIWRbtXWYYOMrtwLwVcftLM4Up8fQa+qCV55MqJ4Ao9xRI4yJ76uOK2uD7ZxfzgnEWdzDJ1Mqxyevs0h80ws7z2Hw3MSn1TkMdWSW4IJ1rd4QBjM8N5Rz5G8PoNPUi+CDDPJViaZiQZ1t3dGJjoNOhGqSZSzeOqlRT/hFDN6LfNZ2tv6f//wk5Z89l5d/v/q39Kb98MMP6to2eB6RWAApsZfZsBj7JqT0irqfjqXvbPK+ptGktKpua25VSl62Siz0azhfednvkiJZdfcaq1J63KZ/rGCTAqL2VeSidu1jqhf2GlqVHFWOsUdz6pZ6S9LMeXPjOUpLt1ua0XyNenJSpE851p9SN7VozWtN+WuvrbwIkvXzKWnpJ3U/TUvS5FG+r4ldV2stQF+Lr/HVnOQR+H52KfJc3fZWVa5bvz00KrVJ/WOSkl9+H/xsrcrLGcm9Xzlfw7LfLk1ccSvrDe15VVq86ZKM9cfUL3XHLUUdup85Y59dYv94sPW696L0XOmLsLvTTE6aOiU0/FxlMUvuyx7Jyterf45uey0tgmQbT7f4PCKEEEIIIYRU/o9dF3s0pROvMOlrejE/jzED0vAJvt4Yz638za15XHV8uHS3WUzDYoi/Lal7qsSAZGLfM11JqxvWtpqZlFx6MVf1Ilgl193q81Viw5oYpirv8mH3YNrZhvby7HHs7f6DFfazE5jJrGDprhumZh1SyrOGueE/22o9GAPMX8who85aVpm5TkDHEXXmusykzhT2Bpg+n0HmcQT+01a5oC/Hr9k1GkFSnIHnUGtX8eYZYbuWwFJ8Au4+c7kulTyr2LUZLD2YgG1LpunfAqwNlGePY4zd6v18nsXcuB1GvcLRTMvDI7eQ+L0PwTx7dIz74NjkbIHvpb02TDxeRGRIKWrNldvV4ym4D+vNqWBAx+lJLOXUWSO7K73SlM/9MCZjaeSGait0GfsjyPwYgafcjo0w8xkGEzn2jPAq46A3TID9rxkkr7lhKz0L9puV9seuc+JUV2OvyG4PcuIUJodqXwM/zn42gKkfM5j53NTi84gQQgghhBCy1Uzn5yAmAnCV/r8uz0bnRyQlshjTiU6dGLPt+ETtcXKewIq2qv01Z0GXY4EJzPEYoqaIdxGJuwGIsMJ9olld6VqG37swmVnBYnwSntPWmnhZiZ0CiCQWsfJ8DpM1I6907DbCwn4Oz3/s4D2YVnJK56bf/Pd/4de7fy2vvyn/+Mc/8Mc//lH9GyGEEEIIIYQQQghZl0Icg3uOIXR0EktxV7njx9v0C55FjhBCCCGEEEIIIeT9U5iPIcS+us70vhPJJU5JMO3YIS980BwhhBBCCCGEEEIIeVdlMfU9nwDJDfuRtz0RWAX1YCKEEEIIIYQQQgh5bxjhikuQpAnY3p38EiWYCCGEEEIIIYQQQsjmUIKJEEIIIYQQQgghhGwKJZgIIYQQQgghhBBCyKZQgokQQgghhBBCCCGEbAolmAghhBBCCCGEEELIplCCiRBCCCGEEEIIIYRsCiWYCCGEEEIIIYQQQsimUIKJEEIIIYQQQgghhGyKnGDasUNZCCGEEEIIIYQQQghZL+rBRAghhBBCCCGEEEI2Afh/eFPUgHH9UHcAAAAASUVORK5CYII=;" vertex="1" parent="1">
          <mxGeometry x="440" y="70" width="361" height="108.06" as="geometry" />
        </mxCell>
        <mxCell id="_rv3rTIkYbMwMZLJfRdI-12" value="Search" style="text;html=1;align=center;verticalAlign=middle;whiteSpace=wrap;rounded=0;" vertex="1" parent="1">
          <mxGeometry x="300" y="125" width="60" height="30" as="geometry" />
        </mxCell>
        <mxCell id="_rv3rTIkYbMwMZLJfRdI-14" style="edgeStyle=orthogonalEdgeStyle;rounded=0;orthogonalLoop=1;jettySize=auto;html=1;exitX=1;exitY=0.5;exitDx=0;exitDy=0;entryX=0.015;entryY=0.645;entryDx=0;entryDy=0;entryPerimeter=0;" edge="1" parent="1" source="_rv3rTIkYbMwMZLJfRdI-12" target="_rv3rTIkYbMwMZLJfRdI-11">
          <mxGeometry relative="1" as="geometry" />
        </mxCell>
        <mxCell id="_rv3rTIkYbMwMZLJfRdI-18" style="edgeStyle=orthogonalEdgeStyle;rounded=0;orthogonalLoop=1;jettySize=auto;html=1;exitX=1;exitY=0.5;exitDx=0;exitDy=0;" edge="1" parent="1" source="_rv3rTIkYbMwMZLJfRdI-16">
          <mxGeometry relative="1" as="geometry">
            <mxPoint x="400" y="290" as="targetPoint" />
          </mxGeometry>
        </mxCell>
        <mxCell id="_rv3rTIkYbMwMZLJfRdI-16" value="Request" style="text;html=1;align=center;verticalAlign=middle;whiteSpace=wrap;rounded=0;" vertex="1" parent="1">
          <mxGeometry x="300" y="210" width="60" height="30" as="geometry" />
        </mxCell>
        <mxCell id="_rv3rTIkYbMwMZLJfRdI-19" value="?" style="text;html=1;align=center;verticalAlign=middle;whiteSpace=wrap;rounded=0;" vertex="1" parent="1">
          <mxGeometry x="370" y="300" width="60" height="30" as="geometry" />
        </mxCell>
      </root>
    </mxGraphModel>
  </diagram>
</mxfile>
